<svg xmlns="http://www.w3.org/2000/svg" xmlns:xlink="http://www.w3.org/1999/xlink" width="64" height="384" viewBox="0 0 64 384"><svg width="64" height="64" viewBox="0 0 64 64" id="angry" y="0"><title>angry</title><g fill="none" fill-rule="evenodd"><path d="M0 0h64v64H0z"></path><g fill-rule="nonzero"><path d="M64 32c0 17.673-14.327 32-32 32C14.329 64 0 49.673 0 32 0 14.329 14.329 0 32 0c17.673 0 32 14.329 32 32" fill="#DA2F47"></path><path d="M45.307 53.118c-.08-.318-2.077-7.785-13.307-7.785-11.232 0-13.227 7.467-13.307 7.785a.886.886 0 0 0 .422.985.9.9 0 0 0 1.066-.137c.034-.034 3.474-3.3 11.819-3.3s11.787 3.266 11.819 3.298a.892.892 0 0 0 1.063.144.89.89 0 0 0 .425-.99zM27.924 30.743c-5.787-5.787-15.087-5.854-15.48-5.854-.98 0-1.776.795-1.776 1.774a1.78 1.78 0 0 0 1.775 1.781c.051 0 3.422.04 7.08 1.31-1.054 1.138-1.745 2.906-1.745 4.913 0 3.438 1.99 6.222 4.444 6.222 2.455 0 4.445-2.784 4.445-6.222 0-.31-.034-.605-.066-.902.023 0 .044.013.066.013a1.776 1.776 0 0 0 1.257-3.035zm23.632-5.854c-.393 0-9.691.067-15.48 5.854a1.776 1.776 0 0 0 1.257 3.035c.023 0 .043-.013.064-.013-.028.297-.064.592-.064.902 0 3.438 1.99 6.222 4.445 6.222s4.444-2.784 4.444-6.222c0-2.007-.691-3.775-1.746-4.912 3.66-1.271 7.03-1.31 7.083-1.31a1.78 1.78 0 0 0 1.773-1.782 1.776 1.776 0 0 0-1.776-1.774z" fill="#292F33"></path></g></g></svg><svg width="64" height="64" viewBox="0 0 64 64" id="happy" y="64"><title>happy</title><g fill="none" fill-rule="evenodd"><path d="M0 0h64v64H0z"></path><g fill-rule="nonzero"><circle fill="#FFCC4D" cx="32" cy="32" r="32"></circle><path d="M32 37.333c-6.44 0-10.715-.75-16-1.777-1.207-.233-3.556 0-3.556 3.555 0 7.111 8.17 16 19.556 16 11.385 0 19.556-8.889 19.556-16 0-3.555-2.349-3.79-3.556-3.555-5.285 1.027-9.56 1.777-16 1.777z" fill="#664500"></path><path d="M16 39.111s5.333 1.778 16 1.778 16-1.778 16-1.778-3.556 7.111-16 7.111c-12.444 0-16-7.11-16-7.11z" fill="#FFF"></path><ellipse fill="#664500" cx="21.333" cy="24" rx="4.444" ry="6.222"></ellipse><ellipse fill="#664500" cx="42.667" cy="24" rx="4.444" ry="6.222"></ellipse></g></g></svg><svg width="64" height="64" viewBox="0 0 64 64" id="like" y="128"><title>like</title><g fill="none" fill-rule="evenodd"><path d="M0 0h64v64H0z"></path><g transform="translate(3.2)" fill-rule="nonzero"><path d="M57.522 31.85c0-.894-.214-1.733-.57-2.495-2.385-7.691-13.546-7.13-29.421-7.504-2.655-.063-1.136-3.197-.205-10.077C27.932 7.3 25.047.428 20.197.428c-7.996 0-.304 6.308-7.374 21.906C9.045 30.668.601 26 .601 34.372v19.056c0 3.258.32 6.39 4.903 6.906 4.443.5 3.444 3.666 9.852 3.666h32.079a5.933 5.933 0 0 0 5.925-5.927c0-1.355-.475-2.589-1.24-3.588 1.812-1.015 3.057-2.931 3.057-5.153 0-1.352-.473-2.585-1.237-3.583 1.818-1.013 3.066-2.931 3.066-5.157 0-1.616-.654-3.08-1.708-4.153 1.346-1.086 2.224-2.729 2.224-4.588z" fill="#FFDB5E"></path><path d="M36.302 37.776h15.296a5.954 5.954 0 0 0 5.095-2.903 1.557 1.557 0 0 0-2.677-1.586 2.822 2.822 0 0 1-2.42 1.378H35.934a2.817 2.817 0 0 1-2.814-2.814 2.817 2.817 0 0 1 2.814-2.815H46.4a1.556 1.556 0 0 0 0-3.11H35.932a5.932 5.932 0 0 0-5.925 5.925c0 1.822.845 3.434 2.142 4.522a5.903 5.903 0 0 0-1.774 4.219c0 1.828.85 3.445 2.155 4.532a5.898 5.898 0 0 0-1.76 4.208c0 1.99.994 3.747 2.505 4.823-.932 1.047-1.515 2.41-1.515 3.918a5.932 5.932 0 0 0 5.925 5.925h9.75a5.955 5.955 0 0 0 5.097-2.901 1.556 1.556 0 0 0-2.674-1.59 2.834 2.834 0 0 1-2.423 1.38h-9.75a2.817 2.817 0 0 1-2.814-2.814 2.817 2.817 0 0 1 2.814-2.814h11.567a5.954 5.954 0 0 0 5.096-2.903c.44-.74.196-1.695-.542-2.132a1.547 1.547 0 0 0-2.131.542 2.795 2.795 0 0 1-2.423 1.382H36.695a2.819 2.819 0 0 1-2.814-2.816 2.817 2.817 0 0 1 2.814-2.815H51.08a5.955 5.955 0 0 0 5.097-2.901 1.556 1.556 0 0 0-2.674-1.59 2.797 2.797 0 0 1-2.423 1.38H36.302a2.817 2.817 0 0 1-2.814-2.814 2.817 2.817 0 0 1 2.814-2.816z" fill="#EE9547"></path></g></g></svg><svg width="64" height="64" viewBox="0 0 64 64" id="love" y="192"><title>love</title><g fill="none" fill-rule="evenodd"><path d="M0 0h64v64H0z"></path><g fill-rule="nonzero"><path d="M64 32c0 17.673-14.327 32-32 32C14.327 64 0 49.673 0 32 0 14.327 14.327 0 32 0c17.673 0 32 14.327 32 32" fill="#FFCC4D"></path><path d="M32 38.843c-5.273 0-8.773-.615-13.1-1.456-.99-.189-2.912 0-2.912 2.912 0 5.822 6.69 13.1 16.012 13.1 9.323 0 16.012-7.278 16.012-13.1 0-2.912-1.923-3.103-2.912-2.912-4.327.84-7.825 1.456-13.1 1.456" fill="#664500"></path><path d="M29.6 5.833A8.303 8.303 0 0 0 19.012.766c-2.624.925-4.482 3.042-5.206 5.518-2.117-1.473-4.89-1.955-7.51-1.03C1.975 6.778-.298 11.52 1.23 15.841c.217.611.505 1.178.84 1.703 3.468 6.368 13.49 10.844 19.557 10.9 4.688-3.853 9.681-13.627 8.387-20.76a8.377 8.377 0 0 0-.414-1.852zm4.8 0A8.304 8.304 0 0 1 44.988.766c2.624.925 4.482 3.042 5.208 5.518 2.117-1.473 4.89-1.955 7.51-1.03a8.304 8.304 0 0 1 5.067 10.588 8.39 8.39 0 0 1-.84 1.703c-3.469 6.368-13.49 10.844-19.56 10.9-4.688-3.853-9.68-13.627-8.385-20.76.065-.618.199-1.24.412-1.852z" fill="#DD2E44"></path></g></g></svg><svg width="64" height="64" viewBox="0 0 64 64" id="sad" y="256"><title>sad</title><g fill="none" fill-rule="evenodd"><path d="M0 0h64v64H0z"></path><g fill-rule="nonzero"><path d="M64 32c0 17.673-14.327 32-32 32C14.329 64 0 49.673 0 32 0 14.329 14.329 0 32 0c17.673 0 32 14.329 32 32" fill="#FFCC4D"></path><ellipse fill="#664500" cx="20.444" cy="30.222" rx="4.444" ry="6.222"></ellipse><ellipse fill="#664500" cx="43.556" cy="30.222" rx="4.444" ry="6.222"></ellipse><path d="M10.665 24a1.778 1.778 0 0 1-1.42-2.844c5.799-7.734 13.539-7.823 13.866-7.823a1.778 1.778 0 0 1 .007 3.556c-.275.003-6.343.153-11.03 6.4a1.774 1.774 0 0 1-1.423.711zm42.67 0a1.774 1.774 0 0 1-1.424-.711c-4.695-6.26-10.775-6.398-11.033-6.4a1.782 1.782 0 0 1-1.762-1.787 1.773 1.773 0 0 1 1.773-1.769c.327 0 8.066.09 13.867 7.823A1.776 1.776 0 0 1 53.336 24zM41.751 50.452c-.02-.079-2.035-7.785-9.751-7.785-7.716 0-9.732 7.706-9.751 7.785a.881.881 0 0 0 .412.967c.335.199.77.153 1.06-.107.016-.014 1.8-1.534 8.279-1.534 6.382 0 8.208 1.475 8.277 1.534a.89.89 0 0 0 1.474-.86z" fill="#664500"></path><path d="M28.444 55.111A8.888 8.888 0 0 1 19.556 64a8.888 8.888 0 0 1-8.89-8.889c0-4.91 7.112-17.778 8.89-17.778 1.777 0 8.888 12.868 8.888 17.778z" fill="#5DADEC"></path></g></g></svg><svg width="64" height="64" viewBox="0 0 64 64" id="wow" y="320"><title>wow</title><g fill="none" fill-rule="evenodd"><path d="M0 0h64v64H0z"></path><g fill-rule="nonzero"><path d="M64 32c0 17.673-14.327 32-32 32C14.329 64 0 49.673 0 32 0 14.329 14.329 0 32 0c17.673 0 32 14.329 32 32" fill="#FFCC4D"></path><ellipse fill="#664500" cx="32" cy="48" rx="8.889" ry="10.667"></ellipse><path d="M10.665 19.556a1.778 1.778 0 0 1-1.42-2.844c5.799-7.734 13.539-7.823 13.866-7.823a1.778 1.778 0 0 1 .007 3.555c-.275.004-6.343.153-11.03 6.4a1.774 1.774 0 0 1-1.423.712zm42.67 0a1.774 1.774 0 0 1-1.424-.712c-4.693-6.26-10.775-6.396-11.033-6.4a1.782 1.782 0 0 1-1.762-1.786 1.773 1.773 0 0 1 1.773-1.77c.327 0 8.066.09 13.867 7.823a1.776 1.776 0 0 1-1.42 2.845z" fill="#664500"></path><path d="M32 40.889c-2.946 0-5.333 3.182-5.333 7.111h10.666c0-3.929-2.387-7.111-5.333-7.111z" fill="#F5F8FA"></path><ellipse fill="#664500" cx="21.333" cy="25.778" rx="4.444" ry="6.222"></ellipse><ellipse fill="#664500" cx="42.667" cy="25.778" rx="4.444" ry="6.222"></ellipse></g></g></svg></svg>