<?xml version="1.0" encoding="UTF-8"?>
<svg width="64px" height="64px" viewBox="0 0 64 64" version="1.1" xmlns="http://www.w3.org/2000/svg" xmlns:xlink="http://www.w3.org/1999/xlink">
    <title>angry</title>
    <g id="angry" stroke="none" stroke-width="1" fill="none" fill-rule="evenodd">
        <g id="Group">
            <rect id="Base" x="0" y="0" width="64" height="64"></rect>
            <g id="1f621" fill-rule="nonzero">
                <path d="M64,32 C64,49.6728889 49.6728889,64 32,64 C14.3288889,64 0,49.6728889 0,32 C0,14.3288889 14.3288889,0 32,0 C49.6728889,0 64,14.3288889 64,32" id="Path" fill="#DA2F47"></path>
                <path d="M45.3066667,53.1182222 C45.2266667,52.8 43.2302222,45.3333333 32,45.3333333 C20.768,45.3333333 18.7733333,52.8 18.6933333,53.1182222 C18.5955556,53.504 18.7697778,53.904 19.1146667,54.1031111 C19.4613333,54.2968889 19.8951111,54.2435556 20.1813333,53.9662222 C20.2151111,53.9324444 23.6551111,50.6666667 32,50.6666667 C40.3448889,50.6666667 43.7866667,53.9324444 43.8186667,53.9644444 C43.9893333,54.1333333 44.2168889,54.2222222 44.4444444,54.2222222 C44.5937778,54.2222222 44.7448889,54.1848889 44.8817778,54.1084444 C45.2302222,53.9093333 45.4044444,53.5057778 45.3066667,53.1182222 L45.3066667,53.1182222 Z M27.9235556,30.7431111 C22.1368889,24.9564444 12.8373333,24.8888889 12.4444444,24.8888889 C11.4631111,24.8888889 10.6684415,25.6835556 10.6684415,26.6631111 C10.6666667,27.6444444 11.4613333,28.4408889 12.4426667,28.4444444 C12.4942222,28.4444444 15.8648889,28.4835556 19.5235556,29.7546667 C18.4693333,30.8924444 17.7777778,32.6595556 17.7777778,34.6666667 C17.7777778,38.1048889 19.7671111,40.8888889 22.2222222,40.8888889 C24.6773333,40.8888889 26.6666667,38.1048889 26.6666667,34.6666667 C26.6666667,34.3573333 26.6328889,34.0622222 26.6008889,33.7653333 C26.624,33.7653333 26.6453333,33.7777778 26.6666667,33.7777778 C27.1217778,33.7777778 27.5768889,33.6035556 27.9235556,33.2568889 C28.6186667,32.5617778 28.6186667,31.4382222 27.9235556,30.7431111 L27.9235556,30.7431111 Z M51.5555556,24.8888889 C51.1626667,24.8888889 41.8648889,24.9564444 36.0764444,30.7431111 C35.3813333,31.4382222 35.3813333,32.5617778 36.0764444,33.2568889 C36.4231111,33.6035556 36.8782222,33.7777778 37.3333333,33.7777778 C37.3564444,33.7777778 37.376,33.7653333 37.3973333,33.7653333 C37.3688889,34.0622222 37.3333333,34.3573333 37.3333333,34.6666667 C37.3333333,38.1048889 39.3226667,40.8888889 41.7777778,40.8888889 C44.2328889,40.8888889 46.2222222,38.1048889 46.2222222,34.6666667 C46.2222222,32.6595556 45.5306667,30.8924444 44.4764444,29.7546667 C48.1351111,28.4835556 51.5057778,28.4444444 51.5591111,28.4444444 C52.5386667,28.4408889 53.3333333,27.6444444 53.3315585,26.6631111 C53.3297778,25.6835556 52.5368889,24.8888889 51.5555556,24.8888889 L51.5555556,24.8888889 Z" id="Shape" fill="#292F33"></path>
            </g>
        </g>
    </g>
</svg>