<?xml version="1.0" encoding="UTF-8"?>
<svg width="64px" height="64px" viewBox="0 0 64 64" version="1.1" xmlns="http://www.w3.org/2000/svg" xmlns:xlink="http://www.w3.org/1999/xlink">
    <title>happy</title>
    <g id="happy" stroke="none" stroke-width="1" fill="none" fill-rule="evenodd">
        <g id="Group">
            <rect id="Base" x="0" y="0" width="64" height="64"></rect>
            <g id="1f600" fill-rule="nonzero">
                <circle id="Oval" fill="#FFCC4D" cx="32" cy="32" r="32"></circle>
                <path d="M32,37.3333333 C25.5591111,37.3333333 21.2853333,36.5831111 16,35.5555556 C14.7928889,35.3226667 12.4444444,35.5555556 12.4444444,39.1111111 C12.4444444,46.2222222 20.6133333,55.1111111 32,55.1111111 C43.3848889,55.1111111 51.5555556,46.2222222 51.5555556,39.1111111 C51.5555556,35.5555556 49.2071111,35.3208889 48,35.5555556 C42.7146667,36.5831111 38.4408889,37.3333333 32,37.3333333 Z" id="Path" fill="#664500"></path>
                <path d="M16,39.1111111 C16,39.1111111 21.3333333,40.8888889 32,40.8888889 C42.6666667,40.8888889 48,39.1111111 48,39.1111111 C48,39.1111111 44.4444444,46.2222222 32,46.2222222 C19.5555556,46.2222222 16,39.1111111 16,39.1111111 Z" id="Path" fill="#FFFFFF"></path>
                <ellipse id="Oval" fill="#664500" cx="21.3333333" cy="24" rx="4.44444444" ry="6.22222222"></ellipse>
                <ellipse id="Oval" fill="#664500" cx="42.6666667" cy="24" rx="4.44444444" ry="6.22222222"></ellipse>
            </g>
        </g>
    </g>
</svg>