<?xml version="1.0" encoding="UTF-8"?>
<svg width="64px" height="64px" viewBox="0 0 64 64" version="1.1" xmlns="http://www.w3.org/2000/svg" xmlns:xlink="http://www.w3.org/1999/xlink">
    <title>love</title>
    <g id="love" stroke="none" stroke-width="1" fill="none" fill-rule="evenodd">
        <g id="Group">
            <rect id="Base" x="0" y="0" width="64" height="64"></rect>
            <g id="1f60d" fill-rule="nonzero">
                <path d="M64,32 C64,49.6728889 49.6728889,64 32,64 C14.3271111,64 0,49.6728889 0,32 C0,14.3271111 14.3271111,0 32,0 C49.6728889,0 64,14.3271111 64,32" id="Path" fill="#FFCC4D"></path>
                <path d="M32,38.8426667 C26.7271111,38.8426667 23.2266667,38.2275556 18.8995556,37.3866667 C17.9093333,37.1982222 15.9875556,37.3866667 15.9875556,40.2986667 C15.9875556,46.1208889 22.6773333,53.3991111 32,53.3991111 C41.3226667,53.3991111 48.0124444,46.1208889 48.0124444,40.2986667 C48.0124444,37.3866667 46.0888889,37.1964444 45.1004444,37.3866667 C40.7733333,38.2275556 37.2746667,38.8426667 32,38.8426667" id="Path" fill="#664500"></path>
                <path d="M29.6,5.83288889 C28.0728889,1.51111111 23.3351111,-0.757333333 19.0115556,0.766222222 C16.3875556,1.69066667 14.5297778,3.808 13.8062222,6.28444444 C11.6888889,4.81066667 8.91555556,4.32888889 6.29511111,5.25333333 C1.97511111,6.77866667 -0.296888889,11.52 1.23022222,15.8417778 C1.44711111,16.4533333 1.73511111,17.0204444 2.06933333,17.5448889 C5.53777778,23.9128889 15.5591111,28.3893333 21.6266667,28.4444444 C26.3146667,24.592 31.3084444,14.8177778 30.0142222,7.68533333 C29.9466667,7.06666667 29.8133333,6.44444444 29.6,5.83288889 Z M34.4,5.83288889 C35.9271111,1.51111111 40.6666667,-0.757333333 44.9884444,0.766222222 C47.6124444,1.69066667 49.4702222,3.808 50.1955556,6.28444444 C52.3128889,4.81066667 55.0862222,4.32888889 57.7066667,5.25333333 C62.0266667,6.77866667 64.2968889,11.52 62.7733333,15.8417778 C62.5546667,16.4533333 62.2684444,17.0204444 61.9324444,17.5448889 C58.464,23.9128889 48.4426667,28.3893333 42.3733333,28.4444444 C37.6853333,24.592 32.6933333,14.8177778 33.9875556,7.68533333 C34.0533333,7.06666667 34.1866667,6.44444444 34.4,5.83288889 Z" id="Shape" fill="#DD2E44"></path>
            </g>
        </g>
    </g>
</svg>