<?xml version="1.0" encoding="UTF-8"?>
<svg width="64px" height="64px" viewBox="0 0 64 64" version="1.1" xmlns="http://www.w3.org/2000/svg" xmlns:xlink="http://www.w3.org/1999/xlink">
    <title>wow</title>
    <g id="wow" stroke="none" stroke-width="1" fill="none" fill-rule="evenodd">
        <g id="Group">
            <rect id="Base" x="0" y="0" width="64" height="64"></rect>
            <g id="1f632" fill-rule="nonzero">
                <path d="M64,32 C64,49.6728889 49.6728889,64 32,64 C14.3288889,64 0,49.6728889 0,32 C0,14.3288889 14.3288889,0 32,0 C49.6728889,0 64,14.3288889 64,32" id="Path" fill="#FFCC4D"></path>
                <ellipse id="Oval" fill="#664500" cx="32" cy="48" rx="8.88888889" ry="10.6666667"></ellipse>
                <path d="M10.6648889,19.5555556 C10.2951111,19.5555556 9.92,19.44 9.6,19.2 C8.81422222,18.6115556 8.656,17.4968889 9.24444444,16.7111111 C15.0435556,8.97777778 22.784,8.88888889 23.1111111,8.88888889 C24.0924444,8.88888889 24.8888889,9.68533333 24.8888889,10.6666667 C24.8888889,11.6462222 24.0977778,12.4408889 23.1182222,12.4444444 C22.8426667,12.448 16.7751111,12.5973333 12.0888889,18.8444444 C11.7404444,19.3102222 11.2053333,19.5555556 10.6648889,19.5555556 Z M53.3351111,19.5555556 C52.7928889,19.5555556 52.2613333,19.3102222 51.9111111,18.8444444 C47.2177778,12.5848889 41.136,12.448 40.8782222,12.4444444 C39.9004444,12.4337778 39.1111111,11.6337778 39.1164176,10.6577778 C39.1217778,9.67822222 39.9111111,8.88888889 40.8888889,8.88888889 C41.216,8.88888889 48.9546667,8.97777778 54.7555556,16.7111111 C55.3457778,17.4968889 55.1857778,18.6115556 54.4,19.2 C54.08,19.44 53.7066667,19.5555556 53.3351111,19.5555556 L53.3351111,19.5555556 Z" id="Shape" fill="#664500"></path>
                <path d="M32,40.8888889 C29.0542222,40.8888889 26.6666667,44.0711111 26.6666667,48 L37.3333333,48 C37.3333333,44.0711111 34.9457778,40.8888889 32,40.8888889 Z" id="Path" fill="#F5F8FA"></path>
                <ellipse id="Oval" fill="#664500" cx="21.3333333" cy="25.7777778" rx="4.44444444" ry="6.22222222"></ellipse>
                <ellipse id="Oval" fill="#664500" cx="42.6666667" cy="25.7777778" rx="4.44444444" ry="6.22222222"></ellipse>
            </g>
        </g>
    </g>
</svg>