<?xml version="1.0" encoding="UTF-8"?>
<svg width="60px" height="316px" viewBox="0 0 60 316" version="1.1" xmlns="http://www.w3.org/2000/svg" xmlns:xlink="http://www.w3.org/1999/xlink">
    <title>emoji</title>
    <g id="Page-1" stroke="none" stroke-width="1" fill="none" fill-rule="evenodd">
        <g id="emoji">
            <g id="Group">
                <rect id="Base" x="0" y="0" width="60" height="60"></rect>
                <g id="1f621" fill-rule="nonzero">
                    <path d="M60,30 C60,46.5683333 46.5683333,60 30,60 C13.4333333,60 0,46.5683333 0,30 C0,13.4333333 13.4333333,0 30,0 C46.5683333,0 60,13.4333333 60,30" id="Path" fill="#DA2F47"></path>
                    <path d="M42.475,49.7983333 C42.4,49.5 40.5283333,42.5 30,42.5 C19.47,42.5 17.6,49.5 17.525,49.7983333 C17.4333333,50.16 17.5966667,50.535 17.92,50.7216667 C18.245,50.9033333 18.6516667,50.8533333 18.92,50.5933333 C18.9516667,50.5616667 22.1766667,47.5 30,47.5 C37.8233333,47.5 41.05,50.5616667 41.08,50.5916667 C41.24,50.75 41.4533333,50.8333333 41.6666667,50.8333333 C41.8066667,50.8333333 41.9483333,50.7983333 42.0766667,50.7266667 C42.4033333,50.54 42.5666667,50.1616667 42.475,49.7983333 L42.475,49.7983333 Z M26.1783333,28.8216667 C20.7533333,23.3966667 12.035,23.3333333 11.6666667,23.3333333 C10.7466667,23.3333333 10.0016639,24.0783333 10.0016639,24.9966667 C10,25.9166667 10.745,26.6633333 11.665,26.6666667 C11.7133333,26.6666667 14.8733333,26.7033333 18.3033333,27.895 C17.315,28.9616667 16.6666667,30.6183333 16.6666667,32.5 C16.6666667,35.7233333 18.5316667,38.3333333 20.8333333,38.3333333 C23.135,38.3333333 25,35.7233333 25,32.5 C25,32.21 24.9683333,31.9333333 24.9383333,31.655 C24.96,31.655 24.98,31.6666667 25,31.6666667 C25.4266667,31.6666667 25.8533333,31.5033333 26.1783333,31.1783333 C26.83,30.5266667 26.83,29.4733333 26.1783333,28.8216667 L26.1783333,28.8216667 Z M48.3333333,23.3333333 C47.965,23.3333333 39.2483333,23.3966667 33.8216667,28.8216667 C33.17,29.4733333 33.17,30.5266667 33.8216667,31.1783333 C34.1466667,31.5033333 34.5733333,31.6666667 35,31.6666667 C35.0216667,31.6666667 35.04,31.655 35.06,31.655 C35.0333333,31.9333333 35,32.21 35,32.5 C35,35.7233333 36.865,38.3333333 39.1666667,38.3333333 C41.4683333,38.3333333 43.3333333,35.7233333 43.3333333,32.5 C43.3333333,30.6183333 42.685,28.9616667 41.6966667,27.895 C45.1266667,26.7033333 48.2866667,26.6666667 48.3366667,26.6666667 C49.255,26.6633333 50,25.9166667 49.9983361,24.9966667 C49.9966667,24.0783333 49.2533333,23.3333333 48.3333333,23.3333333 L48.3333333,23.3333333 Z" id="Shape" fill="#292F33"></path>
                </g>
            </g>
            <g id="Group" transform="translate(0.000000, 64.000000)">
                <rect id="Base" x="0" y="0" width="60" height="60"></rect>
                <g id="1f600" fill-rule="nonzero">
                    <circle id="Oval" fill="#FFCC4D" cx="30" cy="30" r="30"></circle>
                    <path d="M30,35 C23.9616667,35 19.955,34.2966667 15,33.3333333 C13.8683333,33.115 11.6666667,33.3333333 11.6666667,36.6666667 C11.6666667,43.3333333 19.325,51.6666667 30,51.6666667 C40.6733333,51.6666667 48.3333333,43.3333333 48.3333333,36.6666667 C48.3333333,33.3333333 46.1316667,33.1133333 45,33.3333333 C40.045,34.2966667 36.0383333,35 30,35 Z" id="Path" fill="#664500"></path>
                    <path d="M15,36.6666667 C15,36.6666667 20,38.3333333 30,38.3333333 C40,38.3333333 45,36.6666667 45,36.6666667 C45,36.6666667 41.6666667,43.3333333 30,43.3333333 C18.3333333,43.3333333 15,36.6666667 15,36.6666667 Z" id="Path" fill="#FFFFFF"></path>
                    <ellipse id="Oval" fill="#664500" cx="20" cy="22.5" rx="4.16666667" ry="5.83333333"></ellipse>
                    <ellipse id="Oval" fill="#664500" cx="40" cy="22.5" rx="4.16666667" ry="5.83333333"></ellipse>
                </g>
            </g>
            <g id="Group" transform="translate(0.000000, 128.000000)">
                <rect id="Base" x="0" y="0" width="60" height="60"></rect>
                <g id="1f60d" fill-rule="nonzero">
                    <path d="M60,30 C60,46.5683333 46.5683333,60 30,60 C13.4316667,60 0,46.5683333 0,30 C0,13.4316667 13.4316667,0 30,0 C46.5683333,0 60,13.4316667 60,30" id="Path" fill="#FFCC4D"></path>
                    <path d="M30,36.415 C25.0566667,36.415 21.775,35.8383333 17.7183333,35.05 C16.79,34.8733333 14.9883333,35.05 14.9883333,37.78 C14.9883333,43.2383333 21.26,50.0616667 30,50.0616667 C38.74,50.0616667 45.0116667,43.2383333 45.0116667,37.78 C45.0116667,35.05 43.2083333,34.8716667 42.2816667,35.05 C38.225,35.8383333 34.945,36.415 30,36.415" id="Path" fill="#664500"></path>
                    <path d="M27.75,5.46833333 C26.3183333,1.41666667 21.8766667,-0.71 17.8233333,0.718333333 C15.3633333,1.585 13.6216667,3.57 12.9433333,5.89166667 C10.9583333,4.51 8.35833333,4.05833333 5.90166667,4.925 C1.85166667,6.355 -0.278333333,10.8 1.15333333,14.8516667 C1.35666667,15.425 1.62666667,15.9566667 1.94,16.4483333 C5.19166667,22.4183333 14.5866667,26.615 20.275,26.6666667 C24.67,23.055 29.3516667,13.8916667 28.1383333,7.205 C28.075,6.625 27.95,6.04166667 27.75,5.46833333 Z M32.25,5.46833333 C33.6816667,1.41666667 38.125,-0.71 42.1766667,0.718333333 C44.6366667,1.585 46.3783333,3.57 47.0583333,5.89166667 C49.0433333,4.51 51.6433333,4.05833333 54.1,4.925 C58.15,6.355 60.2783333,10.8 58.85,14.8516667 C58.645,15.425 58.3766667,15.9566667 58.0616667,16.4483333 C54.81,22.4183333 45.415,26.615 39.725,26.6666667 C35.33,23.055 30.65,13.8916667 31.8633333,7.205 C31.925,6.625 32.05,6.04166667 32.25,5.46833333 Z" id="Shape" fill="#DD2E44"></path>
                </g>
            </g>
            <g id="Group" transform="translate(0.000000, 192.000000)">
                <rect id="Base" x="0" y="0" width="60" height="60"></rect>
                <g id="1f622" fill-rule="nonzero">
                    <path d="M60,30 C60,46.5683333 46.5683333,60 30,60 C13.4333333,60 0,46.5683333 0,30 C0,13.4333333 13.4333333,0 30,0 C46.5683333,0 60,13.4333333 60,30" id="Path" fill="#FFCC4D"></path>
                    <ellipse id="Oval" fill="#664500" cx="19.1666667" cy="28.3333333" rx="4.16666667" ry="5.83333333"></ellipse>
                    <ellipse id="Oval" fill="#664500" cx="40.8333333" cy="28.3333333" rx="4.16666667" ry="5.83333333"></ellipse>
                    <path d="M9.99833333,22.5 C9.65166667,22.5 9.3,22.3916667 9,22.1666667 C8.26333333,21.615 8.115,20.57 8.66666667,19.8333333 C14.1033333,12.5833333 21.36,12.5 21.6666667,12.5 C22.5866667,12.5 23.3333333,13.2466667 23.3333333,14.1666667 C23.3333333,15.085 22.5916667,15.83 21.6733333,15.8333333 C21.415,15.8366667 15.7266667,15.9766667 11.3333333,21.8333333 C11.0066667,22.27 10.505,22.5 9.99833333,22.5 Z M50.0016667,22.5 C49.4933333,22.5 48.995,22.27 48.6666667,21.8333333 C44.265,15.965 38.565,15.835 38.3233333,15.8333333 C37.4066667,15.8233333 36.6666667,15.0733333 36.6716415,14.1583333 C36.6766667,13.24 37.4166667,12.5 38.3333333,12.5 C38.64,12.5 45.895,12.5833333 51.3333333,19.8333333 C51.8866667,20.57 51.7366667,21.615 51,22.1666667 C50.7,22.3916667 50.35,22.5 50.0016667,22.5 L50.0016667,22.5 Z M39.1416667,47.2983333 C39.1233333,47.225 37.2333333,40 30,40 C22.7666667,40 20.8766667,47.225 20.8583333,47.2983333 C20.77,47.6533333 20.9316667,48.0166667 21.245,48.205 C21.5583333,48.3916667 21.9666667,48.3483333 22.2383333,48.105 C22.2533333,48.0916667 23.9266667,46.6666667 30,46.6666667 C35.9833333,46.6666667 37.695,48.05 37.76,48.105 C37.9183333,48.255 38.125,48.3333333 38.3333333,48.3333333 C38.4733333,48.3333333 38.615,48.2983333 38.7433333,48.2266667 C39.07,48.04 39.2333333,47.6616667 39.1416667,47.2983333 L39.1416667,47.2983333 Z" id="Shape" fill="#664500"></path>
                    <path d="M26.6666667,51.6666667 C26.6666667,56.27 22.9366667,60 18.3333333,60 C13.73,60 10,56.27 10,51.6666667 C10,47.0633333 16.6666667,35 18.3333333,35 C20,35 26.6666667,47.0633333 26.6666667,51.6666667 Z" id="Path" fill="#5DADEC"></path>
                </g>
            </g>
            <g id="Group" transform="translate(0.000000, 256.000000)">
                <rect id="Base" x="0" y="0" width="60" height="60"></rect>
                <g id="1f632" fill-rule="nonzero">
                    <path d="M60,30 C60,46.5683333 46.5683333,60 30,60 C13.4333333,60 0,46.5683333 0,30 C0,13.4333333 13.4333333,0 30,0 C46.5683333,0 60,13.4333333 60,30" id="Path" fill="#FFCC4D"></path>
                    <ellipse id="Oval" fill="#664500" cx="30" cy="45" rx="8.33333333" ry="10"></ellipse>
                    <path d="M9.99833333,18.3333333 C9.65166667,18.3333333 9.3,18.225 9,18 C8.26333333,17.4483333 8.115,16.4033333 8.66666667,15.6666667 C14.1033333,8.41666667 21.36,8.33333333 21.6666667,8.33333333 C22.5866667,8.33333333 23.3333333,9.08 23.3333333,10 C23.3333333,10.9183333 22.5916667,11.6633333 21.6733333,11.6666667 C21.415,11.67 15.7266667,11.81 11.3333333,17.6666667 C11.0066667,18.1033333 10.505,18.3333333 9.99833333,18.3333333 Z M50.0016667,18.3333333 C49.4933333,18.3333333 48.995,18.1033333 48.6666667,17.6666667 C44.2666667,11.7983333 38.565,11.67 38.3233333,11.6666667 C37.4066667,11.6566667 36.6666667,10.9066667 36.6716415,9.99166667 C36.6766667,9.07333333 37.4166667,8.33333333 38.3333333,8.33333333 C38.64,8.33333333 45.895,8.41666667 51.3333333,15.6666667 C51.8866667,16.4033333 51.7366667,17.4483333 51,18 C50.7,18.225 50.35,18.3333333 50.0016667,18.3333333 L50.0016667,18.3333333 Z" id="Shape" fill="#664500"></path>
                    <path d="M30,38.3333333 C27.2383333,38.3333333 25,41.3166667 25,45 L35,45 C35,41.3166667 32.7616667,38.3333333 30,38.3333333 Z" id="Path" fill="#F5F8FA"></path>
                    <ellipse id="Oval" fill="#664500" cx="20" cy="24.1666667" rx="4.16666667" ry="5.83333333"></ellipse>
                    <ellipse id="Oval" fill="#664500" cx="40" cy="24.1666667" rx="4.16666667" ry="5.83333333"></ellipse>
                </g>
            </g>
        </g>
    </g>
</svg>