<svg height="228" viewBox="0 0 340 228" width="340" xmlns="http://www.w3.org/2000/svg" xmlns:xlink="http://www.w3.org/1999/xlink"><mask id="a" fill="#fff"><rect fill="#fff" fill-rule="evenodd" height="228" rx="8" width="340"/></mask><g fill="none" fill-rule="evenodd" mask="url(#a)"><g transform="translate(-37.693543 -41.693184)"><path d="m37.693543 41.693184h334v228h-334z"/><path d="m101.749387 124.876031h92.499442c5.110595 0 9.249945-4.13935 9.249945-9.249944v-9.249944c0-5.110595-4.13935-9.2499446-9.249945-9.2499446h-92.499442c-5.1105944 0-9.2499444 4.1393496-9.2499444 9.2499446v9.249944c0 5.110594 4.13935 9.249944 9.2499444 9.249944zm-9.2499444 46.249722c0 5.110594 4.13935 9.249944 9.2499444 9.249944h92.499442c5.110595 0 9.249945-4.13935 9.249945-9.249944v-9.249945c0-5.110594-4.13935-9.249944-9.249945-9.249944h-92.499442c-5.1105944 0-9.2499444 4.13935-9.2499444 9.249944zm55.4996654 70.027859c-9.492755 0-18.98551-2.925295-27.090774-8.781666l-120.908334-87.342599v123.22082c0 15.326002 12.4238314 27.749833 27.7498328 27.749833h240.4985512c15.326001 0 27.749832-12.423831 27.749832-27.749833v-123.22082l-120.908334 87.342599c-8.105263 5.85059-17.598019 8.781666-27.090774 8.781666zm137.367454-146.9469272c-5.116376-4.0121633-9.966815-7.7872968-17.118178-13.1869518v-25.5182837c0-15.3260014-12.423832-27.7498328-27.749833-27.7498328h-44.833324c-1.757489-1.2718673-3.393573-2.4627977-5.226218-3.7924772-9.718223-7.093551-29.027482-24.15969811-42.439901-23.95735558-13.412419-.20234253-32.715896 16.86380458-42.4399 23.95735558-1.832646 1.3296795-3.468729 2.5206099-5.226219 3.7924772h-44.8333234c-15.3260014 0-27.7498328 12.4238314-27.7498328 27.7498328v25.5182837c-7.1513632 5.3938737-12.0018027 9.1747885-17.1181781 13.1869518-6.71023556 5.2587327-10.6316547 13.3103032-10.6316547 21.8356492v6.156995l55.4996656 40.092727v-106.7906067h184.9988854v106.7906067l55.499665-40.092727v-6.156995c0-8.521511-3.919664-16.5747434-10.631654-21.8356492z" fill="#e5e7eb" fill-rule="evenodd" transform="matrix(.93969262 -.34202014 .34202014 .93969262 0 101.237352)"/></g></g></svg>
