<?xml version="1.0" encoding="UTF-8"?>
<svg width="168px" height="48px" viewBox="0 0 168 48" version="1.1" xmlns="http://www.w3.org/2000/svg" xmlns:xlink="http://www.w3.org/1999/xlink">
    <title>Artboard Copy 3</title>
    <g id="Artboard-Copy-3" stroke="none" stroke-width="1" fill="none" fill-rule="evenodd">
        <g id="Group">
            <path d="M51.506,39.38 L51.506,31.606 C52.624,33.062 54.314,33.92 56.29,33.92 C60.138,33.92 62.92,30.93 62.92,26.796 C62.92,22.662 60.112,19.672 56.29,19.672 C54.262,19.672 52.572,20.556 51.428,22.038 L51.428,20.192 L48.672,20.192 L48.672,39.38 L51.506,39.38 Z M55.744,31.268 C53.222,31.268 51.402,29.37 51.402,26.796 C51.402,24.222 53.222,22.324 55.744,22.324 C58.24,22.324 60.112,24.17 60.112,26.796 C60.112,29.37 58.266,31.268 55.744,31.268 Z M72.046,33.92 C74.1,33.92 75.842,32.984 76.96,31.424 L76.96,33.4 L79.794,33.4 L79.794,20.192 L76.96,20.192 L76.96,22.168 C75.842,20.608 74.1,19.672 72.046,19.672 C68.172,19.672 65.416,22.662 65.416,26.796 C65.416,30.93 68.172,33.92 72.046,33.92 Z M72.592,31.398 C70.07,31.398 68.224,29.448 68.224,26.796 C68.224,24.118 70.07,22.194 72.592,22.194 C75.114,22.194 76.934,24.118 76.934,26.796 C76.934,29.474 75.114,31.398 72.592,31.398 Z M85.852,39.276 C88.66,39.276 89.83,36.754 90.974,33.712 L96.148,20.192 L93.184,20.192 L89.596,29.942 L85.462,20.192 L82.368,20.192 L88.322,33.452 L88.178621,33.8050561 C87.5615,35.3407143 86.97,36.91 85.28,36.91 C84.76,36.91 84.11,36.754 83.538,36.546 L83.538,38.834 C84.214,39.12 85.098,39.276 85.852,39.276 Z M101.53,39.38 L101.53,31.606 C102.648,33.062 104.338,33.92 106.314,33.92 C110.162,33.92 112.944,30.93 112.944,26.796 C112.944,22.662 110.136,19.672 106.314,19.672 C104.286,19.672 102.596,20.556 101.452,22.038 L101.452,20.192 L98.696,20.192 L98.696,39.38 L101.53,39.38 Z M105.768,31.268 C103.246,31.268 101.426,29.37 101.426,26.796 C101.426,24.222 103.246,22.324 105.768,22.324 C108.264,22.324 110.136,24.17 110.136,26.796 C110.136,29.37 108.29,31.268 105.768,31.268 Z M118.872,33.4 L118.872,14.212 L116.064,14.212 L116.064,33.4 L118.872,33.4 Z M128.622,33.92 C130.676,33.92 132.418,32.984 133.536,31.424 L133.536,33.4 L136.37,33.4 L136.37,20.192 L133.536,20.192 L133.536,22.168 C132.418,20.608 130.676,19.672 128.622,19.672 C124.748,19.672 121.992,22.662 121.992,26.796 C121.992,30.93 124.748,33.92 128.622,33.92 Z M129.168,31.398 C126.646,31.398 124.8,29.448 124.8,26.796 C124.8,24.118 126.646,22.194 129.168,22.194 C131.69,22.194 133.51,24.118 133.51,26.796 C133.51,29.474 131.69,31.398 129.168,31.398 Z M142.948,33.4 L142.948,25.808 C142.948,23.702 144.586,22.194 146.562,22.194 C148.538,22.194 149.708,23.598 149.708,25.548 L149.708,33.4 L152.516,33.4 L152.516,25.34 C152.516,22.064 150.41,19.672 147.186,19.672 C145.47,19.672 143.832,20.504 142.896,21.882 L142.896,20.192 L140.114,20.192 L140.114,33.4 L142.948,33.4 Z M161.59,33.946 C164.944,33.946 167.336,32.048 167.336,29.422 C167.336,26.432 164.086,25.886 161.564,25.47 C159.432,25.106 158.444,24.794 158.444,23.806 C158.444,22.74 159.64,21.96 161.07,21.96 C162.968,21.96 164.346,22.87 164.372,24.17 L166.998,24.17 C166.998,21.544 164.502,19.646 161.096,19.646 C158.106,19.646 155.792,21.414 155.792,23.832 C155.792,26.978 158.132,27.368 161.226,27.836 C162.552,28.018 164.606,28.356 164.606,29.734 C164.632,30.826 163.358,31.632 161.59,31.632 C159.614,31.632 158.184,30.488 158.184,28.928 L155.584,28.928 C155.584,31.84 158.106,33.946 161.59,33.946 Z" id="payplans" fill="#FFFFFF" fill-rule="nonzero"></path>
            <g id="Group-2">
                <rect id="Rectangle" fill="#DB7A60" x="0" y="24" width="8" height="24"></rect>
                <rect id="Rectangle-Copy" fill="#83B9E2" x="10" y="14" width="8" height="34"></rect>
                <rect id="Rectangle-Copy-2" fill="#5DA97F" x="20" y="20" width="8" height="28"></rect>
                <rect id="Rectangle-Copy-3" fill="#F5D264" x="30" y="0" width="8" height="48"></rect>
            </g>
        </g>
    </g>
</svg>