<svg width="38" height="32" viewBox="0 0 38 32" fill="none" xmlns="http://www.w3.org/2000/svg">
<rect x="0.5" y="0.5" width="37" height="31" rx="5.5" fill="white"/>
<path fill-rule="evenodd" clip-rule="evenodd" d="M29.5391 12.7769C28.1603 8.27451 23.9684 5 19.0106 5C12.9297 5 8 9.92496 8 16.0003C8 22.0753 12.9297 27 19.0106 27C23.9926 27 28.2005 23.693 29.5578 19.1565C28.9887 19.5003 28.3087 19.7028 27.5498 19.7028C25.3365 19.7028 23.7925 18.0265 23.7925 16.0003V15.9799C23.7925 13.9534 25.3574 12.2568 27.5708 12.2568C28.3142 12.2568 28.9794 12.4491 29.5391 12.7769ZM16.4712 19.5793H11.2618V18.5822L13.7425 16.4734C14.7309 15.6405 15.0916 15.1778 15.0916 14.5297C15.0916 13.82 14.5869 13.4082 13.9281 13.4082C13.2692 13.4082 12.816 13.7683 12.2607 14.4887L11.3648 13.7889C12.0545 12.8218 12.7337 12.2771 14.0206 12.2771C15.4313 12.2771 16.3991 13.1412 16.3991 14.4269V14.4472C16.3991 15.5781 15.8022 16.1959 14.5255 17.2343L13.0423 18.4688H16.4712V19.5793ZM23.6173 13.2454L22.7256 14.1157C22.2121 13.6918 21.6507 13.4187 20.9341 13.4187C19.5544 13.4187 18.5561 14.5498 18.5561 15.959V15.9799C18.5561 17.3888 19.5544 18.5409 20.9341 18.5409C21.676 18.5409 22.1934 18.2856 22.7052 17.8644L23.5491 18.6891C22.8649 19.3171 22.0835 19.7028 20.8925 19.7028C18.792 19.7028 17.2278 18.0675 17.2278 16.0003V15.9799C17.2278 13.9328 18.7623 12.2568 20.9442 12.2568C22.1799 12.2568 22.9591 12.6598 23.6173 13.2454ZM30 16.0003V15.9799C30 14.5809 28.9813 13.4187 27.5498 13.4187C26.1195 13.4187 25.1204 14.5602 25.1204 15.959V15.9799C25.1204 17.3787 26.1394 18.5409 27.5708 18.5409C29.0014 18.5409 30 17.399 30 16.0003Z" fill="#008FBE"/>
<rect x="0.5" y="0.5" width="37" height="31" rx="5.5" stroke="#D9D9D9"/>
</svg>
