<svg width="86" height="32" viewBox="0 0 86 32" fill="none" xmlns="http://www.w3.org/2000/svg">
<rect x="0.5" y="0.5" width="84.0977" height="31" rx="5.5" fill="white"/>
<path fill-rule="evenodd" clip-rule="evenodd" d="M42.6739 20.8274L42.0112 22.0981H42.9348L42.6739 20.8274ZM41.8474 22.4136L41.5279 23.0297H41.1342L42.5686 20.3398H42.9233L43.5041 23.0297H43.13L43.0014 22.4136H41.8474Z" fill="#0A0B09"/>
<path fill-rule="evenodd" clip-rule="evenodd" d="M66.4622 22.7952C66.6027 22.7952 66.7197 22.7684 66.8132 22.7154C66.9064 22.6619 66.9755 22.5935 67.0194 22.5103C67.0636 22.4273 67.0862 22.3416 67.0862 22.2533C67.0862 22.1752 67.0647 22.1082 67.0215 22.0527C66.9787 21.9967 66.9052 21.9427 66.8013 21.8908L66.4622 21.7465C66.2698 21.661 66.1316 21.5674 66.0472 21.4658C65.9627 21.3648 65.9206 21.2411 65.9206 21.0958C65.9206 20.9373 65.9605 20.7975 66.0411 20.6764C66.1218 20.5557 66.2345 20.4629 66.3785 20.3979C66.5228 20.3331 66.6887 20.3004 66.8754 20.3004C67.0314 20.3029 67.1678 20.3245 67.2846 20.3646C67.4016 20.4048 67.5044 20.4654 67.5929 20.5458L67.5343 20.9083C67.3343 20.7268 67.1016 20.6341 66.8364 20.6318C66.6755 20.6318 66.5436 20.6719 66.441 20.7523C66.3381 20.8332 66.2871 20.9358 66.2871 21.0606C66.2871 21.1306 66.3123 21.1906 66.3628 21.2399C66.4136 21.2892 66.5063 21.345 66.6414 21.4074L66.973 21.5557C67.1524 21.6442 67.279 21.7395 67.3531 21.8421C67.4271 21.9445 67.464 22.0673 67.464 22.2104C67.464 22.3739 67.4292 22.5251 67.3589 22.6627C67.2889 22.8005 67.1757 22.9127 67.0194 22.9997C66.8638 23.0869 66.6635 23.1303 66.4192 23.1303C66.0838 23.1303 65.8203 23.0457 65.6281 22.8768L65.6906 22.4912C65.9215 22.6938 66.1788 22.7952 66.4622 22.7952Z" fill="#0A0B09"/>
<path fill-rule="evenodd" clip-rule="evenodd" d="M68.3392 21.534C68.2159 21.6419 68.1319 21.7724 68.0877 21.926H69.2185C69.221 21.905 69.2221 21.8764 69.2221 21.84C69.2221 21.6945 69.1834 21.5803 69.1053 21.4968C69.0274 21.414 68.917 21.3723 68.7739 21.3723C68.6079 21.3723 68.4625 21.4264 68.3392 21.534ZM69.3645 21.2924C69.4932 21.434 69.5575 21.6179 69.5575 21.8439C69.5575 21.9192 69.5536 21.9816 69.5458 22.0311C69.5379 22.0807 69.5248 22.139 69.5068 22.2063H68.041C68.0333 22.4015 68.0837 22.5515 68.1929 22.6567C68.3023 22.7618 68.4505 22.8143 68.6377 22.8143C68.7674 22.8143 68.8859 22.7985 68.9926 22.7661C69.0986 22.7335 69.2039 22.6848 69.3079 22.6198L69.2611 22.912C69.0613 23.0471 68.8245 23.1146 68.5517 23.1146C68.3726 23.1146 68.2171 23.0765 68.086 22.9997C67.9548 22.923 67.8545 22.8171 67.7859 22.6822C67.717 22.547 67.6824 22.3948 67.6824 22.2261C67.6824 22.0594 67.724 21.8873 67.8072 21.7094C67.8904 21.5315 68.0167 21.3821 68.1854 21.2611C68.3544 21.1406 68.5621 21.0798 68.8088 21.0798C69.0509 21.0798 69.2359 21.1507 69.3645 21.2924Z" fill="#0A0B09"/>
<path fill-rule="evenodd" clip-rule="evenodd" d="M70.7588 21.4346C70.6057 21.4346 70.4758 21.4898 70.3693 21.6005C70.2628 21.7106 70.1922 21.8714 70.1586 22.0818L70.0067 23.0449H69.6598L69.9597 21.1423H70.2951L70.2446 21.4655C70.4004 21.2424 70.5878 21.1306 70.8056 21.1306C70.8605 21.1306 70.911 21.1347 70.9577 21.1423L70.9109 21.4463C70.8643 21.4387 70.8137 21.4346 70.7588 21.4346Z" fill="#0A0B09"/>
<path fill-rule="evenodd" clip-rule="evenodd" d="M71.8015 23.0446H71.4781L71.0259 21.1423H71.3728L71.6961 22.6274L72.4874 21.1423H72.8501L71.8015 23.0446Z" fill="#0A0B09"/>
<path fill-rule="evenodd" clip-rule="evenodd" d="M73.1023 20.7758C73.0672 20.7394 73.0498 20.6943 73.0498 20.6394C73.0498 20.5719 73.0753 20.5135 73.1274 20.4642C73.1795 20.4147 73.2393 20.3901 73.3068 20.3901C73.3614 20.3901 73.4065 20.4083 73.4413 20.4444C73.4763 20.4808 73.4939 20.5266 73.4939 20.5809C73.4939 20.6459 73.4678 20.7038 73.416 20.7543C73.3642 20.8051 73.3043 20.8305 73.2365 20.8305C73.1822 20.8305 73.1372 20.8125 73.1023 20.7758ZM73.0614 23.0446H72.7144L73.0068 21.1423H73.3574L73.0614 23.0446Z" fill="#0A0B09"/>
<path fill-rule="evenodd" clip-rule="evenodd" d="M73.8731 22.9978C73.7461 22.9201 73.6456 22.8136 73.5732 22.6802C73.5004 22.5462 73.464 22.3989 73.464 22.2376C73.464 22.035 73.5102 21.8451 73.6022 21.6685C73.6945 21.4918 73.8284 21.3496 74.0038 21.2418C74.1792 21.1339 74.3855 21.0798 74.6215 21.0798C74.8504 21.0798 75.0362 21.1372 75.179 21.2515L75.1208 21.606C74.9885 21.4657 74.8153 21.3956 74.6023 21.3956C74.4517 21.3956 74.3169 21.434 74.1989 21.5105C74.0807 21.5873 73.9888 21.6879 73.9241 21.8128C73.859 21.9376 73.8263 22.0715 73.8263 22.2141C73.8263 22.3886 73.8756 22.5293 73.9747 22.6372C74.0733 22.7451 74.2087 22.7989 74.3799 22.7989C74.4865 22.7989 74.5932 22.7795 74.6996 22.7403C74.8062 22.7016 74.901 22.6445 74.9844 22.569L74.9296 22.9277C74.8285 22.995 74.7268 23.0434 74.6256 23.072C74.5245 23.1003 74.4166 23.1146 74.3023 23.1146C74.1435 23.1146 74.0005 23.0757 73.8731 22.9978Z" fill="#0A0B09"/>
<path fill-rule="evenodd" clip-rule="evenodd" d="M75.8796 21.534C75.7563 21.6419 75.6723 21.7724 75.6281 21.926H76.7586C76.7611 21.905 76.7623 21.8764 76.7623 21.84C76.7623 21.6945 76.7237 21.5803 76.6457 21.4968C76.5675 21.414 76.4571 21.3723 76.3143 21.3723C76.1478 21.3723 76.0029 21.4264 75.8796 21.534ZM76.9049 21.2924C77.0333 21.434 77.0977 21.6179 77.0977 21.8439C77.0977 21.9192 77.094 21.9816 77.0856 22.0311C77.0783 22.0807 77.0649 22.139 77.0472 22.2063H75.581C75.5737 22.4015 75.6241 22.5515 75.7333 22.6567C75.8421 22.7618 75.9906 22.8143 76.1778 22.8143C76.3077 22.8143 76.426 22.7985 76.5327 22.7661C76.639 22.7335 76.7441 22.6848 76.8483 22.6198L76.8013 22.912C76.6014 23.0471 76.3649 23.1146 76.0921 23.1146C75.913 23.1146 75.757 23.0765 75.6263 22.9997C75.4949 22.923 75.3949 22.8171 75.3259 22.6822C75.2571 22.547 75.2227 22.3948 75.2227 22.2261C75.2227 22.0594 75.2638 21.8873 75.3473 21.7094C75.4307 21.5315 75.5568 21.3821 75.7255 21.2611C75.8945 21.1406 76.1022 21.0798 76.3489 21.0798C76.591 21.0798 76.7763 21.1507 76.9049 21.2924Z" fill="#0A0B09"/>
<path fill-rule="evenodd" clip-rule="evenodd" d="M58.2385 20.328C58.158 20.8574 57.7535 20.8574 57.3623 20.8574H57.1399L57.2959 19.8688C57.3052 19.8089 57.3567 19.7649 57.4175 19.7649H57.5195C57.7854 19.7649 58.0374 19.7649 58.1668 19.9168C58.2446 20.0073 58.2679 20.142 58.2385 20.328ZM58.0684 18.9462H56.5932C56.4922 18.9462 56.4063 19.0196 56.3906 19.1194L55.7941 22.902C55.7823 22.9766 55.8399 23.0441 55.9157 23.0441H56.6727C56.7428 23.0441 56.8033 22.9925 56.8145 22.923L56.9835 21.8507C56.9992 21.7509 57.0849 21.6776 57.1857 21.6776H57.6528C58.6243 21.6776 59.1853 21.2073 59.3319 20.2751C59.3976 19.8675 59.3344 19.5475 59.1436 19.3231C58.9336 19.0764 58.5621 18.9462 58.0684 18.9462Z" fill="#0A0B09"/>
<path fill-rule="evenodd" clip-rule="evenodd" d="M47.719 20.328C47.6383 20.8574 47.234 20.8574 46.8426 20.8574H46.62L46.7759 19.8688C46.7856 19.8089 46.8372 19.7649 46.8978 19.7649H46.9997C47.266 19.7649 47.5175 19.7649 47.6469 19.9168C47.7247 20.0073 47.7482 20.142 47.719 20.328ZM47.5486 18.9462H46.0734C45.9725 18.9462 45.8866 19.0196 45.8709 19.1194L45.2745 22.902C45.2628 22.9766 45.3202 23.0441 45.3957 23.0441H46.1001C46.2012 23.0441 46.2872 22.9709 46.3026 22.8709L46.4635 21.8507C46.4792 21.7509 46.5649 21.6776 46.666 21.6776H47.1328C48.1046 21.6776 48.6655 21.2073 48.8123 20.2751C48.8782 19.8675 48.8148 19.5475 48.624 19.3231C48.4142 19.0764 48.0421 18.9462 47.5486 18.9462Z" fill="#0A0B09"/>
<path fill-rule="evenodd" clip-rule="evenodd" d="M50.9735 21.6859C50.905 22.0895 50.5846 22.3604 50.1759 22.3604C49.9712 22.3604 49.8071 22.2945 49.7015 22.1696C49.5972 22.046 49.5577 21.87 49.5911 21.6736C49.6547 21.2737 49.9803 20.9936 50.3829 20.9936C50.5833 20.9936 50.7461 21.0603 50.8537 21.1863C50.9619 21.3131 51.0046 21.4906 50.9735 21.6859ZM51.9579 20.3107H51.2515C51.1912 20.3107 51.1394 20.355 51.1302 20.4147L51.0991 20.6123L51.0496 20.5405C50.8965 20.3186 50.5555 20.2443 50.2153 20.2443C49.4347 20.2443 48.7679 20.8358 48.6382 21.6652C48.5708 22.0791 48.6665 22.4744 48.9012 22.7504C49.117 23.0042 49.4246 23.1099 49.7909 23.1099C50.4201 23.1099 50.7688 22.7056 50.7688 22.7056L50.7373 22.9018C50.7256 22.9766 50.7835 23.0441 50.8587 23.0441H51.4952C51.5958 23.0441 51.6814 22.9709 51.6976 22.8712L52.0795 20.4531C52.0909 20.3783 52.0335 20.3107 51.9579 20.3107Z" fill="#0A0B09"/>
<path fill-rule="evenodd" clip-rule="evenodd" d="M61.4929 21.6859C61.4248 22.0895 61.104 22.3604 60.6957 22.3604C60.4909 22.3604 60.327 22.2945 60.2213 22.1696C60.1166 22.046 60.0774 21.87 60.1108 21.6736C60.1743 21.2737 60.4998 20.9936 60.9022 20.9936C61.1029 20.9936 61.2659 21.0603 61.3735 21.1863C61.4814 21.3131 61.5238 21.4906 61.4929 21.6859ZM62.4775 20.3107H61.7714C61.7106 20.3107 61.6591 20.355 61.6495 20.4147L61.6184 20.6123L61.5691 20.5405C61.4162 20.3186 61.0752 20.2443 60.7346 20.2443C59.9541 20.2443 59.2877 20.8358 59.1578 21.6652C59.0905 22.0791 59.1861 22.4744 59.4209 22.7504C59.6364 23.0042 59.9437 23.1099 60.3105 23.1099C60.9398 23.1099 61.2886 22.7056 61.2886 22.7056L61.257 22.9018C61.2453 22.9766 61.303 23.0441 61.3783 23.0441H62.0147C62.1153 23.0441 62.2012 22.9709 62.2172 22.8712L62.5988 20.4531C62.6106 20.3783 62.553 20.3107 62.4775 20.3107Z" fill="#0A0B09"/>
<path fill-rule="evenodd" clip-rule="evenodd" d="M55.7191 20.3107H55.0088C54.9413 20.3107 54.8777 20.3443 54.8395 20.401L53.8602 21.8434L53.4451 20.4572C53.4189 20.3704 53.3393 20.3107 53.2486 20.3107H52.5507C52.4663 20.3107 52.4069 20.3936 52.4341 20.4735L53.2159 22.7683L52.4805 23.8059C52.4229 23.8872 52.4812 24 52.5811 24H53.2903C53.3574 24 53.4204 23.967 53.4588 23.9118L55.8202 20.5038C55.8768 20.4225 55.8181 20.3107 55.7191 20.3107Z" fill="#0A0B09"/>
<path fill-rule="evenodd" clip-rule="evenodd" d="M63.3094 19.0501L62.7038 22.902C62.6917 22.9768 62.7498 23.0441 62.8254 23.0441H63.4343C63.5349 23.0441 63.6208 22.9711 63.6367 22.8712L64.2337 19.0885C64.2452 19.0135 64.1877 18.9462 64.1124 18.9462H63.4307C63.3704 18.9462 63.3188 18.9902 63.3094 19.0501Z" fill="#0A0B09"/>
<path fill-rule="evenodd" clip-rule="evenodd" d="M10.2468 15.8586H11.8579C13.1014 15.8586 13.7233 15.4487 13.7233 14.6573C13.7233 13.8799 13.059 13.456 11.7589 13.456H10.2468V15.8586ZM10.2468 10.0636V12.2971H11.6601C12.7198 12.2971 13.2712 11.9009 13.2712 11.1802C13.2712 10.4452 12.7058 10.0636 11.646 10.0636H10.2468ZM8 17.0604V15.8586H8.94681V10.0636H8V8.86212H11.7872C13.5255 8.86212 14.5852 9.66777 14.5852 11.0673C14.5852 11.9859 14.0482 12.5513 13.37 12.8199C14.3452 13.0884 15.0374 13.7811 15.0374 14.7278C15.0374 16.226 13.8787 17.0604 11.985 17.0604H8Z" fill="#0A0B09"/>
<path fill-rule="evenodd" clip-rule="evenodd" d="M21.9055 12.7916C21.7642 12.3109 21.411 12.0284 20.9445 12.0284C19.8565 12.0284 18.825 12.8339 18.825 14.3039V15.8586H20.9162V17.0604H16.2529V15.8586H17.5813V12.2404H16.5355V11.0389H18.8106V12.0564C19.1924 11.3498 19.9694 10.841 21.0011 10.841C22.1599 10.841 22.8806 11.5055 23.0926 12.4523L21.9055 12.7916Z" fill="#0A0B09"/>
<path fill-rule="evenodd" clip-rule="evenodd" d="M28.2652 14.629C27.8694 14.4877 27.276 14.3745 26.7248 14.3745C25.9334 14.3745 25.1703 14.629 25.1703 15.3501C25.1703 15.8869 25.6507 16.1417 26.3149 16.1417C27.2334 16.1417 28.2652 15.6468 28.2652 14.7989V14.629ZM28.2652 13.5549V13.2158C28.2652 12.3675 27.5867 12.0142 26.8519 12.0142C26.1596 12.0142 25.566 12.2971 25.0854 12.735L24.2659 11.8446C24.8312 11.3214 25.6367 10.841 26.8519 10.841C28.364 10.841 29.537 11.6467 29.537 13.173V15.8586H30.4132V17.0604H28.2652V16.4239C27.9402 16.9473 27.0639 17.258 26.2017 17.258C24.9584 17.258 23.8844 16.6219 23.8844 15.3639C23.8844 13.8799 25.3399 13.3145 26.6682 13.3145C27.3183 13.3145 27.8553 13.4417 28.2652 13.5549Z" fill="#0A0B09"/>
<path fill-rule="evenodd" clip-rule="evenodd" d="M34.2434 9.83746H35.6428V8H34.2434V9.83746ZM37.961 15.8586V17.0604H31.8828V15.8586H34.3989V12.2405H32.4765V11.039H35.6428V15.8586H37.961Z" fill="#0A0B09"/>
<path fill-rule="evenodd" clip-rule="evenodd" d="M39.4576 15.8586H40.3762V12.2404H39.514V11.0389H41.6057V11.8163C41.9728 11.2226 42.736 10.841 43.6686 10.841C45.0114 10.841 45.972 11.689 45.972 13.06V15.8586H46.8905V17.0604H43.7676V15.8586H44.7287V13.3992C44.7287 12.3534 44.0926 12.0564 43.5132 12.0564C42.5664 12.0564 41.6197 12.7633 41.6197 13.8516V15.8586H42.5806V17.0604H39.4576V15.8586Z" fill="#0A0B09"/>
<path fill-rule="evenodd" clip-rule="evenodd" d="M48.8902 12.2404H47.3219V11.039H48.8902V8.86212H50.1339V11.039H53.0589V12.2404H50.1339V14.7703C50.1339 15.7034 50.7839 16.0851 51.5327 16.0851C52.2395 16.0851 52.8331 15.6892 53.2712 15.251L54.1049 16.1131C53.5538 16.7068 52.7059 17.258 51.5327 17.258C50.021 17.258 48.8902 16.4239 48.8902 14.8127V12.2404Z" fill="#0A0B09"/>
<path fill-rule="evenodd" clip-rule="evenodd" d="M60.8885 12.7916C60.747 12.3109 60.394 12.0284 59.9275 12.0284C58.8393 12.0284 57.8076 12.8339 57.8076 14.3039V15.8586H59.8992V17.0604H55.236V15.8586H56.5641V12.2404H55.5185V11.0389H57.7936V12.0564C58.1752 11.3498 58.9525 10.841 59.9842 10.841C61.1429 10.841 61.8634 11.5055 62.0755 12.4523L60.8885 12.7916Z" fill="#0A0B09"/>
<path fill-rule="evenodd" clip-rule="evenodd" d="M64.2376 13.4277H67.9399C67.756 12.5655 66.9932 11.9858 66.1452 11.9858C65.1842 11.9858 64.4494 12.5796 64.2376 13.4277ZM69.2542 16.1417C68.6323 16.7914 67.5301 17.258 66.3008 17.258C64.2798 17.258 62.8668 15.901 62.8668 14.0495C62.8668 12.1979 64.2376 10.841 66.1452 10.841C68.039 10.841 69.3671 12.297 69.3671 14.2756V14.4877H64.181C64.3928 15.4913 65.2267 16.0989 66.3147 16.0989C67.219 16.0989 67.9965 15.7317 68.4203 15.2652L69.2542 16.1417Z" fill="#0A0B09"/>
<path fill-rule="evenodd" clip-rule="evenodd" d="M71.9675 13.4277H75.6701C75.4861 12.5655 74.7233 11.9858 73.8753 11.9858C72.9144 11.9858 72.1793 12.5796 71.9675 13.4277ZM76.9843 16.1417C76.3625 16.7914 75.2603 17.258 74.0307 17.258C72.0098 17.258 70.5968 15.901 70.5968 14.0495C70.5968 12.1979 71.9675 10.841 73.8753 10.841C75.769 10.841 77.0973 12.297 77.0973 14.2756V14.4877H71.911C72.1232 15.4913 72.9566 16.0989 74.0449 16.0989C74.9493 16.0989 75.7264 15.7317 76.1505 15.2652L76.9843 16.1417Z" fill="#0A0B09"/>
<rect x="0.5" y="0.5" width="84.0977" height="31" rx="5.5" stroke="#D9D9D9"/>
</svg>
