<svg width="70" height="32" viewBox="0 0 70 32" fill="none" xmlns="http://www.w3.org/2000/svg">
<rect x="0.5" y="0.5" width="68.6859" height="31" rx="5.5" fill="white"/>
<path d="M17.0343 13.152H14.8873C14.848 12.8741 14.768 12.6275 14.6471 12.4118C14.5262 12.1928 14.3709 12.0066 14.1813 11.853C13.9918 11.6993 13.7728 11.5818 13.5245 11.5C13.2794 11.4183 13.013 11.3775 12.7254 11.3775C12.2058 11.3775 11.7533 11.5065 11.3676 11.7648C10.982 12.0196 10.683 12.3922 10.4706 12.8824C10.2581 13.3693 10.1519 13.9608 10.1519 14.6569C10.1519 15.3726 10.2581 15.9738 10.4706 16.4608C10.6863 16.9477 10.9869 17.3153 11.3725 17.5638C11.7581 17.8122 12.2042 17.9363 12.7107 17.9363C12.9951 17.9363 13.2582 17.8987 13.5 17.8236C13.7451 17.7484 13.9624 17.6389 14.152 17.4951C14.3415 17.3481 14.4983 17.1699 14.6226 16.9608C14.75 16.7517 14.8383 16.5131 14.8873 16.2451L17.0343 16.255C16.9788 16.7157 16.8398 17.1602 16.6176 17.5883C16.3987 18.0131 16.1029 18.3938 15.7303 18.7305C15.3611 19.0637 14.9199 19.3284 14.4069 19.5246C13.8971 19.7174 13.3203 19.8137 12.6764 19.8137C11.781 19.8137 10.9804 19.6112 10.2744 19.2059C9.57181 18.8007 9.01632 18.2141 8.60783 17.4461C8.20257 16.6782 8 15.7484 8 14.6569C8 13.5622 8.20579 12.6307 8.61761 11.8628C9.02943 11.0948 9.58826 10.5098 10.2941 10.1078C10.9999 9.70257 11.7941 9.5 12.6764 9.5C13.2582 9.5 13.7973 9.58167 14.2941 9.74514C14.7941 9.90848 15.237 10.1471 15.6225 10.4608C16.0081 10.7712 16.3218 11.152 16.5637 11.6029C16.8088 12.054 16.9657 12.5702 17.0343 13.152ZM21.643 19.8235C20.8816 19.8235 20.2231 19.6618 19.6676 19.3383C19.1153 19.0115 18.6888 18.5572 18.3882 17.9755C18.0875 17.3906 17.9371 16.7125 17.9371 15.9412C17.9371 15.1634 18.0875 14.4837 18.3882 13.902C18.6888 13.317 19.1153 12.8628 19.6676 12.5393C20.2231 12.2125 20.8816 12.049 21.643 12.049C22.4044 12.049 23.0614 12.2125 23.6137 12.5393C24.1692 12.8628 24.5973 13.317 24.898 13.902C25.1986 14.4837 25.3489 15.1634 25.3489 15.9412C25.3489 16.7125 25.1986 17.3906 24.898 17.9755C24.5973 18.5572 24.1692 19.0115 23.6137 19.3383C23.0614 19.6618 22.4044 19.8235 21.643 19.8235ZM21.6528 18.2059C21.9993 18.2059 22.2885 18.1079 22.5205 17.9118C22.7525 17.7124 22.9274 17.4412 23.0451 17.098C23.166 16.7549 23.2263 16.3644 23.2263 15.9266C23.2263 15.4886 23.166 15.0981 23.0451 14.7549C22.9274 14.4118 22.7525 14.1405 22.5205 13.9412C22.2885 13.7418 21.9993 13.6422 21.6528 13.6422C21.3032 13.6422 21.0091 13.7418 20.7705 13.9412C20.5352 14.1405 20.3571 14.4118 20.2362 14.7549C20.1185 15.0981 20.0597 15.4886 20.0597 15.9266C20.0597 16.3644 20.1185 16.7549 20.2362 17.098C20.3571 17.4412 20.5352 17.7124 20.7705 17.9118C21.0091 18.1079 21.3032 18.2059 21.6528 18.2059ZM26.4307 19.6765V12.147H28.4209V13.4755H28.5091C28.666 13.0344 28.9275 12.6863 29.2934 12.4314C29.6595 12.1765 30.0974 12.049 30.6072 12.049C31.1235 12.049 31.563 12.1781 31.9258 12.4363C32.2885 12.6912 32.5305 13.0376 32.6514 13.4755H32.7298C32.8834 13.0442 33.1612 12.6994 33.5631 12.4412C33.9684 12.1798 34.4471 12.049 34.9994 12.049C35.702 12.049 36.2722 12.2729 36.7102 12.7206C37.1513 13.1651 37.372 13.7958 37.372 14.6128V19.6765H35.2886V15.0246C35.2886 14.6062 35.1775 14.2925 34.9552 14.0834C34.733 13.8742 34.4553 13.7697 34.1219 13.7697C33.7428 13.7697 33.447 13.8906 33.2347 14.1324C33.0222 14.371 32.916 14.6863 32.916 15.0784V19.6765H30.8915V14.9804C30.8915 14.6111 30.7853 14.317 30.5729 14.0981C30.3637 13.8791 30.0876 13.7697 29.7445 13.7697C29.5124 13.7697 29.3033 13.8285 29.117 13.9461C28.9339 14.0605 28.7885 14.2222 28.6808 14.4314C28.5729 14.6373 28.5189 14.8791 28.5189 15.1569V19.6765H26.4307ZM38.7453 22.5V12.147H40.8042V13.4118H40.8974C40.9888 13.2091 41.1212 13.0033 41.2944 12.7941C41.4708 12.5817 41.6996 12.4053 41.9806 12.2647C42.265 12.1209 42.6179 12.049 43.0395 12.049C43.5885 12.049 44.0951 12.1928 44.5591 12.4804C45.0232 12.7648 45.394 13.1945 45.6718 13.7697C45.9496 14.3415 46.0885 15.0589 46.0885 15.9216C46.0885 16.7615 45.9529 17.4706 45.6816 18.049C45.4137 18.6242 45.0477 19.0605 44.5836 19.3579C44.1228 19.652 43.6065 19.799 43.0346 19.799C42.6293 19.799 42.2846 19.7321 42.0003 19.5981C41.7192 19.464 41.4889 19.2958 41.3091 19.0932C41.1294 18.8873 40.9921 18.6798 40.8974 18.4706H40.8337V22.5H38.7453ZM40.7895 15.9118C40.7895 16.3595 40.8516 16.7501 40.9757 17.0833C41.1 17.4167 41.2796 17.6765 41.515 17.8628C41.7502 18.0458 42.0362 18.1373 42.3728 18.1373C42.7127 18.1373 43.0003 18.0442 43.2355 17.8578C43.4709 17.6684 43.649 17.4069 43.7699 17.0735C43.8941 16.737 43.9561 16.3498 43.9561 15.9118C43.9561 15.4771 43.8957 15.0947 43.7748 14.7647C43.6539 14.4347 43.4757 14.1764 43.2405 13.9902C43.0051 13.804 42.7159 13.7108 42.3728 13.7108C42.033 13.7108 41.7454 13.8006 41.51 13.9804C41.278 14.1601 41.1 14.415 40.9757 14.7452C40.8516 15.0752 40.7895 15.4641 40.7895 15.9118ZM49.3516 19.8187C48.8712 19.8187 48.4432 19.7353 48.0674 19.5686C47.6916 19.3987 47.3941 19.1487 47.1752 18.8187C46.9595 18.4853 46.8516 18.0703 46.8516 17.5736C46.8516 17.1552 46.9284 16.8039 47.082 16.5197C47.2357 16.2353 47.4448 16.0066 47.7095 15.8334C47.9742 15.6601 48.2749 15.5295 48.6115 15.4412C48.9513 15.353 49.3076 15.2909 49.6802 15.2549C50.118 15.2092 50.471 15.1666 50.7389 15.1275C51.0069 15.085 51.2014 15.0229 51.3223 14.9412C51.4432 14.8595 51.5037 14.7386 51.5037 14.5785V14.549C51.5037 14.2386 51.4057 13.9984 51.2095 13.8285C51.0167 13.6586 50.7421 13.5735 50.386 13.5735C50.0102 13.5735 49.7111 13.6568 49.489 13.8235C49.2667 13.987 49.1196 14.1929 49.0477 14.4412L47.1164 14.2843C47.2144 13.8269 47.4072 13.4314 47.6948 13.098C47.9824 12.7614 48.3532 12.5033 48.8075 12.3236C49.2651 12.1406 49.7945 12.049 50.3958 12.049C50.814 12.049 51.2145 12.098 51.5967 12.1961C51.9824 12.2942 52.3238 12.4461 52.6213 12.652C52.9219 12.8578 53.1589 13.1226 53.3321 13.4461C53.5052 13.7663 53.5919 14.1503 53.5919 14.598V19.6765H51.6114V18.6324H51.5527C51.4318 18.8677 51.27 19.0752 51.0673 19.2549C50.8648 19.4314 50.6212 19.5703 50.337 19.6716C50.0526 19.7697 49.7242 19.8187 49.3516 19.8187ZM49.9497 18.3774C50.2569 18.3774 50.5282 18.3171 50.7634 18.1962C50.9988 18.0719 51.1834 17.9052 51.3173 17.6961C51.4513 17.487 51.5184 17.25 51.5184 16.9853V16.1863C51.4529 16.2287 51.3631 16.268 51.2487 16.304C51.1376 16.3366 51.0118 16.3677 50.8713 16.397C50.7307 16.4233 50.5902 16.4478 50.4497 16.4707C50.3092 16.4902 50.1817 16.5082 50.0674 16.5245C49.8222 16.5605 49.6083 16.6177 49.4252 16.6961C49.2422 16.7746 49.1 16.8808 48.9987 17.0148C48.8975 17.1454 48.8467 17.3089 48.8467 17.5049C48.8467 17.7893 48.9497 18.0066 49.1556 18.1569C49.3647 18.3039 49.6294 18.3774 49.9497 18.3774ZM55.9555 22.5C55.6909 22.5 55.4424 22.4788 55.2104 22.4363C54.9817 22.3972 54.7921 22.3464 54.6418 22.2843L55.1124 20.7255C55.3575 20.8007 55.578 20.8416 55.7741 20.8481C55.9735 20.8546 56.145 20.8089 56.2888 20.7108C56.4359 20.6128 56.5552 20.4461 56.6467 20.2108L56.7693 19.8922L54.0682 12.147H56.2643L57.8231 17.6765H57.9016L59.4751 12.147H61.6859L58.7595 20.4903C58.6189 20.8955 58.4277 21.2484 58.1859 21.549C57.9473 21.8529 57.645 22.0867 57.279 22.25C56.9131 22.4167 56.4718 22.5 55.9555 22.5Z" fill="black"/>
<rect x="0.5" y="0.5" width="68.6859" height="31" rx="5.5" stroke="#D9D9D9"/>
</svg>
