<svg width="48" height="32" viewBox="0 0 48 32" fill="none" xmlns="http://www.w3.org/2000/svg">
<rect x="0.5" y="0.5" width="47" height="31" rx="5.5" fill="white"/>
<path d="M38.4 6H9.60001C8.71652 6 8 6.63975 8 7.42858V24.5714C8 25.3603 8.71652 26 9.60001 26H38.4C39.2835 26 40 25.3603 40 24.5714V7.42858C40 6.63975 39.2835 6 38.4 6ZM16.8 19.2089V19.9286C16.8 20.1259 16.621 20.2858 16.4 20.2858H15.6C15.379 20.2858 15.2 20.1259 15.2 19.9286V19.2013C14.6355 19.1754 14.0865 18.9996 13.6315 18.6947C13.4365 18.5638 13.4265 18.3032 13.603 18.1527L14.1905 17.6523C14.329 17.5344 14.535 17.529 14.697 17.6197C14.8905 17.7277 15.11 17.7858 15.338 17.7858H16.7435C17.0686 17.7858 17.3335 17.5214 17.3335 17.1969C17.3335 16.9312 17.153 16.6973 16.895 16.6286L14.645 16.0259C13.7155 15.7767 13.066 14.9803 13.066 14.0888C13.066 12.9942 14.0185 12.1049 15.1995 12.0768V11.3572C15.1995 11.1598 15.3785 11 15.5995 11H16.3995C16.6206 11 16.7995 11.1598 16.7995 11.3572V12.0843C17.364 12.1103 17.913 12.2857 18.368 12.5911C18.563 12.7219 18.573 12.9826 18.3965 13.133L17.809 13.6335C17.6706 13.7513 17.4645 13.7567 17.3025 13.6661C17.109 13.5576 16.8895 13.5 16.6615 13.5H15.256C14.931 13.5 14.666 13.7642 14.666 14.0888C14.666 14.3545 14.8465 14.5884 15.1045 14.6572L17.3545 15.2598C18.284 15.5089 18.9335 16.3053 18.9335 17.1969C18.9335 18.292 17.981 19.1808 16.8 19.2089ZM28.8 18.5C28.8 18.6973 28.621 18.8572 28.4 18.8572H22.8C22.579 18.8572 22.4 18.6973 22.4 18.5V17.7858C22.4 17.5884 22.579 17.4286 22.8 17.4286H28.4C28.621 17.4286 28.8 17.5884 28.8 17.7858V18.5ZM36.8 18.5C36.8 18.6973 36.6211 18.8572 36.4 18.8572H32.4C32.179 18.8572 32 18.6973 32 18.5V17.7858C32 17.5884 32.179 17.4286 32.4 17.4286H36.4C36.6211 17.4286 36.8 17.5884 36.8 17.7858V18.5ZM36.8 14.2142C36.8 14.4116 36.6211 14.5714 36.4 14.5714H22.8C22.579 14.5714 22.4 14.4116 22.4 14.2142V13.5C22.4 13.3027 22.579 13.1428 22.8 13.1428H36.4C36.6211 13.1428 36.8 13.3027 36.8 13.5V14.2142Z" fill="#BBBBBB"/>
<rect x="0.5" y="0.5" width="47" height="31" rx="5.5" stroke="#D9D9D9"/>
</svg>
