<svg width="44" height="32" viewBox="0 0 44 32" fill="none" xmlns="http://www.w3.org/2000/svg">
<rect x="0.5" y="0.5" width="43" height="31" rx="5.5" fill="white"/>
<path d="M24.4033 27.1925C30.4662 27.2218 36 22.2026 36 16.0968C36 9.42036 30.4662 4.80487 24.4033 4.80736H19.1855C13.0503 4.80487 8 9.4216 8 16.0968C8 22.2038 13.0503 27.2218 19.1855 27.1925H24.4033Z" fill="#0079BE"/>
<path d="M19.2103 5.7326C13.6035 5.73447 9.06101 10.32 9.05914 15.9797C9.06101 21.6388 13.6035 26.2243 19.2103 26.2262C24.8176 26.2243 29.3621 21.6388 29.3627 15.9797C29.3621 10.32 24.8183 5.73447 19.2103 5.7326ZM12.7762 15.9797C12.775 14.6711 13.1686 13.3926 13.9056 12.3114C14.6425 11.23 15.6885 10.3962 16.9069 9.91876V22.04C15.6885 21.5629 14.6423 20.7293 13.9053 19.648C13.1683 18.5667 12.7748 17.2882 12.7762 15.9797ZM21.5131 22.0424V9.91814C22.7323 10.3948 23.7793 11.2286 24.5168 12.3103C25.2543 13.392 25.648 14.6711 25.6463 15.9803C25.6477 17.2895 25.2539 18.5685 24.5165 19.6501C23.779 20.7317 22.7322 21.5656 21.5131 22.0424Z" fill="white"/>
<path d="M24.4033 27.1925C30.4662 27.2218 36 22.2026 36 16.0968C36 9.42036 30.4662 4.80487 24.4033 4.80736H19.1855C13.0503 4.80487 8 9.4216 8 16.0968C8 22.2038 13.0503 27.2218 19.1855 27.1925H24.4033Z" fill="#0079BE"/>
<path d="M19.2103 5.7326C13.6035 5.73447 9.06101 10.32 9.05914 15.9797C9.06101 21.6388 13.6035 26.2243 19.2103 26.2262C24.8176 26.2243 29.3621 21.6388 29.3627 15.9797C29.3621 10.32 24.8183 5.73447 19.2103 5.7326ZM12.7762 15.9797C12.775 14.6711 13.1686 13.3926 13.9056 12.3114C14.6425 11.23 15.6885 10.3962 16.9069 9.91876V22.04C15.6885 21.5629 14.6423 20.7293 13.9053 19.648C13.1683 18.5667 12.7748 17.2882 12.7762 15.9797ZM21.5131 22.0424V9.91814C22.7323 10.3948 23.7793 11.2286 24.5168 12.3103C25.2543 13.392 25.648 14.6711 25.6463 15.9803C25.6477 17.2895 25.2539 18.5685 24.5165 19.6501C23.779 20.7317 22.7322 21.5656 21.5131 22.0424Z" fill="white"/>
<rect x="0.5" y="0.5" width="43" height="31" rx="5.5" stroke="#D9D9D9"/>
</svg>
