<svg width="49" height="32" viewBox="0 0 49 32" fill="none" xmlns="http://www.w3.org/2000/svg">
<rect x="0.5" y="0.5" width="47.5946" height="31" rx="5.5" fill="white"/>
<path fill-rule="evenodd" clip-rule="evenodd" d="M24.2973 23.6112C22.5712 25.1007 20.332 26 17.8852 26C12.4258 26 8 21.5229 8 16C8 10.4771 12.4258 6 17.8852 6C20.332 6 22.5712 6.89925 24.2973 8.3889C26.0235 6.89925 28.2626 6 30.7094 6C36.1689 6 40.5946 10.4771 40.5946 16C40.5946 21.5229 36.1689 26 30.7094 26C28.2626 26 26.0235 25.1007 24.2973 23.6112Z" fill="#ED0006"/>
<path fill-rule="evenodd" clip-rule="evenodd" d="M24.2972 23.6112C26.4227 21.777 27.7705 19.0477 27.7705 16C27.7705 12.9523 26.4227 10.223 24.2972 8.3889C26.0234 6.89925 28.2626 6 30.7093 6C36.1688 6 40.5946 10.4771 40.5946 16C40.5946 21.5229 36.1688 26 30.7093 26C28.2626 26 26.0234 25.1007 24.2972 23.6112Z" fill="#F9A000"/>
<path fill-rule="evenodd" clip-rule="evenodd" d="M24.2974 8.38889C26.4228 10.2231 27.7706 12.9524 27.7706 16C27.7706 19.0477 26.4228 21.777 24.2974 23.6111C22.172 21.777 20.8242 19.0477 20.8242 16C20.8242 12.9524 22.172 10.2231 24.2974 8.38889Z" fill="#FF5E00"/>
<rect x="0.5" y="0.5" width="47.5946" height="31" rx="5.5" stroke="#D9D9D9"/>
</svg>
