<svg width="66" height="32" viewBox="0 0 66 32" fill="none" xmlns="http://www.w3.org/2000/svg">
<rect x="0.5" y="0.5" width="65" height="31" rx="5.5" fill="white"/>
<path d="M8.231 23.0879C8.0841 23.0879 8 23.0039 8 22.8568V13.1107C8 12.9846 8.042 12.8797 8.1679 12.8166C9.3652 12.3125 10.7516 11.9975 12.2008 11.9975C15.0156 11.9975 16.9269 13.3208 16.9269 16.5345V22.857C16.9269 23.0039 16.8431 23.0879 16.675 23.0879H15.4357C15.2888 23.0879 15.2047 23.0039 15.2047 22.857V16.5763C15.2047 14.3918 14.0915 13.5516 12.201 13.5516C11.3188 13.5516 10.3737 13.7195 9.7224 13.9297V22.8568C9.7224 23.0037 9.6384 23.0878 9.4704 23.0878H8.231V23.0879Z" fill="#005775"/>
<path d="M28.185 18.2357C28.185 18.4036 28.1009 18.4877 27.954 18.4877H21.0854V19.3699C21.0854 20.9452 22.2616 21.7854 23.8161 21.7854C25.2653 21.7854 26.2526 21.2182 27.0298 20.6092C27.1558 20.5251 27.2817 20.5462 27.3658 20.6722L27.9748 21.4704C28.0801 21.5965 28.0589 21.7014 27.9328 21.8065C26.8827 22.6887 25.5383 23.3187 23.774 23.3187C21.5054 23.3187 19.3419 22.0164 19.3419 19.3699V16.1772C19.3419 13.2996 21.4844 11.9973 23.7949 11.9973C26.0845 11.9973 28.185 13.2996 28.185 16.1772V18.2357ZM23.7949 13.5518C22.2196 13.5518 21.0854 14.371 21.0854 16.1774V17.0596H26.5046V16.1774C26.5048 14.3918 25.3284 13.5518 23.7949 13.5518Z" fill="#005775"/>
<path d="M34.2759 21.7226C34.5069 21.7226 34.906 21.7016 35.284 21.6806C35.4521 21.6806 35.5362 21.7646 35.5362 21.9115V23.0247C35.5362 23.1508 35.473 23.2557 35.3261 23.2767C34.948 23.2977 34.465 23.3187 34.1918 23.3187C32.0912 23.3187 30.5369 22.1845 30.5369 19.6009V9.81274C30.5369 9.64484 30.6209 9.56084 30.7889 9.56084H31.8812C32.0073 9.56084 32.0912 9.64484 32.1122 9.79174L32.2591 12.3333H34.9898C35.1367 12.3333 35.2208 12.4174 35.2208 12.5643V13.6145C35.2208 13.7826 35.1367 13.8665 34.9898 13.8665H32.2591V19.5168C32.2593 20.9034 32.9734 21.7226 34.2759 21.7226Z" fill="#005775"/>
<path d="M40.892 23.3189C39.4427 23.3189 37.9931 22.8988 36.7328 21.9746C36.6068 21.8905 36.6068 21.7646 36.67 21.6385L37.237 20.6724C37.321 20.5253 37.4259 20.5045 37.573 20.6094C38.5813 21.3655 39.7366 21.7856 40.934 21.7856C42.3412 21.7856 43.4125 21.1974 43.4125 20.1052C43.4125 18.929 42.1102 18.656 40.934 18.4248C39.4215 18.1098 36.8379 17.5216 36.8379 15.0851C36.8379 12.9425 38.8753 11.9973 40.976 11.9973C42.2992 11.9973 43.4756 12.3333 44.6306 12.9844C44.7779 13.0474 44.7987 13.1733 44.7147 13.2994L44.1477 14.2445C44.0848 14.3706 43.9587 14.4126 43.8326 14.3286C42.9716 13.8664 41.9421 13.5514 40.892 13.5514C39.4215 13.5514 38.5393 14.1394 38.5393 15.0847C38.5393 16.2399 39.7786 16.555 41.27 16.8492C42.9504 17.1852 45.156 17.6683 45.156 20.021C45.156 22.1637 43.3495 23.3189 40.892 23.3189Z" fill="#005775"/>
<path d="M50.6691 13.5661C52.0181 13.5661 53.1116 12.4725 53.1116 11.1235C53.1116 9.77464 52.0181 8.68105 50.6691 8.68105C49.3201 8.68105 48.2266 9.77464 48.2266 11.1235C48.2266 12.4725 49.3201 13.5661 50.6691 13.5661Z" fill="#03BFEF"/>
<path d="M55.8501 12.6867C56.7134 12.6867 57.4133 11.9868 57.4133 11.1235C57.4133 10.2602 56.7134 9.56044 55.8501 9.56044C54.9868 9.56044 54.287 10.2602 54.287 11.1235C54.287 11.9868 54.9868 12.6867 55.8501 12.6867Z" fill="#03BFEF"/>
<path d="M55.8505 18.4426C57.0375 18.4426 58 17.4803 58 16.2932C58 15.1061 57.0375 14.1438 55.8505 14.1438C54.6634 14.1438 53.701 15.1061 53.701 16.2932C53.701 17.4803 54.6634 18.4426 55.8505 18.4426Z" fill="#03BFEF"/>
<path d="M50.6693 23.319C51.6944 23.319 52.5255 22.4879 52.5255 21.4627C52.5255 20.4375 51.6944 19.6065 50.6693 19.6065C49.6441 19.6065 48.813 20.4375 48.813 21.4627C48.813 22.4879 49.6441 23.319 50.6693 23.319Z" fill="#03BFEF"/>
<rect x="0.5" y="0.5" width="65" height="31" rx="5.5" stroke="#D9D9D9"/>
</svg>
