<svg width="62" height="32" viewBox="0 0 62 32" fill="none" xmlns="http://www.w3.org/2000/svg">
<rect x="0.5" y="0.5" width="60.576" height="31" rx="5.5" fill="white"/>
<path d="M17.6118 16.2179C17.6118 17.3372 17.3997 18.2893 16.9754 19.0745C16.5544 19.8596 15.9798 20.4592 15.2515 20.8735C14.5265 21.2844 13.7113 21.4899 12.8059 21.4899C11.8939 21.4899 11.0754 21.2828 10.3503 20.8685C9.62534 20.4542 9.05239 19.8545 8.63144 19.0695C8.21047 18.2843 8 17.3339 8 16.2179C8 15.0988 8.21047 14.1466 8.63144 13.3615C9.05239 12.5763 9.62534 11.9783 10.3503 11.5674C11.0754 11.1531 11.8939 10.9459 12.8059 10.9459C13.7113 10.9459 14.5265 11.1531 15.2515 11.5674C15.9798 11.9783 16.5544 12.5763 16.9754 13.3615C17.3997 14.1466 17.6118 15.0988 17.6118 16.2179ZM15.4118 16.2179C15.4118 15.4929 15.3032 14.8816 15.0861 14.3838C14.8723 13.886 14.5699 13.5084 14.179 13.2512C13.7881 12.994 13.3305 12.8654 12.8059 12.8654C12.2814 12.8654 11.8236 12.994 11.4328 13.2512C11.0419 13.5084 10.7379 13.886 10.5207 14.3838C10.3069 14.8816 10.2 15.4929 10.2 16.2179C10.2 16.943 10.3069 17.5544 10.5207 18.0522C10.7379 18.55 11.0419 18.9275 11.4328 19.1847C11.8236 19.4419 12.2814 19.5706 12.8059 19.5706C13.3305 19.5706 13.7881 19.4419 14.179 19.1847C14.5699 18.9275 14.8723 18.55 15.0861 18.0522C15.3032 17.5544 15.4118 16.943 15.4118 16.2179ZM23.3185 13.6521V15.2558H18.5678V13.6521H23.3185ZM19.6552 21.3496V13.0958C19.6552 12.538 19.7638 12.0752 19.9809 11.7077C20.2014 11.3402 20.5021 11.0646 20.8831 10.8808C21.2639 10.697 21.6965 10.6052 22.1809 10.6052C22.5084 10.6052 22.8074 10.6303 23.078 10.6804C23.352 10.7305 23.5558 10.7756 23.6894 10.8157L23.3086 12.4193C23.225 12.3926 23.1214 12.3676 22.9978 12.3442C22.8775 12.3208 22.754 12.3091 22.627 12.3091C22.313 12.3091 22.0941 12.3825 21.9705 12.5296C21.8469 12.6733 21.7851 12.8753 21.7851 13.136V21.3496H19.6552ZM28.7622 13.6521V15.2558H24.0114V13.6521H28.7622ZM25.0989 21.3496V13.0958C25.0989 12.538 25.2074 12.0752 25.4246 11.7077C25.6451 11.3402 25.9458 11.0646 26.3266 10.8808C26.7075 10.697 27.1402 10.6052 27.6246 10.6052C27.952 10.6052 28.251 10.6303 28.5217 10.6804C28.7956 10.7305 28.9993 10.7756 29.133 10.8157L28.7521 12.4193C28.6686 12.3926 28.565 12.3676 28.4415 12.3442C28.3212 12.3208 28.1975 12.3091 28.0706 12.3091C27.7565 12.3091 27.5377 12.3825 27.4141 12.5296C27.2905 12.6733 27.2287 12.8753 27.2287 13.136V21.3496H25.0989ZM32.2012 11.0863V21.3496H30.0664V11.0863H32.2012ZM33.9114 21.3496V13.6521H36.0462V21.3496H33.9114ZM34.9838 12.6599C34.6664 12.6599 34.3941 12.5546 34.1669 12.3442C33.9431 12.1303 33.8312 11.8748 33.8312 11.5775C33.8312 11.2834 33.9431 11.0311 34.1669 10.8207C34.3941 10.6069 34.6664 10.5 34.9838 10.5C35.3012 10.5 35.5718 10.6069 35.7956 10.8207C36.0228 11.0311 36.1364 11.2834 36.1364 11.5775C36.1364 11.8748 36.0228 12.1303 35.7956 12.3442C35.5718 12.5546 35.3012 12.6599 34.9838 12.6599ZM39.8912 16.8995V21.3496H37.7563V13.6521H39.791V15.0102H39.8812C40.0516 14.5625 40.3372 14.2084 40.7381 13.9478C41.1391 13.6839 41.6251 13.5519 42.1964 13.5519C42.731 13.5519 43.1971 13.6689 43.5947 13.9027C43.9922 14.1366 44.3012 14.4707 44.5217 14.905C44.7422 15.3359 44.8525 15.8505 44.8525 16.4485V21.3496H42.7176V16.8293C42.7209 16.3583 42.6007 15.9907 42.3568 15.7268C42.1129 15.4596 41.7771 15.326 41.3495 15.326C41.0622 15.326 40.8083 15.3877 40.5878 15.5114C40.3706 15.6349 40.2003 15.8154 40.0766 16.0526C39.9564 16.2865 39.8946 16.5687 39.8912 16.8995ZM50.043 21.5C49.2512 21.5 48.5697 21.3396 47.9983 21.0189C47.4304 20.6948 46.9928 20.2371 46.6854 19.6458C46.378 19.051 46.2244 18.3478 46.2244 17.5359C46.2244 16.7441 46.378 16.0492 46.6854 15.4512C46.9928 14.8532 47.4254 14.3872 47.9833 14.0531C48.5446 13.719 49.2028 13.5519 49.9578 13.5519C50.4656 13.5519 50.9384 13.6338 51.3761 13.7975C51.8171 13.9578 52.2013 14.2 52.5287 14.5241C52.8594 14.8482 53.1167 15.2558 53.3004 15.7469C53.4841 16.2347 53.576 16.806 53.576 17.4608V18.0471H47.0763V16.7241H51.5665C51.5665 16.4167 51.4996 16.1445 51.366 15.9072C51.2324 15.67 51.047 15.4846 50.8098 15.351C50.5759 15.214 50.3036 15.1455 49.9929 15.1455C49.6688 15.1455 49.3815 15.2207 49.1309 15.371C48.8837 15.5181 48.6899 15.7168 48.5496 15.9674C48.4093 16.2146 48.3375 16.4902 48.3341 16.7942V18.0522C48.3341 18.433 48.4043 18.7621 48.5446 19.0394C48.6882 19.3167 48.8904 19.5305 49.151 19.6809C49.4116 19.8312 49.7206 19.9063 50.0781 19.9063C50.3153 19.9063 50.5325 19.873 50.7295 19.8061C50.9267 19.7393 51.0954 19.6391 51.2357 19.5054C51.3761 19.3718 51.483 19.2081 51.5564 19.0143L53.531 19.1446C53.4307 19.619 53.2253 20.0333 52.9145 20.3874C52.6072 20.7382 52.2096 21.0122 51.7218 21.2093C51.2374 21.4031 50.6778 21.5 50.043 21.5Z" fill="#2D2341"/>
<rect x="0.5" y="0.5" width="60.576" height="31" rx="5.5" stroke="#D9D9D9"/>
</svg>
