<svg width="74" height="32" viewBox="0 0 74 32" fill="none" xmlns="http://www.w3.org/2000/svg">
<rect x="0.5" y="0.5" width="72.7095" height="31" rx="5.5" fill="white"/>
<path fill-rule="evenodd" clip-rule="evenodd" d="M12.6546 16.9127C14.6456 16.9127 16.2718 15.4999 16.2718 13.5317C16.2718 12.3413 15.4026 11.5634 14.0287 11.5634C11.9817 11.5634 10.4395 13.2142 10.4395 15.0238C10.4395 16.1667 11.4209 16.9127 12.6546 16.9127ZM12.7388 18.0715C9.7666 18.0715 8 16.8809 8 14.8808C8 12.3888 10.6077 10.5 14.0287 10.5C16.8888 10.5 18.7111 11.738 18.7111 13.611C18.7111 16.2778 16.0475 18.0715 12.7388 18.0715Z" fill="#286AA6"/>
<path fill-rule="evenodd" clip-rule="evenodd" d="M25.0256 11.8174C23.7358 11.8174 22.5302 12.611 22.5302 13.4682C22.5302 14.3094 23.4836 14.9126 24.8012 14.9126C26.3716 14.9126 27.2689 14.0397 27.2689 13.246C27.2689 12.4046 26.3154 11.8174 25.0256 11.8174ZM24.1283 18.5794C22.5021 18.7539 20.8757 19.1508 20.8757 19.6271C20.8757 20.1509 22.1655 20.4842 24.2686 20.4842C25.8948 20.4842 26.9324 20.1191 26.9324 19.5952C26.9324 19.1508 25.6145 18.7699 24.1283 18.5794ZM35.2107 11.7697H28.6988C29.3438 12.2936 29.5401 12.6904 29.5401 13.1826C29.5401 14.373 28.5305 15.3095 26.596 15.7698C25.1099 16.1189 22.3059 16.0396 22.3059 16.7223C22.3059 17.6111 29.2034 17.1032 29.2034 19.4684C29.2034 20.643 27.0445 21.5 24.0722 21.5C20.9038 21.5 18.6046 20.7223 18.6046 19.6587C18.6046 18.8174 20.315 18.4365 22.2216 18.2143V18.1825C20.6515 17.8492 20.0345 17.4841 20.0345 16.9286C20.0345 16.3412 21.1001 15.8334 22.5302 15.6111C21.0441 15.2142 20.2589 14.5 20.2589 13.5634C20.2589 11.9285 22.39 10.7222 24.9416 10.7222H35.4632L35.2107 11.7697Z" fill="#286AA6"/>
<path fill-rule="evenodd" clip-rule="evenodd" d="M35.5686 16.9127C37.5593 16.9127 39.1855 15.4999 39.1855 13.5317C39.1855 12.3413 38.3164 11.5634 36.9424 11.5634C34.8955 11.5634 33.3532 13.2142 33.3532 15.0238C33.3532 16.1667 34.3347 16.9127 35.5686 16.9127ZM35.6526 18.0715C32.6803 18.0715 30.9139 16.8809 30.9139 14.8808C30.9139 12.3888 33.5216 10.5 36.9424 10.5C39.8026 10.5 41.625 11.738 41.625 13.611C41.625 16.2778 38.9614 18.0715 35.6526 18.0715Z" fill="#286AA6"/>
<path fill-rule="evenodd" clip-rule="evenodd" d="M46.4479 11.9761L46.504 12.0078C47.8781 11.0555 49.28 10.611 50.682 10.611C53.3457 10.611 54.0186 12.1826 53.6822 13.3571L52.4766 17.8492H50.1211L51.2708 13.3094C51.5791 12.0713 50.626 11.7222 49.8968 11.7222C49.2239 11.7222 47.906 11.992 46.1115 13.3094L44.9618 17.8492H42.6066L44.3729 10.7222H46.7563L46.4479 11.9761Z" fill="#286AA6"/>
<path fill-rule="evenodd" clip-rule="evenodd" d="M63.4116 13.2142C63.4116 12.3094 62.7106 11.6111 61.1404 11.6111C59.7384 11.6111 58.7851 12.1348 58.1401 13.2142H63.4116ZM64.7574 17.2777C63.4957 17.8016 62.0657 18.0715 60.5516 18.0715C57.3549 18.0715 55.28 16.7063 55.28 14.627C55.28 12.2936 57.8879 10.5 61.2526 10.5C64.0566 10.5 66.1595 11.9761 65.6266 14.1508H57.7756C57.1869 16.0555 59.0375 16.9602 61.0002 16.9602C62.1778 16.9602 63.5237 16.6428 65.0941 15.9921L64.7574 17.2777Z" fill="#286AA6"/>
<rect x="0.5" y="0.5" width="72.7095" height="31" rx="5.5" stroke="#D9D9D9"/>
</svg>
