<svg width="98" height="32" viewBox="0 0 98 32" fill="none" xmlns="http://www.w3.org/2000/svg">
<rect x="0.5" y="0.5" width="96.1314" height="31" rx="5.5" fill="white"/>
<path d="M33.9552 18.267V21.4349H31.9561V11.7369H36.4994C36.9292 11.7268 37.3567 11.804 37.7557 11.9641C38.1548 12.1242 38.5171 12.3636 38.8207 12.668C39.1243 12.9724 39.3629 13.3353 39.522 13.7348C39.681 14.1342 39.7571 14.5618 39.7459 14.9917C39.761 15.4284 39.6858 15.8635 39.5248 16.2696C39.3636 16.6758 39.1204 17.0443 38.8101 17.352C38.4997 17.6595 38.129 17.8996 37.7215 18.057C37.314 18.2146 36.8782 18.2861 36.4417 18.267H33.9552ZM33.9552 16.6148H36.0203C36.2434 16.6336 36.4679 16.6062 36.6799 16.5344C36.8919 16.4626 37.0868 16.348 37.2527 16.1977C37.4185 16.0473 37.5516 15.8645 37.6437 15.6604C37.7359 15.4565 37.785 15.2357 37.7881 15.0118C37.7913 14.7881 37.7482 14.566 37.6619 14.3595C37.5755 14.1531 37.4475 13.9665 37.2861 13.8115C37.1244 13.6566 36.9328 13.5366 36.7228 13.4589C36.513 13.3814 36.2892 13.3477 36.0658 13.3602H33.9552V16.6148Z" fill="#37DDF3"/>
<path d="M40.3068 17.8746C40.3066 16.9 40.6892 15.9645 41.3721 15.2692C42.055 14.5738 42.9837 14.1746 43.958 14.1573C44.9865 14.1573 46.0562 14.6778 46.4362 15.5162H46.4816L46.5519 14.3432H48.3196V21.4349H46.5476L46.4774 20.2619H46.432C46.019 21.1333 44.9286 21.6249 43.954 21.6249C42.9744 21.6064 42.0419 21.2021 41.359 20.4999C40.6761 19.7976 40.2979 18.8541 40.3068 17.8746ZM46.2876 17.8746C46.2876 17.3465 46.0777 16.8402 45.7044 16.4669C45.331 16.0935 44.8247 15.8838 44.2967 15.8838C43.7688 15.8838 43.2623 16.0935 42.8889 16.4669C42.5156 16.8402 42.3059 17.3465 42.3059 17.8746C42.3059 18.4026 42.5156 18.9089 42.8889 19.2823C43.2623 19.6556 43.7688 19.8653 44.2967 19.8653C44.8247 19.8653 45.331 19.6556 45.7044 19.2823C46.0777 18.9089 46.2876 18.4026 46.2876 17.8746Z" fill="#37DDF3"/>
<path d="M52.3266 20.1917L49.3032 14.3267H51.4757L53.3592 18.2505L55.2425 14.3267H57.4109L52.0829 24.6235H49.9557L52.3266 20.1917Z" fill="#37DDF3"/>
<path d="M61.409 13.8062V14.3267H63.7963V15.9127H61.409V21.4349H59.4101V15.9127H58.2246V14.3267H59.4101V13.6327C59.4101 12.055 60.583 10.8242 62.4788 10.8242C62.9945 10.8137 63.507 10.9064 63.9863 11.0967L63.7386 12.6746C63.4438 12.5359 63.1226 12.4626 62.7968 12.4597C62.6136 12.442 62.4289 12.4643 62.2553 12.525C62.0816 12.5858 61.9233 12.6836 61.7913 12.8117C61.6593 12.9398 61.5566 13.0952 61.4906 13.2668C61.4246 13.4386 61.3968 13.6227 61.409 13.8062ZM67.2865 11.01V21.4349H65.2874V11.01H67.2865Z" fill="#37DDF3"/>
<path d="M68.5293 17.8746C68.5293 15.8094 70.326 14.1573 72.5273 14.1573C74.7288 14.1573 76.5213 15.8342 76.5213 17.8746C76.5213 19.9149 74.7288 21.6249 72.5273 21.6249C70.326 21.6249 68.5293 19.9315 68.5293 17.8746ZM74.5224 17.8746C74.5224 17.479 74.4051 17.0923 74.1852 16.7635C73.9652 16.4347 73.6529 16.1785 73.2873 16.0273C72.9218 15.8762 72.5197 15.8367 72.1318 15.9142C71.744 15.9918 71.3878 16.1824 71.1083 16.4625C70.8289 16.7425 70.6389 17.0991 70.5621 17.4871C70.4855 17.8751 70.5256 18.2772 70.6776 18.6424C70.8295 19.0077 71.0863 19.3196 71.4157 19.5388C71.7449 19.7578 72.1318 19.8744 72.5273 19.8736C73.0566 19.8714 73.5633 19.66 73.9372 19.2854C74.3108 18.9109 74.5213 18.4037 74.5224 17.8746Z" fill="#37DDF3"/>
<path d="M76.563 14.3267H78.7354L80.5445 18.2505L82.428 14.3267H83.2788L85.1623 18.2505L86.9713 14.3267H89.1314L85.7405 21.4349H84.9143L82.8492 17.1806L80.7841 21.4349H79.958L76.563 14.3267Z" fill="#37DDF3"/>
<path d="M10.8541 25.9948H8.41304C8.30349 25.9948 8.19843 25.9512 8.12098 25.8737C8.04351 25.7963 8 25.6911 8 25.5816V6.41299C8 6.30346 8.04351 6.19846 8.12098 6.12092C8.19843 6.04353 8.30349 6 8.41304 6H17.6112C21.7828 6 25.0456 9.17207 25.0456 13.2238C25.0456 15.1956 24.2624 17.0866 22.8682 18.4809C21.4738 19.8751 19.5829 20.6584 17.6112 20.6584H14.0839V22.7565C14.1104 23.1879 14.045 23.6201 13.8921 24.0244C13.7392 24.4286 13.5024 24.7959 13.1972 25.102C12.8919 25.408 12.5252 25.6457 12.1213 25.7997C11.7175 25.9536 11.2855 26.02 10.8541 25.9948ZM8.82606 25.181H10.8541C12.345 25.181 13.2702 24.2559 13.2702 22.7648V20.2577C13.2702 20.1482 13.3138 20.0432 13.3912 19.9656C13.4687 19.8882 13.5737 19.8447 13.6832 19.8447H17.6153C19.3693 19.8425 21.051 19.1462 22.2931 17.908C23.5352 16.6697 24.2368 14.9901 24.2443 13.2363C24.2443 9.64294 21.3532 6.82613 17.6359 6.82613H8.82606V25.181Z" fill="#3859E3"/>
<g opacity="0.6">
<path opacity="0.6" d="M10.8541 25.9948H8.41304C8.30349 25.9948 8.19843 25.9512 8.12098 25.8737C8.04351 25.7963 8 25.6911 8 25.5816V6.41299C8.00109 6.33779 8.02276 6.26415 8.06267 6.20018C8.10258 6.13636 8.1592 6.08457 8.2264 6.05055C8.29362 6.01654 8.36885 6.00156 8.44396 6.00718C8.51908 6.0128 8.59123 6.03885 8.65259 6.08254L9.31343 6.5907C14.4432 10.5722 17.9623 10.5722 20.8039 10.5722C23.4514 10.5722 23.914 10.8821 24.6367 11.5263L24.8144 11.6874C24.887 11.7466 24.9355 11.8304 24.9506 11.9229C25.0293 12.3521 25.0694 12.7876 25.0705 13.2238C25.0705 15.1956 24.2872 17.0866 22.8929 18.4809C21.4987 19.8751 19.6077 20.6584 17.6359 20.6584H14.0839V22.7565C14.1104 23.1879 14.045 23.6201 13.8921 24.0244C13.7392 24.4286 13.5024 24.7959 13.1972 25.102C12.8919 25.408 12.5252 25.6457 12.1213 25.7997C11.7175 25.9536 11.2855 26.02 10.8541 25.9948ZM8.82606 25.181H10.8541C12.345 25.181 13.2702 24.2559 13.2702 22.7648V20.2577C13.2702 20.1482 13.3138 20.0432 13.3912 19.9656C13.4687 19.8882 13.5737 19.8447 13.6832 19.8447H17.6153C18.5725 19.8471 19.5189 19.6414 20.3889 19.2422C21.2589 18.8427 22.0316 18.2591 22.6538 17.5317C23.2761 16.8042 23.7327 15.9503 23.9923 15.0288C24.252 14.1075 24.3084 13.1408 24.1577 12.1955L24.0792 12.1252C23.5382 11.642 23.2531 11.3776 20.775 11.3776C14.1664 11.3693 11.1969 9.08533 8.82606 7.23913V25.181Z" fill="#37DDF3"/>
</g>
<g opacity="0.85">
<path opacity="0.85" d="M10.8541 25.9948H8.41304C8.30349 25.9948 8.19843 25.9512 8.12098 25.8737C8.04351 25.7963 8 25.6911 8 25.5816V11.5139C8 11.4044 8.04351 11.2993 8.12098 11.2219C8.19843 11.1445 8.30349 11.101 8.41304 11.101C11.0317 11.101 12.6136 12.2862 14.2905 13.5419C16.2936 15.0453 18.5611 16.7471 23.2531 17.0362C23.3271 17.0412 23.3984 17.0661 23.4595 17.1082C23.5205 17.1504 23.5691 17.2083 23.6001 17.2757C23.6296 17.3424 23.641 17.4158 23.633 17.4883C23.6251 17.5609 23.5981 17.63 23.5547 17.6886C22.8657 18.6124 21.97 19.3621 20.9395 19.8778C19.9088 20.3934 18.7719 20.6608 17.6195 20.6584H14.0839V22.7565C14.1104 23.1879 14.045 23.6201 13.8921 24.0244C13.7392 24.4286 13.5024 24.796 13.1972 25.102C12.8919 25.408 12.5252 25.6457 12.1213 25.7997C11.7175 25.9536 11.2855 26.02 10.8541 25.9948ZM8.82606 25.1809H10.8541C12.345 25.1809 13.2702 24.2559 13.2702 22.7648V20.2577C13.2702 20.1482 13.3138 20.0432 13.3912 19.9656C13.4687 19.8882 13.5737 19.8447 13.6832 19.8447H17.6153C18.5121 19.8463 19.3995 19.6637 20.2229 19.3085C21.0464 18.9534 21.7881 18.4329 22.4023 17.7796C18.0035 17.3418 15.7939 15.6732 13.7988 14.1903C12.2625 13.038 10.9078 12.0343 8.8178 11.9187L8.82606 25.1809Z" fill="#37DDF3"/>
</g>
<g opacity="0.6">
<path opacity="0.6" d="M10.8541 25.9947H8.41304C8.30349 25.9947 8.19843 25.9512 8.12098 25.8737C8.04351 25.7963 8 25.6911 8 25.5816V19.097C8 18.9875 8.04351 18.8825 8.12098 18.8051C8.19843 18.7276 8.30349 18.6841 8.41304 18.6841C10.1684 18.6841 12.184 17.8581 14.5134 16.9081C17.4583 15.7062 20.7914 14.3432 24.484 14.3432C24.545 14.3435 24.605 14.3574 24.6601 14.384C24.715 14.4103 24.7636 14.4485 24.8019 14.496C24.8395 14.5439 24.8659 14.5994 24.8795 14.6586C24.8931 14.7178 24.8934 14.7795 24.8804 14.8388C24.5035 16.4857 23.5812 17.957 22.2633 19.014C20.9452 20.0711 19.3089 20.652 17.6195 20.6626H14.0839V22.7607C14.1098 23.1918 14.044 23.6234 13.8907 24.0272C13.7377 24.4309 13.5007 24.7978 13.1955 25.1034C12.8903 25.4089 12.524 25.6464 12.1204 25.8C11.7167 25.9536 11.2852 26.02 10.8541 25.9947ZM8.82606 25.1811H10.8541C12.345 25.1811 13.2702 24.2559 13.2702 22.7648V20.2577C13.2702 20.1482 13.3138 20.0432 13.3912 19.9656C13.4687 19.8882 13.5737 19.8447 13.6832 19.8447H17.6153C19.029 19.8349 20.4031 19.3769 21.54 18.5368C22.6771 17.6968 23.5184 16.5177 23.9429 15.1692C20.6387 15.2931 17.541 16.5528 14.815 17.668C12.5722 18.5808 10.6145 19.3821 8.82606 19.4894V25.1811Z" fill="#A9FECC"/>
</g>
<rect x="0.5" y="0.5" width="96.1314" height="31" rx="5.5" stroke="#D9D9D9"/>
</svg>
