<svg width="83" height="32" viewBox="0 0 83 32" fill="none" xmlns="http://www.w3.org/2000/svg">
<rect x="0.5" y="0.5" width="81.0393" height="31" rx="5.5" fill="white"/>
<path fill-rule="evenodd" clip-rule="evenodd" d="M13.7627 11.7662H18.2755C20.6985 11.7662 21.6106 12.9928 21.4697 14.7949C21.2367 17.7701 19.4381 19.4161 17.0524 19.4161H15.8478C15.5205 19.4161 15.3003 19.6328 15.2118 20.2199L14.7004 23.6331C14.6666 23.8544 14.5501 23.9825 14.3754 24H11.54C11.2733 24 11.1789 23.7962 11.2488 23.3547L12.9775 12.4127C13.0451 11.9747 13.285 11.7662 13.7627 11.7662Z" fill="#009EE3"/>
<path fill-rule="evenodd" clip-rule="evenodd" d="M33.3554 11.5634C34.8779 11.5634 36.2828 12.3894 36.0906 14.4478C35.8576 16.8941 34.5471 18.2477 32.4794 18.2535H30.6726C30.4128 18.2535 30.287 18.4655 30.2195 18.9L29.87 21.1215C29.8176 21.457 29.6452 21.6224 29.3912 21.6224H27.7103C27.4423 21.6224 27.3491 21.4512 27.4085 21.0679L28.7959 12.1645C28.8647 11.7265 29.0289 11.5634 29.3283 11.5634H33.3519H33.3554ZM30.6179 16.3302H31.9866C32.8428 16.2976 33.4113 15.7047 33.4684 14.6353C33.5033 13.9748 33.0572 13.5018 32.3477 13.5053L31.0594 13.5112L30.6179 16.3302ZM40.6605 20.9409C40.8143 20.8012 40.9704 20.7289 40.9483 20.9013L40.8935 21.3137C40.8655 21.5292 40.9506 21.6434 41.1509 21.6434H42.6444C42.896 21.6434 43.0183 21.542 43.08 21.153L44.0003 15.3773C44.0469 15.0873 43.9759 14.9452 43.7557 14.9452H42.1132C41.9652 14.9452 41.893 15.0279 41.8546 15.2539L41.794 15.6092C41.7625 15.7944 41.6775 15.827 41.5983 15.6406C41.3199 14.9813 40.6093 14.6854 39.6179 14.7087C37.3149 14.7565 35.7621 16.505 35.5955 18.7463C35.4674 20.4796 36.7092 21.8414 38.347 21.8414C39.5352 21.8414 40.0664 21.4919 40.6652 20.9444L40.6605 20.9409ZM39.4094 20.0521C38.4181 20.0521 37.7273 19.2612 37.8706 18.2919C38.0139 17.3227 38.9411 16.5318 39.9325 16.5318C40.9238 16.5318 41.6146 17.3227 41.4713 18.2919C41.328 19.2612 40.4019 20.0521 39.4094 20.0521ZM46.9231 14.9265H45.4087C45.0965 14.9265 44.9695 15.1595 45.0685 15.4461L46.9487 20.9514L45.1046 23.5713C44.9497 23.7903 45.0697 23.9895 45.2875 23.9895H46.9895C47.0887 24.001 47.189 23.9837 47.2787 23.9397C47.3683 23.8957 47.4434 23.8269 47.495 23.7414L53.2776 15.4472C53.4559 15.1921 53.372 14.9242 53.0796 14.9242H51.4685C51.1924 14.9242 51.0818 15.0337 50.9234 15.2632L48.512 18.7579L47.4345 15.255C47.3716 15.043 47.2143 14.9265 46.9242 14.9265H46.9231Z" fill="#113984"/>
<path fill-rule="evenodd" clip-rule="evenodd" d="M59.2929 11.5634C60.8155 11.5634 62.2204 12.3894 62.0282 14.4478C61.7952 16.8941 60.4847 18.2477 58.4169 18.2535H56.6113C56.3516 18.2535 56.2258 18.4655 56.1582 18.9L55.8087 21.1215C55.7563 21.457 55.5839 21.6224 55.3299 21.6224H53.649C53.381 21.6224 53.2879 21.4512 53.3473 21.0679L54.737 12.1622C54.8057 11.7242 54.97 11.5611 55.2694 11.5611H59.2929V11.5634ZM56.5554 16.3302H57.9242C58.7804 16.2976 59.3489 15.7047 59.4059 14.6353C59.4409 13.9748 58.9947 13.5018 58.2853 13.5053L56.9969 13.5112L56.5554 16.3302V16.3302ZM66.5981 20.9409C66.7518 20.8012 66.9079 20.7289 66.8858 20.9013L66.8311 21.3137C66.8031 21.5292 66.8881 21.6434 67.0885 21.6434H68.5819C68.8335 21.6434 68.9559 21.542 69.0176 21.153L69.9379 15.3773C69.9845 15.0873 69.9134 14.9452 69.6932 14.9452H68.053C67.9051 14.9452 67.8329 15.0279 67.7944 15.2539L67.7339 15.6092C67.7024 15.7944 67.6174 15.827 67.5382 15.6406C67.2597 14.9813 66.5492 14.6854 65.5578 14.7087C63.2548 14.7565 61.702 16.505 61.5354 18.7463C61.4073 20.4796 62.649 21.8414 64.2869 21.8414C65.4751 21.8414 66.0063 21.4919 66.6051 20.9444L66.5981 20.9409ZM65.3481 20.0521C64.3568 20.0521 63.666 19.2611 63.8093 18.2919C63.9526 17.3227 64.8798 16.5318 65.8712 16.5318C66.8625 16.5318 67.5533 17.3227 67.41 18.2919C67.2667 19.2611 66.3395 20.0521 65.3481 20.0521ZM72.2362 21.6527H70.5122C70.4822 21.654 70.4523 21.6487 70.4246 21.6372C70.3969 21.6256 70.372 21.6081 70.3519 21.5858C70.3318 21.5636 70.3168 21.5371 70.308 21.5084C70.2993 21.4797 70.297 21.4494 70.3013 21.4197L71.8157 11.8255C71.8302 11.7601 71.8663 11.7014 71.9184 11.6591C71.9704 11.6168 72.0352 11.5934 72.1023 11.5926H73.8263C73.8563 11.5912 73.8862 11.5965 73.9139 11.6081C73.9416 11.6196 73.9664 11.6372 73.9866 11.6594C74.0067 11.6817 74.0217 11.7081 74.0305 11.7368C74.0392 11.7655 74.0415 11.7958 74.0372 11.8255L72.5228 21.4197C72.5088 21.4856 72.4728 21.5448 72.4207 21.5876C72.3687 21.6303 72.3036 21.6541 72.2362 21.655V21.6527Z" fill="#009EE3"/>
<path fill-rule="evenodd" clip-rule="evenodd" d="M10.94 8H15.4575C16.7296 8 18.2393 8.04077 19.2481 8.93193C19.9226 9.52719 20.2768 10.4743 20.1952 11.4947C19.918 14.944 17.8549 16.8766 15.0871 16.8766H12.8598C12.48 16.8766 12.2296 17.1282 12.1224 17.8085L11.5003 21.7692C11.4596 22.0255 11.3489 22.1769 11.1509 22.1956H8.36326C8.05455 22.1956 7.94505 21.9626 8.02543 21.4477L10.0291 8.75253C10.1094 8.2423 10.3902 8 10.94 8Z" fill="#113984"/>
<path fill-rule="evenodd" clip-rule="evenodd" d="M12.1877 17.4066L12.9764 12.4127C13.0451 11.9747 13.2851 11.765 13.7627 11.765H18.2755C19.0223 11.765 19.6268 11.8815 20.0998 12.097C19.6466 15.1677 17.6605 16.8731 15.0604 16.8731H12.8366C12.5384 16.8743 12.3194 17.0234 12.1877 17.4066Z" fill="#172C70"/>
<rect x="0.5" y="0.5" width="81.0393" height="31" rx="5.5" stroke="#D9D9D9"/>
</svg>
