<svg width="56" height="32" viewBox="0 0 56 32" fill="none" xmlns="http://www.w3.org/2000/svg">
<rect x="0.5" y="0.5" width="54.7919" height="31" rx="5.5" fill="white"/>
<path fill-rule="evenodd" clip-rule="evenodd" d="M47.4434 10.191H45.6827C45.5901 10.1905 45.5015 10.1532 45.4364 10.0874C45.3713 10.0216 45.335 9.9327 45.3354 9.84007L45.3359 8.04514C45.3359 7.85175 45.4919 7.69521 45.6837 7.69521L47.4439 7.69577C47.6357 7.69577 47.7918 7.85279 47.7918 8.04617L47.7908 9.84166C47.7909 9.93406 47.7543 10.0228 47.6891 10.0883C47.6239 10.1538 47.5354 10.1907 47.4429 10.191H47.4434ZM45.0975 7.69521H43.9021C43.8709 7.69513 43.8401 7.68884 43.8113 7.67675C43.7827 7.66473 43.7566 7.64706 43.7347 7.62494C43.7128 7.60281 43.6955 7.57655 43.6837 7.54774C43.672 7.51885 43.666 7.48797 43.6663 7.45686V6.23788C43.6663 6.1064 43.7721 6 43.9025 6L45.0981 6.00048C45.2285 6.00048 45.3343 6.10688 45.3343 6.23835L45.3339 7.45789C45.3339 7.48901 45.3279 7.51981 45.316 7.54854C45.3042 7.57735 45.2867 7.60345 45.2649 7.6255C45.2429 7.64754 45.2168 7.66505 45.1881 7.67699C45.1594 7.689 45.1286 7.69513 45.0975 7.69521Z" fill="black"/>
<mask id="mask0_1_629" style="mask-type:alpha" maskUnits="userSpaceOnUse" x="8" y="10" width="36" height="16">
<path d="M8 10.9911H43.6612V26H8V10.9911Z" fill="white"/>
</mask>
<g mask="url(#mask0_1_629)">
<path opacity="0.963" fill-rule="evenodd" clip-rule="evenodd" d="M43.6612 12.1532V18.2313C43.6612 19.2089 43.4422 20.037 43.0192 20.7041C42.2023 21.9973 40.6201 22.6863 38.3704 22.6863H38.354C36.1042 22.6863 34.522 21.9973 33.7052 20.7041C33.2821 20.037 33.0632 19.2089 33.0632 18.2313V12.1532C33.0632 11.1711 33.4612 10.9936 34.5313 10.9936H34.8684C35.9385 10.9936 36.3365 11.1711 36.3365 12.1532V14.4511L36.3375 14.4654V14.9692L36.3385 15.0204V18.2313C36.3385 18.6236 36.4137 18.9362 36.5687 19.1786C36.8603 19.6314 37.4383 19.837 38.3622 19.8386C39.2865 19.837 39.864 19.6308 40.1556 19.1786C40.3106 18.9357 40.3858 18.6236 40.3858 18.2313V15.0209L40.3868 14.9692V14.4654L40.3878 14.4511V12.1532C40.3878 11.1711 40.7858 10.9936 41.856 10.9936H42.193C43.2632 10.9936 43.6612 11.1711 43.6612 12.1532ZM31.9654 14.4945L29.9756 22.5118C29.3924 24.8618 28.3959 25.8706 26.536 25.9933C26.4909 25.9973 26.4457 25.9994 26.4004 25.9995C25.9994 25.9995 25.873 25.7764 25.7983 25.4174L25.7641 25.2619C25.7304 25.0982 25.7089 24.914 25.8035 24.7861C25.8956 24.6624 26.0593 24.626 26.3124 24.6045C27.5581 24.4757 27.98 23.8956 28.3955 22.5804C28.199 22.6469 27.9627 22.6827 27.7069 22.6827C26.3381 22.6827 25.9717 21.7221 25.6633 20.5619L24.0203 14.4997C23.9655 14.2935 23.9292 14.0843 24.0356 13.9441C24.1431 13.804 24.3502 13.7845 24.5589 13.7845H24.697C25.2137 13.7845 25.4131 13.938 25.5472 14.4413L27.1734 20.4519C27.3831 21.2023 27.5944 21.3292 28.1222 21.3292C28.5529 21.3292 28.8047 21.1941 28.9837 20.4549L30.4196 14.4445C30.5336 13.9451 30.7367 13.7845 31.2528 13.7845H31.4083C31.616 13.7845 31.8227 13.8035 31.9321 13.9421C32.0411 14.0802 32.0124 14.2899 31.9654 14.4951V14.4945ZM21.924 18.5597H20.0098C18.4711 18.5597 17.8716 18.9536 17.8716 19.9644C17.8716 20.8867 18.4691 21.3348 19.6988 21.3348C21.5598 21.3348 21.924 20.7619 21.924 19.7731V18.5597ZM19.6988 13.5288C22.2171 13.5288 23.4412 14.4597 23.4412 16.3755V19.8253C23.4412 21.8059 22.2923 22.6888 19.7162 22.6888C17.5483 22.6888 16.3544 21.7215 16.3544 19.9644C16.3544 18.1535 17.5105 17.3095 19.9929 17.3095H21.924V16.3755C21.924 15.3278 21.2994 14.9007 19.7679 14.9007C18.9151 14.9007 18.1361 15.0276 17.8921 15.0889C17.8057 15.1126 17.7167 15.1257 17.6271 15.1278C17.4736 15.1278 17.3611 15.0726 17.2905 14.9637C17.2296 14.87 17.2015 14.7376 17.2015 14.5457V14.4076C17.2015 13.918 17.3805 13.8004 17.8072 13.7068C18.0486 13.6582 18.6839 13.5298 19.6988 13.5298V13.5288ZM14.8326 14.691C14.8326 16.1335 14.4668 16.9147 12.5383 16.9147H9.56939V13.1927C9.56939 12.6766 9.75967 12.4847 10.2723 12.4847H12.5383C13.9911 12.4847 14.8326 12.8459 14.8326 14.6915V14.691ZM12.5383 10.9905H9.97813C8.61025 10.991 8 11.6059 8 12.984V21.8351C8 22.3671 8.16983 22.5384 8.69827 22.5384H8.87112C9.39956 22.5384 9.56939 22.3676 9.56939 21.8351V18.3914H12.5383C15.1737 18.3914 16.4015 17.2159 16.4015 14.6915C16.4015 12.1671 15.1737 10.9905 12.5383 10.9905Z" fill="black"/>
<path opacity="0.921" fill-rule="evenodd" clip-rule="evenodd" d="M44.8653 13.5498L42.4954 13.5487C42.4337 13.5484 42.3728 13.536 42.3158 13.5122C42.2589 13.4883 42.2074 13.4536 42.1639 13.4097C42.1205 13.3659 42.0862 13.3141 42.0629 13.2569C42.0395 13.1999 42.0276 13.1387 42.0278 13.0771L42.0289 10.6606C42.0289 10.3997 42.2386 10.189 42.4969 10.189L44.8669 10.19C45.1252 10.19 45.3349 10.4012 45.3345 10.6616L45.3339 13.0786C45.3339 13.3385 45.1242 13.5498 44.8653 13.5492" fill="black"/>
</g>
<rect x="0.5" y="0.5" width="54.7919" height="31" rx="5.5" stroke="#D9D9D9"/>
</svg>
