<svg width="75" height="32" viewBox="0 0 75 32" fill="none" xmlns="http://www.w3.org/2000/svg">
<rect x="0.5" y="0.5" width="73.255" height="31" rx="5.5" fill="white"/>
<path d="M8 20.0581V9.59762H12.127C12.9203 9.59762 13.5962 9.74912 14.1546 10.0522C14.7131 10.3519 15.1387 10.769 15.4316 11.3036C15.7278 11.8348 15.8759 12.4477 15.8759 13.1423C15.8759 13.837 15.7261 14.4499 15.4265 14.9811C15.1268 15.5123 14.6927 15.926 14.1241 16.2222C13.5588 16.5185 12.8743 16.6667 12.0708 16.6667H9.44034V14.8943H11.7132C12.1388 14.8943 12.4896 14.8211 12.7653 14.6746C13.0446 14.5248 13.2523 14.3187 13.3885 14.0566C13.5281 13.791 13.5979 13.4862 13.5979 13.1423C13.5979 12.795 13.5281 12.492 13.3885 12.2332C13.2523 11.9709 13.0446 11.7684 12.7653 11.6254C12.4862 11.4789 12.132 11.4057 11.703 11.4057H10.2115V20.0581H8ZM19.0104 20.2062C18.5098 20.2062 18.0637 20.1193 17.6721 19.9456C17.2806 19.7686 16.9707 19.5081 16.7426 19.1643C16.5179 18.8169 16.4055 18.3845 16.4055 17.8669C16.4055 17.431 16.4855 17.0649 16.6455 16.7688C16.8056 16.4725 17.0235 16.2342 17.2994 16.0537C17.5752 15.8732 17.8884 15.737 18.2391 15.6451C18.5932 15.5532 18.9645 15.4884 19.3526 15.4509C19.8089 15.4033 20.1766 15.359 20.4559 15.3182C20.735 15.2739 20.9377 15.2092 21.0637 15.1241C21.1896 15.039 21.2527 14.913 21.2527 14.7462V14.7155C21.2527 14.392 21.1504 14.1417 20.9462 13.9647C20.7453 13.7876 20.4592 13.6991 20.0881 13.6991C19.6966 13.6991 19.3849 13.7858 19.1533 13.9595C18.9218 14.1298 18.7686 14.3444 18.6937 14.6032L16.6813 14.4397C16.7835 13.963 16.9844 13.5509 17.284 13.2036C17.5837 12.8529 17.9701 12.5839 18.4434 12.3967C18.9201 12.206 19.4718 12.1106 20.0983 12.1106C20.5341 12.1106 20.9512 12.1616 21.3496 12.2639C21.7514 12.366 22.1073 12.5243 22.4171 12.7389C22.7304 12.9533 22.9773 13.2292 23.1577 13.5663C23.3382 13.9 23.4285 14.3 23.4285 14.7665V20.0581H21.365V18.9701H21.3037C21.1778 19.2153 21.0091 19.4316 20.7981 19.6188C20.587 19.8026 20.3332 19.9474 20.037 20.0529C19.7408 20.1551 19.3986 20.2062 19.0104 20.2062ZM19.6335 18.7045C19.9535 18.7045 20.2362 18.6416 20.4814 18.5156C20.7265 18.3862 20.9189 18.2125 21.0585 17.9946C21.1981 17.7767 21.2679 17.5298 21.2679 17.254V16.4214C21.1998 16.4657 21.1062 16.5065 20.9871 16.544C20.8713 16.5781 20.7402 16.6104 20.5937 16.641C20.4473 16.6683 20.3009 16.6939 20.1545 16.7177C20.0081 16.7381 19.8753 16.7568 19.7561 16.7738C19.5007 16.8113 19.2776 16.8709 19.0869 16.9526C18.8963 17.0344 18.7482 17.145 18.6426 17.2846C18.537 17.4208 18.4843 17.5911 18.4843 17.7954C18.4843 18.0917 18.5916 18.3181 18.8061 18.4747C19.024 18.6279 19.2998 18.7045 19.6335 18.7045ZM25.8912 23C25.6154 23 25.3566 22.9779 25.1149 22.9336C24.8765 22.8928 24.6791 22.84 24.5224 22.7753L25.0128 21.1511C25.2682 21.2294 25.498 21.272 25.7023 21.2788C25.91 21.2855 26.0887 21.238 26.2386 21.1357C26.3919 21.0336 26.516 20.8599 26.6114 20.6148L26.7391 20.2828L23.9248 12.2127H26.213L27.8372 17.9742H27.919L29.5585 12.2127H31.8621L28.8128 20.9059C28.6664 21.3282 28.4672 21.6959 28.2153 22.0091C27.9667 22.3258 27.6517 22.5693 27.2703 22.7395C26.8889 22.9132 26.4293 23 25.8912 23ZM37.7189 16.7177V12.2127H39.8947V20.0581H37.8057V18.6331H37.724C37.5469 19.0927 37.2524 19.4621 36.8403 19.7414C36.4317 20.0205 35.9329 20.1602 35.3439 20.1602C34.8195 20.1602 34.358 20.041 33.9596 19.8026C33.5612 19.5644 33.2497 19.2255 33.025 18.7862C32.8036 18.347 32.6913 17.8209 32.6878 17.2081V12.2127H34.8637V16.8198C34.8671 17.283 34.9914 17.649 35.2366 17.918C35.4817 18.1869 35.8104 18.3214 36.2223 18.3214C36.4846 18.3214 36.7297 18.2619 36.9578 18.1427C37.186 18.0201 37.3699 17.8396 37.5095 17.6013C37.6525 17.3629 37.7223 17.0684 37.7189 16.7177ZM43.5233 15.5225V20.0581H41.3475V12.2127H43.4212V13.5969H43.5131C43.6868 13.1406 43.9779 12.7798 44.3865 12.5141C44.7951 12.2451 45.2906 12.1106 45.8729 12.1106C46.4177 12.1106 46.8926 12.2298 47.2979 12.4681C47.703 12.7065 48.018 13.047 48.2427 13.4897C48.4675 13.929 48.5799 14.4533 48.5799 15.0628V20.0581H46.404V15.4509C46.4075 14.9709 46.2849 14.5963 46.0363 14.3274C45.7877 14.0549 45.4455 13.9187 45.0097 13.9187C44.7169 13.9187 44.4581 13.9817 44.2333 14.1077C44.012 14.2336 43.8383 14.4175 43.7123 14.6593C43.5897 14.8977 43.5268 15.1854 43.5233 15.5225ZM50.0071 20.0581V12.2127H52.183V20.0581H50.0071ZM51.1002 11.2014C50.7767 11.2014 50.4991 11.0942 50.2676 10.8796C50.0394 10.6617 49.9254 10.4013 49.9254 10.0981C49.9254 9.7985 50.0394 9.54152 50.2676 9.32698C50.4991 9.10907 50.7767 9 51.1002 9C51.4237 9 51.6995 9.10907 51.9276 9.32698C52.1591 9.54152 52.2749 9.7985 52.2749 10.0981C52.2749 10.4013 52.1591 10.6617 51.9276 10.8796C51.6995 11.0942 51.4237 11.2014 51.1002 11.2014ZM57.8112 12.2127V13.8472H53.0866V12.2127H57.8112ZM54.1592 10.3332H56.3351V17.6472C56.3351 17.8481 56.3657 18.0048 56.4271 18.1172C56.4883 18.2261 56.5734 18.3027 56.6824 18.347C56.7948 18.3913 56.9241 18.4134 57.0706 18.4134C57.1727 18.4134 57.275 18.4048 57.3771 18.3878C57.4792 18.3675 57.5576 18.3521 57.612 18.3419L57.9542 19.961C57.8452 19.995 57.6921 20.0342 57.4945 20.0784C57.297 20.1261 57.0569 20.1551 56.7743 20.1653C56.2499 20.1857 55.7903 20.116 55.3953 19.9559C55.0037 19.7958 54.6989 19.5473 54.481 19.2102C54.2631 18.8731 54.1559 18.4474 54.1592 17.9333V10.3332ZM60.2842 23C60.0085 23 59.7496 22.9779 59.5078 22.9336C59.2695 22.8928 59.072 22.84 58.9153 22.7753L59.4057 21.1511C59.6611 21.2294 59.8909 21.272 60.0952 21.2788C60.3029 21.2855 60.4817 21.238 60.6315 21.1357C60.7848 21.0336 60.9091 20.8599 61.0044 20.6148L61.1321 20.2828L58.3177 12.2127H60.606L62.2302 17.9742H62.3119L63.9515 12.2127H66.255L63.2058 20.9059C63.0593 21.3282 62.8601 21.6959 62.6082 22.0091C62.3596 22.3258 62.0446 22.5693 61.6632 22.7395C61.282 22.9132 60.8222 23 60.2842 23Z" fill="black"/>
<rect x="0.5" y="0.5" width="73.255" height="31" rx="5.5" stroke="#D9D9D9"/>
</svg>
