<svg width="91" height="32" viewBox="0 0 91 32" fill="none" xmlns="http://www.w3.org/2000/svg">
<rect x="0.5" y="0.5" width="89.1563" height="31" rx="5.5" fill="white"/>
<path d="M18.4885 19.1206C20.6188 18.7184 22.23 16.8475 22.23 14.6003C22.23 12.0597 20.1704 10 17.6298 10C16.7017 10 15.8377 10.2749 15.1149 10.7476C13.972 11.4953 13.182 12.7377 13.0493 14.171H18.0425C18.0535 14.3127 18.0592 14.4557 18.0592 14.6003C18.0592 16.3421 17.2432 17.8936 15.9728 18.8931C16.4869 19.0917 17.0455 19.2005 17.6298 19.2005C17.9233 19.2005 18.2103 19.173 18.4885 19.1206Z" fill="#0043F5"/>
<path d="M15.1151 18.453C14.3923 18.9257 13.5284 19.2005 12.6003 19.2005C10.0596 19.2005 8 17.1409 8 14.6003C8 12.6668 9.19288 11.0118 10.8828 10.3313C11.4135 10.1176 11.9931 10 12.6003 10C13.1845 10 13.7432 10.1088 14.2572 10.3074C12.9868 11.3069 12.171 12.8584 12.171 14.6003C12.171 14.7448 12.1765 14.888 12.1875 15.0297H17.1808C17.0482 16.4628 16.2581 17.7054 15.1151 18.453Z" fill="#0043F5"/>
<path d="M31.7753 19.197C31.1242 19.197 30.5316 19.0719 29.9976 18.8217C29.4717 18.5631 29.0168 18.221 28.6329 17.7956C28.2573 17.3701 27.9653 16.8905 27.7565 16.3566C27.548 15.8144 27.4436 15.2596 27.4436 14.6924C27.4436 14.1 27.5521 13.537 27.7691 13.0031C27.986 12.4609 28.2907 11.9812 28.683 11.5642C29.0753 11.1386 29.5343 10.8049 30.0601 10.5632C30.5942 10.3129 31.1785 10.1878 31.8128 10.1878C32.4555 10.1878 33.0396 10.317 33.5654 10.5756C34.0996 10.8342 34.5544 11.1804 34.93 11.6142C35.3139 12.0479 35.6061 12.536 35.8063 13.0782C36.015 13.6121 36.1194 14.1584 36.1194 14.7174C36.1194 15.2847 36.015 15.8352 35.8063 16.3691C35.6061 16.8947 35.3223 17.3619 34.9551 17.7705L36.1694 19.1345H34.542L34.0162 18.5589C33.699 18.7591 33.3485 18.9177 32.9645 19.0344C32.589 19.1428 32.1924 19.197 31.7753 19.197ZM31.7877 17.6705C32.0131 17.6705 32.2217 17.6454 32.4137 17.5954C32.6141 17.537 32.7976 17.4619 32.9645 17.3701L31.6125 15.8435H33.2399L33.8534 16.5318C34.0203 16.2649 34.1496 15.9728 34.2415 15.6558C34.3327 15.3428 34.3791 15.0184 34.3791 14.6924C34.3791 14.1751 34.2749 13.6914 34.0662 13.2409C33.8576 12.7904 33.5571 12.4233 33.1648 12.1398C32.7808 11.8561 32.3219 11.7144 31.7877 11.7144C31.2285 11.7144 30.7569 11.8602 30.3731 12.1523C29.9892 12.4442 29.697 12.8196 29.4968 13.2784C29.2964 13.7372 29.1963 14.2086 29.1963 14.6924C29.1963 15.2096 29.2964 15.6933 29.4968 16.1439C29.7054 16.5944 30.0016 16.9614 30.3856 17.245C30.7779 17.5286 31.2453 17.6705 31.7877 17.6705ZM44.1768 11.6642V10H45.8544V11.6642H44.1768ZM44.1768 19.1345V12.5777H45.8544V19.1345H44.1768ZM50.4224 19.2596C49.7129 19.2596 49.0996 19.1012 48.5821 18.7842C48.0646 18.4672 47.6641 18.05 47.3802 17.5328C47.0964 17.0156 46.9546 16.4567 46.9546 15.8561C46.9546 15.2472 47.0924 14.684 47.3677 14.1669C47.6515 13.6496 48.0521 13.2367 48.5696 12.9281C49.087 12.6193 49.7005 12.4651 50.4099 12.4651C51.1276 12.4651 51.737 12.6193 52.2378 12.9281C52.7467 13.2367 53.1265 13.6412 53.3769 14.1418L51.737 14.6423C51.4448 14.1418 50.9983 13.8915 50.3973 13.8915C50.0718 13.8915 49.7797 13.9749 49.5211 14.1418C49.2623 14.3003 49.0578 14.5296 48.9076 14.83C48.7574 15.1219 48.6823 15.464 48.6823 15.8561C48.6823 16.2398 48.7574 16.5819 48.9076 16.8821C49.0661 17.1742 49.2749 17.4077 49.5335 17.5828C49.7922 17.7498 50.0802 17.8331 50.3973 17.8331C50.6979 17.8331 50.9732 17.7622 51.2236 17.6205C51.4823 17.4703 51.6618 17.2826 51.7619 17.0573L53.4019 17.5579C53.1766 18.05 52.8011 18.4587 52.2752 18.7842C51.7578 19.1012 51.1402 19.2596 50.4224 19.2596ZM58.5002 19.1345L56.5848 16.3065L55.6959 17.1824V19.1345H54.0183V10H55.6959V15.5307L58.3375 12.5902H60.1152L57.674 15.3681L60.2905 19.1345H58.5002ZM64.6332 19.2596C64.1157 19.2596 63.665 19.1428 63.2811 18.9093C62.8971 18.6756 62.5967 18.367 62.3798 17.9833V21.7998H60.7022V12.5777H62.1669V13.7038C62.4089 13.3201 62.722 13.0198 63.1059 12.803C63.4981 12.5777 63.9404 12.4651 64.4328 12.4651C65.0254 12.4651 65.5513 12.6193 66.0104 12.9281C66.4693 13.2284 66.8324 13.637 67.0995 14.1542C67.3665 14.6631 67.5001 15.2263 67.5001 15.8435C67.5001 16.4859 67.3748 17.0656 67.1245 17.5828C66.8824 18.0917 66.5444 18.5005 66.1104 18.8091C65.6847 19.1095 65.1923 19.2596 64.6332 19.2596ZM64.0699 17.8331C64.4121 17.8331 64.7083 17.7414 64.9587 17.5579C65.2174 17.366 65.4178 17.1198 65.5596 16.8196C65.7098 16.5109 65.7849 16.1856 65.7849 15.8435C65.7849 15.4765 65.7056 15.147 65.5471 14.855C65.3885 14.5547 65.1716 14.3212 64.8961 14.1542C64.629 13.9791 64.3203 13.8915 63.9697 13.8915C63.6525 13.8915 63.3353 13.9958 63.0182 14.2044C62.7011 14.4128 62.4883 14.6756 62.3798 14.9926V16.5318C62.53 16.8988 62.7595 17.2075 63.0684 17.4577C63.3771 17.708 63.711 17.8331 64.0699 17.8331ZM76.3224 20.4108C76.631 20.4942 76.8813 20.5359 77.0733 20.5359C77.299 20.5359 77.478 20.44 77.6118 20.2482C77.7535 20.0646 77.9123 19.6935 78.0878 19.1345L75.4963 12.5777H77.2364L79.0016 17.4202L80.5535 12.5777H82.1562L79.4022 20.4358C79.2519 20.8863 78.9809 21.2575 78.5882 21.5495C78.2042 21.8498 77.729 22 77.1609 22C76.8856 22 76.6058 21.9542 76.3224 21.8623V20.4108ZM70.899 19.2079C71.4185 19.2079 71.8718 19.0925 72.2577 18.8617C72.6435 18.631 72.9452 18.326 73.1636 17.947V19.0843H74.8491V12.6064H73.3771V13.719C73.1342 13.3397 72.8195 13.0431 72.4337 12.8289C72.0393 12.6064 71.5953 12.495 71.1002 12.495C70.5046 12.495 69.976 12.6475 69.5147 12.9525C69.0536 13.2491 68.6888 13.6529 68.4203 14.164C68.1519 14.6667 68.0177 15.223 68.0177 15.833C68.0177 16.4675 68.1435 17.0403 68.3951 17.5513C68.6383 18.0541 68.978 18.4579 69.4141 18.7629C69.8422 19.0595 70.3366 19.2079 70.899 19.2079ZM71.4652 17.7986C71.1211 17.7986 70.8237 17.708 70.5715 17.5266C70.3114 17.337 70.1103 17.0939 69.9679 16.7972C69.817 16.4923 69.7416 16.1708 69.7416 15.833C69.7416 15.4703 69.8208 15.1447 69.9802 14.8563C70.1397 14.5595 70.3581 14.3289 70.6346 14.164C70.9027 13.9908 71.213 13.9044 71.5658 13.9044C71.8841 13.9044 72.2031 14.0074 72.522 14.2134C72.8403 14.4195 73.0544 14.6791 73.1636 14.9923V16.5128C73.0128 16.8755 72.7821 17.1804 72.4717 17.4276C72.1613 17.6749 71.8258 17.7986 71.4652 17.7986ZM36.8891 12.6138H38.5563V16.2511C38.5563 16.7708 38.6476 17.1502 38.8301 17.3892C39.0126 17.6285 39.2656 17.748 39.5891 17.748C39.813 17.748 40.0412 17.6903 40.2733 17.5749C40.4973 17.4593 40.7006 17.2986 40.883 17.0923C41.0656 16.8944 41.1983 16.6634 41.2812 16.3996V12.6138H42.9485V19.0966H41.443V17.8966C41.2025 18.3007 40.8541 18.6182 40.3978 18.8492C39.9417 19.0883 39.4273 19.2079 38.8549 19.2079C38.4486 19.2079 38.1167 19.1337 37.8596 18.9852C37.6025 18.845 37.4034 18.6511 37.2623 18.4037C37.1213 18.1646 37.026 17.8924 36.9762 17.5871C36.9181 17.2814 36.8888 16.9707 36.8891 16.6594V12.6138Z" fill="#404040"/>
<rect x="0.5" y="0.5" width="89.1563" height="31" rx="5.5" stroke="#D9D9D9"/>
</svg>
