<svg width="66" height="32" viewBox="0 0 66 32" fill="none" xmlns="http://www.w3.org/2000/svg">
<rect x="0.5" y="0.5" width="65" height="31" rx="5.5" fill="white"/>
<path fill-rule="evenodd" clip-rule="evenodd" d="M43.9152 7.50545C42.7834 7.50545 41.8642 8.41985 41.8642 9.54715C41.8642 10.675 42.7834 11.5874 43.9152 11.5874C45.049 11.5874 45.9675 10.675 45.9675 9.54715C45.9675 8.41985 45.049 7.50545 43.9152 7.50545ZM14.3283 14.3459C13.8024 14.3121 12.5839 14.2332 12.5839 13.1424C12.5839 11.8261 14.3369 11.8261 14.9948 11.8261C16.152 11.8261 17.649 12.1657 18.7195 12.4846C18.7195 12.4846 19.3154 12.6941 19.8227 12.9077L19.87 12.9209V9.31575L19.8067 9.29645C18.5429 8.85685 17.0758 8.43445 14.3543 8.43445C9.6624 8.43445 8 11.1524 8 13.4832C8 14.8253 8.5786 17.9869 13.9503 18.351L13.9553 18.3513C14.4156 18.3793 15.616 18.4525 15.616 19.5757C15.616 20.5067 14.6262 21.0544 12.9618 21.0544C11.1381 21.0544 9.3678 20.5929 8.2933 20.1533V23.8653C9.9023 24.2863 11.7167 24.4945 13.843 24.4945C18.4289 24.4945 20.4846 21.9224 20.4846 19.3721C20.4846 16.4817 18.1856 14.6032 14.3283 14.3459ZM28.1753 12.7436C28.1842 12.7203 28.1912 12.7019 28.1964 12.6888H33.1089C32.9689 13.1338 32.0924 15.8186 30.0941 18.3397C30.0941 18.3397 32.3197 22.2195 32.8283 24.3241H27.6845C27.6845 24.3241 27.0699 21.5298 25.8261 19.6732V24.3241H21.5309V9.27995L25.8261 8.43445V16.735C27.3481 14.9038 28.0263 13.1327 28.1753 12.7436ZM53.8374 24.3241V9.17515L58 8.43445V24.3241H53.8374ZM39.4878 12.5317C35.6424 12.655 33.6888 14.3724 33.6888 17.786V24.3241H37.8854V18.9915C37.8854 16.9485 38.1547 16.0726 40.5923 15.989V12.592C40.1823 12.5052 39.4878 12.5317 39.4878 12.5317ZM41.8355 24.3241V12.7021H45.9975V24.3241H41.8355ZM47.7612 9.17515L51.9212 8.43445V24.3241H47.7612V9.17515Z" fill="#862165"/>
<rect x="0.5" y="0.5" width="65" height="31" rx="5.5" stroke="#D9D9D9"/>
</svg>
