<svg xmlns="http://www.w3.org/2000/svg" viewBox="0 0 270.933 270.933" height="1024" width="1023.999"><path d="M-333.862-37.055l310.86 183.264-3.28 360.846-314.141 177.582-310.862-183.264 3.28-360.846z" transform="matrix(.3707 -.00344 .00382 .33335 259.505 27.273)" stroke="#ff8900" stroke-width="25.802" fill="none"/><path d="M-13501.088 7453.537l92.099-160.275M-13593.655 7293.317l184.862 107.132M-13501.263 7240.638l92.598 159.95M-13501.233 7240.442l-92.149 159.898M-13593.455 7293.263l92.47 159.903M-13501.258 7240.591l.345 213.182M-13593.305 7400.136l184.491-106.82" fill="none" stroke="#ff8900" stroke-width="3.817" stroke-linecap="round" stroke-miterlimit="3" transform="matrix(1.25297 0 0 1.12671 17052.298 -8141.713)"/><path d="M156.664 18.084a20.11 18.084 0 01-19.678 18.08A20.11 18.084 0 01116.46 18.86 20.11 18.084 0 01135.257.038a20.11 18.084 0 0121.331 16.492M156.664 252.85a20.11 18.084 0 01-19.678 18.08 20.11 18.084 0 01-20.525-17.303 20.11 18.084 0 0118.796-18.824 20.11 18.084 0 0121.331 16.493M270.933 193.98a20.11 18.084 0 01-19.678 18.08 20.11 18.084 0 01-20.523-17.303 20.11 18.084 0 0118.794-18.823 20.11 18.084 0 0121.333 16.492M270.933 76.24a20.11 18.084 0 01-19.678 18.08 20.11 18.084 0 01-20.523-17.303 20.11 18.084 0 0118.794-18.823 20.11 18.084 0 0121.333 16.492M40.22 76.24a20.11 18.084 0 01-19.678 18.08A20.11 18.084 0 01.02 77.017a20.11 18.084 0 0118.794-18.823 20.11 18.084 0 0121.333 16.492M40.22 193.98a20.11 18.084 0 01-19.678 18.08A20.11 18.084 0 01.02 194.756a20.11 18.084 0 0118.794-18.823 20.11 18.084 0 0121.333 16.492M155.576 135.467a20.11 18.084 0 01-19.678 18.08 20.11 18.084 0 01-20.525-17.303 20.11 18.084 0 0118.796-18.824 20.11 18.084 0 0121.332 16.493" fill="#ff8900"/></svg>