<?xml version="1.0" encoding="UTF-8"?>
<svg width="192px" height="48px" viewBox="0 0 192 48" version="1.1" xmlns="http://www.w3.org/2000/svg" xmlns:xlink="http://www.w3.org/1999/xlink">
    <title>easysocial-white</title>
    <g id="easysocial-white" stroke="none" stroke-width="1" fill="none" fill-rule="evenodd">
        <g id="Group" transform="translate(51.000000, 11.000000)" fill="#FFFFFF" fill-rule="nonzero">
            <path d="M7.346,19.92 C10.362,19.92 13.092,18.048 13.846,15.448 L11.194,15.058 C10.7,16.514 9.062,17.554 7.294,17.554 C5.136,17.554 3.498,15.994 3.16,13.654 L14.288,13.68 C14.314,13.368 14.34,12.978 14.34,12.666 C14.34,8.584 11.428,5.672 7.32,5.672 C3.212,5.672 0.248,8.584 0.248,12.64 C0.248,16.878 3.212,19.92 7.346,19.92 Z M11.402,11.574 L3.186,11.574 C3.55,9.468 5.11,8.038 7.242,8.038 C9.426,8.038 11.09,9.494 11.402,11.574 Z M23.466,19.92 C25.52,19.92 27.262,18.984 28.38,17.424 L28.38,19.4 L31.214,19.4 L31.214,6.192 L28.38,6.192 L28.38,8.168 C27.262,6.608 25.52,5.672 23.466,5.672 C19.592,5.672 16.836,8.662 16.836,12.796 C16.836,16.93 19.592,19.92 23.466,19.92 Z M24.012,17.398 C21.49,17.398 19.644,15.448 19.644,12.796 C19.644,10.118 21.49,8.194 24.012,8.194 C26.534,8.194 28.354,10.118 28.354,12.796 C28.354,15.474 26.534,17.398 24.012,17.398 Z M40.548,19.946 C43.902,19.946 46.294,18.048 46.294,15.422 C46.294,12.432 43.044,11.886 40.522,11.47 C38.39,11.106 37.402,10.794 37.402,9.806 C37.402,8.74 38.598,7.96 40.028,7.96 C41.926,7.96 43.304,8.87 43.33,10.17 L45.956,10.17 C45.956,7.544 43.46,5.646 40.054,5.646 C37.064,5.646 34.75,7.414 34.75,9.832 C34.75,12.978 37.09,13.368 40.184,13.836 C41.51,14.018 43.564,14.356 43.564,15.734 C43.59,16.826 42.316,17.632 40.548,17.632 C38.572,17.632 37.142,16.488 37.142,14.928 L34.542,14.928 C34.542,17.84 37.064,19.946 40.548,19.946 Z M51.806,25.276 C54.614,25.276 55.784,22.754 56.928,19.712 L62.102,6.192 L59.138,6.192 L55.55,15.942 L51.416,6.192 L48.322,6.192 L54.276,19.452 C53.6,21.09 53.054,22.91 51.234,22.91 C50.714,22.91 50.064,22.754 49.492,22.546 L49.492,24.834 C50.168,25.12 51.052,25.276 51.806,25.276 Z M70.24,19.946 C73.594,19.946 75.986,18.048 75.986,15.422 C75.986,12.432 72.736,11.886 70.214,11.47 C68.082,11.106 67.094,10.794 67.094,9.806 C67.094,8.74 68.29,7.96 69.72,7.96 C71.618,7.96 72.996,8.87 73.022,10.17 L75.648,10.17 C75.648,7.544 73.152,5.646 69.746,5.646 C66.756,5.646 64.442,7.414 64.442,9.832 C64.442,12.978 66.782,13.368 69.876,13.836 C71.202,14.018 73.256,14.356 73.256,15.734 C73.282,16.826 72.008,17.632 70.24,17.632 C68.264,17.632 66.834,16.488 66.834,14.928 L64.234,14.928 C64.234,17.84 66.756,19.946 70.24,19.946 Z M85.71,19.92 C89.922,19.92 92.886,16.982 92.886,12.796 C92.886,8.61 89.922,5.672 85.71,5.672 C81.472,5.672 78.534,8.61 78.534,12.796 C78.534,16.982 81.472,19.92 85.71,19.92 Z M85.71,17.398 C83.162,17.398 81.368,15.474 81.368,12.796 C81.368,10.118 83.162,8.194 85.71,8.194 C88.232,8.194 90.078,10.118 90.078,12.796 C90.078,15.474 88.232,17.398 85.71,17.398 Z M102.35,19.92 C105.6,19.92 108.382,17.814 108.928,14.928 L106.224,14.59 C105.756,16.28 104.222,17.502 102.35,17.502 C99.984,17.502 98.19,15.526 98.164,12.796 C98.164,10.066 100.01,8.09 102.35,8.09 C104.17,8.09 105.782,9.312 106.198,11.028 L108.902,10.69 C108.434,7.778 105.678,5.672 102.324,5.672 C98.294,5.672 95.356,8.662 95.356,12.796 C95.356,16.93 98.294,19.92 102.35,19.92 Z M113.816,4.06 C114.83,4.06 115.558,3.332 115.558,2.318 C115.558,1.33 114.83,0.628 113.816,0.628 C112.776,0.628 112.048,1.33 112.048,2.318 C112.048,3.332 112.776,4.06 113.816,4.06 Z M115.22,19.4 L115.22,6.192 L112.412,6.192 L112.412,19.4 L115.22,19.4 Z M125.308,19.92 C127.362,19.92 129.104,18.984 130.222,17.424 L130.222,19.4 L133.056,19.4 L133.056,6.192 L130.222,6.192 L130.222,8.168 C129.104,6.608 127.362,5.672 125.308,5.672 C121.434,5.672 118.678,8.662 118.678,12.796 C118.678,16.93 121.434,19.92 125.308,19.92 Z M125.854,17.398 C123.332,17.398 121.486,15.448 121.486,12.796 C121.486,10.118 123.332,8.194 125.854,8.194 C128.376,8.194 130.196,10.118 130.196,12.796 C130.196,15.474 128.376,17.398 125.854,17.398 Z M139.608,19.4 L139.608,0.212 L136.8,0.212 L136.8,19.4 L139.608,19.4 Z" id="easysocial"></path>
        </g>
        <g id="easysocial-128" transform="translate(0.000000, 0.000000)" fill="#71BBE6" fill-rule="nonzero">
            <path d="M21.697646,15.459326 C21.4991681,15.3417827 21.2813628,15.2881134 21.0672743,15.2918929 C20.8531858,15.2881134 20.6353805,15.3417827 20.4369027,15.459326 L17.2155398,17.3668535 L16.6037522,17.7293102 L28.7398938,24.8816882 L28.7398938,24.8779087 L35.407115,28.8199559 L35.407115,31.0343811 L35.4078584,31.2214677 C35.3974513,31.5956409 35.2967257,31.9626331 35.1168319,32.2888063 L35.1231504,32.2925858 C34.9328496,32.6327433 34.6563186,32.9286803 34.2991327,33.1407118 L28.266,36.7127433 L28.266,36.7134992 L22.2458761,40.2784252 C21.8741947,40.4976378 21.4672035,40.5977953 21.067646,40.5906142 C20.6673451,40.5977953 20.260354,40.4976378 19.8894159,40.2784252 L13.869292,36.7134992 L13.869292,36.7127433 L7.83615929,33.1407118 C7.47897345,32.9286803 7.20169912,32.6327433 7.01176991,32.2925858 L7.0180885,32.2888063 C6.83819469,31.9626331 6.73746903,31.5956409 6.72706195,31.2214677 L6.72780531,31.147389 L6.72706195,31.147389 L6.72706195,24.6719244 L14.4606372,29.2436409 L14.4710442,29.2281449 L17.2155398,30.8537197 L17.2155398,30.8544756 L20.4369027,32.7612472 C20.6353805,32.8784126 20.8531858,32.9324598 21.0672743,32.9286803 C21.2813628,32.9324598 21.4991681,32.8784126 21.697646,32.7612472 L24.9193805,30.8544756 L24.9193805,30.8537197 L25.2672743,30.6477354 L13.3942832,23.6733732 L13.3786726,23.6574992 L10.1985664,21.7907906 L6.72706195,19.7645858 L6.72706195,17.0516409 L6.72743363,17.0516409 L6.72706195,16.9998614 C6.73746903,16.6256882 6.83819469,16.2586961 7.0180885,15.9321449 L7.01176991,15.9283654 C7.20169912,15.5878299 7.47897345,15.2918929 7.83615929,15.0806173 L13.869292,11.5078299 L13.869292,11.507452 L19.8894159,7.94297953 C20.260354,7.72301102 20.6673451,7.62285354 21.067646,7.63003465 C21.4672035,7.62285354 21.8741947,7.72301102 22.2458761,7.94297953 L28.266,11.507452 L28.266,11.5078299 L34.2991327,15.0806173 C34.6563186,15.2918929 34.9328496,15.5878299 35.1231504,15.9283654 L35.1168319,15.9321449 C35.2967257,16.2586961 35.3974513,16.6256882 35.4078584,16.9998614 L35.407115,17.1861921 L35.407115,23.530885 L33.4680531,22.3679244 L26.1745487,18.1106646 L24.9193805,17.3668535 L21.697646,15.459326 Z M41.7792212,34.1112945 L41.7792212,14.1089008 L41.7799646,13.8397984 C41.765469,13.299326 41.6205133,12.7690583 41.3603363,12.2973732 L41.3707434,12.2924598 C41.0953274,11.8003654 40.6953982,11.3725228 40.1795044,11.067515 L31.4643186,5.90732598 L31.4650619,5.90694803 L22.7692035,0.758097638 C22.2332389,0.440617323 21.6452389,0.295861417 21.067646,0.306444094 C20.4896814,0.295861417 19.9020531,0.440617323 19.3660885,0.758097638 L10.6706018,5.90694803 L10.6706018,5.90732598 L1.95578761,11.067515 C1.44026549,11.3725228 1.03959292,11.8003654 0.765663717,12.2924598 L0.775327434,12.2973732 C0.514778761,12.7690583 0.369451327,13.299326 0.354584071,13.8397984 L0.354584071,13.9146331 L0.354584071,13.9146331 L0.354584071,34.2760819 L0.355699115,34.2760819 L0.354584071,34.3807748 C0.369451327,34.9212472 0.514778761,35.451137 0.775327434,35.922822 L0.765663717,35.9288693 C1.03959292,36.4198299 1.44026549,36.8476724 1.95578761,37.1526803 L10.6706018,42.3133228 L10.6706018,42.3140787 L19.3660885,47.4629291 C19.9020531,47.7796535 20.4896814,47.9244094 21.067646,47.9142047 C21.6452389,47.9244094 22.2332389,47.7796535 22.7692035,47.4629291 L31.4650619,42.3140787 L31.4643186,42.3133228 L40.1795044,37.1526803 C40.6953982,36.8476724 41.0953274,36.4198299 41.3707434,35.9288693 L41.3603363,35.922822 C41.6205133,35.451137 41.765469,34.9212472 41.7799646,34.3807748 L41.7792212,34.1112945 Z" id="Shape"></path>
        </g>
    </g>
</svg>