<?xml version="1.0" encoding="UTF-8"?>
<svg width="170px" height="48px" viewBox="0 0 170 48" version="1.1" xmlns="http://www.w3.org/2000/svg" xmlns:xlink="http://www.w3.org/1999/xlink">
    <title>easyblog-white</title>
    <g id="easyblog-white" stroke="none" stroke-width="1" fill="none" fill-rule="evenodd">
        <g id="Group" fill-rule="nonzero">
            <path d="M58.346,31.52 C61.362,31.52 64.092,29.648 64.846,27.048 L62.194,26.658 C61.7,28.114 60.062,29.154 58.294,29.154 C56.136,29.154 54.498,27.594 54.16,25.254 L65.288,25.28 C65.314,24.968 65.34,24.578 65.34,24.266 C65.34,20.184 62.428,17.272 58.32,17.272 C54.212,17.272 51.248,20.184 51.248,24.24 C51.248,28.478 54.212,31.52 58.346,31.52 Z M62.402,23.174 L54.186,23.174 C54.55,21.068 56.11,19.638 58.242,19.638 C60.426,19.638 62.09,21.094 62.402,23.174 Z M74.466,31.52 C76.52,31.52 78.262,30.584 79.38,29.024 L79.38,31 L82.214,31 L82.214,17.792 L79.38,17.792 L79.38,19.768 C78.262,18.208 76.52,17.272 74.466,17.272 C70.592,17.272 67.836,20.262 67.836,24.396 C67.836,28.53 70.592,31.52 74.466,31.52 Z M75.012,28.998 C72.49,28.998 70.644,27.048 70.644,24.396 C70.644,21.718 72.49,19.794 75.012,19.794 C77.534,19.794 79.354,21.718 79.354,24.396 C79.354,27.074 77.534,28.998 75.012,28.998 Z M91.548,31.546 C94.902,31.546 97.294,29.648 97.294,27.022 C97.294,24.032 94.044,23.486 91.522,23.07 C89.39,22.706 88.402,22.394 88.402,21.406 C88.402,20.34 89.598,19.56 91.028,19.56 C92.926,19.56 94.304,20.47 94.33,21.77 L96.956,21.77 C96.956,19.144 94.46,17.246 91.054,17.246 C88.064,17.246 85.75,19.014 85.75,21.432 C85.75,24.578 88.09,24.968 91.184,25.436 C92.51,25.618 94.564,25.956 94.564,27.334 C94.59,28.426 93.316,29.232 91.548,29.232 C89.572,29.232 88.142,28.088 88.142,26.528 L85.542,26.528 C85.542,29.44 88.064,31.546 91.548,31.546 Z M102.806,36.876 C105.614,36.876 106.784,34.354 107.928,31.312 L113.102,17.792 L110.138,17.792 L106.55,27.542 L102.416,17.792 L99.322,17.792 L105.276,31.052 C104.6,32.69 104.054,34.51 102.234,34.51 C101.714,34.51 101.064,34.354 100.492,34.146 L100.492,36.434 C101.168,36.72 102.052,36.876 102.806,36.876 Z M123.268,31.52 C127.09,31.52 129.898,28.53 129.898,24.396 C129.898,20.262 127.116,17.272 123.268,17.272 C121.292,17.272 119.602,18.13 118.484,19.586 L118.484,11.812 L115.65,11.812 L115.65,31 L118.406,31 L118.406,29.154 C119.55,30.636 121.24,31.52 123.268,31.52 Z M122.722,28.868 C120.2,28.868 118.38,26.97 118.38,24.396 C118.38,21.822 120.2,19.924 122.722,19.924 C125.244,19.924 127.09,21.822 127.09,24.396 C127.09,27.022 125.218,28.868 122.722,28.868 Z M135.826,31 L135.826,11.812 L133.018,11.812 L133.018,31 L135.826,31 Z M146.096,31.52 C150.308,31.52 153.272,28.582 153.272,24.396 C153.272,20.21 150.308,17.272 146.096,17.272 C141.858,17.272 138.92,20.21 138.92,24.396 C138.92,28.582 141.858,31.52 146.096,31.52 Z M146.096,28.998 C143.548,28.998 141.754,27.074 141.754,24.396 C141.754,21.718 143.548,19.794 146.096,19.794 C148.618,19.794 150.464,21.718 150.464,24.396 C150.464,27.074 148.618,28.998 146.096,28.998 Z M163.074,37.5 C167.104,37.5 169.99,35.03 169.99,30.766 L169.99,17.792 L167.182,17.792 L167.182,19.586 C166.064,18.182 164.452,17.324 162.398,17.324 C158.55,17.324 155.742,20.288 155.742,24.396 C155.742,28.4 158.55,31.26 162.398,31.26 C164.374,31.26 166.038,30.454 167.156,29.05 L167.156,30.74 C167.156,33.522 165.414,35.108 162.97,35.108 C161.046,35.108 159.33,33.782 158.888,31.962 L156.288,32.274 C156.756,35.316 159.616,37.5 163.074,37.5 Z M162.918,28.842 C160.396,28.842 158.55,26.97 158.55,24.396 C158.55,21.718 160.396,19.794 162.918,19.794 C165.44,19.794 167.26,21.718 167.26,24.396 C167.26,26.97 165.44,28.842 162.918,28.842 Z" id="easyblog" fill="#FFFFFF"></path>
            <g id="easyblog-128">
                <path d="M28.9992222,27.3513266 L28.9992222,19.6277558 L29,19.5241739 C28.9937778,19.3150334 28.937778,19.1102417 28.837445,18.9279851 L28.8413339,18.9260083 C28.7347787,18.73624 28.5807792,18.5713788 28.380891,18.4531689 L25.0154583,16.4609968 L21.6574144,14.4727783 C21.4501373,14.3498242 21.223027,14.2944751 20.9998056,14.2978723 C20.776973,14.2944751 20.5498627,14.3498242 20.3425856,14.4727783 L16.9845417,16.4609968 L13.6183312,18.4531689 C13.4192208,18.5713788 13.2644435,18.73624 13.159055,18.9260083 L13.162555,18.9279851 C13.0626109,19.1102417 13.0062222,19.3150334 13,19.5241739 L13.0007778,19.5526391 L13,19.5526391 L13,27.4145827 L13.0007778,27.4145827 L13,27.4556992 C13.0062222,27.664049 13.0626109,27.8688406 13.162555,28.0510973 L13.159055,28.0522833 C13.2644435,28.242447 13.4192208,28.4077036 13.6183312,28.5251227 L16.9845417,30.5180855 L16.9845417,30.5188762 L20.3425856,32.506304 C20.5498627,32.6292581 20.776973,32.6846072 20.9998056,32.6806537 C21.223027,32.6846072 21.4501373,32.6292581 21.6574144,32.506304 L25.0154583,30.5188762 L25.0154583,30.5180855 L28.380891,28.5251227 C28.5807792,28.4077036 28.7347787,28.242447 28.8413339,28.0522833 L28.837445,28.0510973 C28.937778,27.8688406 28.9937778,27.664049 29,27.4556992 L28.9992222,27.3513266 Z" id="Shape" fill="#FCD32F"></path>
                <path d="M41.9992436,34.0836363 L41.9992436,13.9165469 L42,13.6454089 C41.9852508,13.1000733 41.837381,12.5658281 41.5745432,12.0900936 L41.5839978,12.0847396 C41.3056545,11.5891191 40.9002414,11.1577457 40.3764568,10.849895 L31.54091,5.64740928 L31.5416664,5.64740928 L22.7250667,0.456013843 C22.1823729,0.135925594 21.5859769,-0.010160083 21.0005484,0.000547767649 C20.4147416,-0.010160083 19.8187239,0.135925594 19.2748955,0.456013843 L13.2201723,4.02096326 L13.2201723,11.5776464 L13.7027349,11.2938884 L19.8058656,7.6998748 C20.1821585,7.47845174 20.5940007,7.37710958 21.0005484,7.38475805 C21.4052051,7.37710958 21.8181818,7.47845174 22.1940966,7.6998748 L28.2979836,11.2938884 L34.414729,14.8955504 C34.7774451,15.1089426 35.0576793,15.4072327 35.2509313,15.7510312 L35.2445022,15.754473 C35.4267868,16.0841218 35.52814,16.4535427 35.5391074,16.8309944 L35.5375946,17.0187642 L35.5375946,30.9810366 L35.5391074,31.1691888 C35.52814,31.5462582 35.4267868,31.9160614 35.2445022,32.2453278 L35.2509313,32.2491521 C35.0576793,32.5921857 34.7774451,32.8908583 34.414729,33.1042504 L28.2979836,36.7059125 L22.1940966,40.3009968 C21.8181818,40.5212726 21.4052051,40.6222324 21.0005484,40.6153487 C20.5940007,40.6222324 20.1821585,40.5212726 19.8058656,40.3009968 L13.7027349,36.7059125 L7.58523318,33.1042504 C7.22331125,32.8908583 6.94194248,32.5921857 6.74982509,32.2491521 L6.7566324,32.2453278 C6.57396961,31.9160614 6.47148179,31.5462582 6.46089264,31.1691888 L6.46164901,31.0953812 L6.46089264,31.0953812 L6.46089264,8.00160673 L1.6235432,10.849895 C1.10051496,11.1577457 0.695101889,11.5891191 0.416758586,12.0847396 L0.426213182,12.0900936 C0.162619049,12.5658281 0.0147491696,13.1000733 0,13.6454089 L0.00075636767,13.7207462 L0,13.7207462 L0,34.2488432 L0.00075636767,34.2488432 L0,34.3547744 C0.0147491696,34.9001099 0.162619049,35.4347376 0.426213182,35.9097073 L0.416758586,35.9150612 C0.695101889,36.4102993 1.10051496,36.8420551 1.6235432,37.1499058 L10.458674,42.3526975 L10.458674,42.3534623 L19.2748955,47.5437105 C19.8187239,47.8634163 20.4147416,48.0091196 21.0005484,48 C21.5859769,48.0091196 22.1823729,47.8634163 22.7250667,47.5437105 L31.5416664,42.3534623 L31.54091,42.3526975 L40.3764568,37.1499058 C40.9002414,36.8420551 41.3056545,36.4102993 41.5839978,35.9150612 L41.5745432,35.9097073 C41.837381,35.4347376 41.9852508,34.9001099 42,34.3547744 L41.9992436,34.0836363 Z" id="Shape" fill="#FCD04B"></path>
            </g>
        </g>
    </g>
</svg>