<?xml version="1.0" encoding="UTF-8"?>
<svg width="64px" height="64px" viewBox="0 0 64 64" version="1.1" xmlns="http://www.w3.org/2000/svg" xmlns:xlink="http://www.w3.org/1999/xlink">
    <title>like</title>
    <g id="like" stroke="none" stroke-width="1" fill="none" fill-rule="evenodd">
        <g id="Group">
            <rect id="Base" x="0" y="0" width="64" height="64"></rect>
            <g id="1f44d" transform="translate(3.200000, 0.000000)" fill-rule="nonzero">
                <path d="M57.5217778,31.8506667 C57.5217778,30.9564444 57.3084444,30.1173333 56.9511111,29.3546667 C54.5671111,21.664 43.4062222,22.2257778 27.5306667,21.8506667 C24.8764444,21.7884444 26.3946667,18.6542222 27.3262222,11.7742222 C27.9324444,7.29955556 25.0471111,0.428444444 20.1973333,0.428444444 C12.2008889,0.428444444 19.8933333,6.736 12.8231111,22.3342222 C9.04533333,30.6684444 0.600888889,26 0.600888889,34.3715556 L0.600888889,53.4275556 C0.600888889,56.6862222 0.920888889,59.8186667 5.504,60.3342222 C9.94666667,60.8337778 8.94755556,64 15.3564444,64 L47.4346667,64 C50.7022222,64 53.36,61.3404444 53.36,58.0728889 C53.36,56.7182222 52.8853333,55.4844444 52.1191111,54.4853333 C53.9324444,53.4702222 55.1768889,51.5537778 55.1768889,49.3315556 C55.1768889,47.9804444 54.704,46.7466667 53.9395556,45.7493333 C55.7582222,44.736 57.0062222,42.8177778 57.0062222,40.592 C57.0062222,38.976 56.352,37.5111111 55.2977778,36.4391111 C56.6435556,35.3528889 57.5217778,33.7102222 57.5217778,31.8506667 Z" id="Path" fill="#FFDB5E"></path>
                <path d="M36.3022222,37.776 L51.5982222,37.776 C53.6782222,37.776 55.6302222,36.6631111 56.6933333,34.8728889 C57.1306667,34.1351111 56.8871111,33.1804444 56.1475556,32.7413333 C55.4097778,32.3022222 54.4551111,32.5493333 54.016,33.2871111 C53.5128889,34.1386667 52.5831111,34.6648889 51.5964444,34.6648889 L35.9342222,34.6648889 C34.3822222,34.6648889 33.12,33.4026667 33.12,31.8506667 C33.12,30.2986667 34.3822222,29.0364444 35.9342222,29.0364444 L46.4,29.0364444 C47.2586667,29.0364444 47.9555556,28.3395556 47.9555556,27.4808889 C47.9555556,26.6222222 47.2586667,25.9253333 46.4,25.9253333 L35.9324444,25.9253333 C32.6648889,25.9253333 30.0071111,28.5831111 30.0071111,31.8506667 C30.0071111,33.6728889 30.8515556,35.2853333 32.1493333,36.3733333 C31.056,37.4488889 30.3751111,38.9422222 30.3751111,40.592 C30.3751111,42.4195556 31.2248889,44.0373333 32.5297778,45.1235556 C31.4435556,46.1973333 30.7697778,47.6853333 30.7697778,49.3315556 C30.7697778,51.3226667 31.7635556,53.0791111 33.2746667,54.1546667 C32.3431111,55.2017778 31.76,56.5653333 31.76,58.0728889 C31.76,61.3404444 34.4177778,63.9982222 37.6853333,63.9982222 L47.4346667,63.9982222 C49.5146667,63.9982222 51.4684444,62.8871111 52.5315556,61.0968889 C52.9706667,60.3591111 52.7271111,59.4044444 51.9893333,58.9653333 C51.2497778,58.5297778 50.2951111,58.7697778 49.8577778,59.5075556 C49.3511111,60.3591111 48.4213333,60.8871111 47.4346667,60.8871111 L37.6853333,60.8871111 C36.1333333,60.8871111 34.8711111,59.6248889 34.8711111,58.0728889 C34.8711111,56.5208889 36.1333333,55.2586667 37.6853333,55.2586667 L49.2515556,55.2586667 C51.3315556,55.2586667 53.2871111,54.1457778 54.3484444,52.3555556 C54.7875556,51.616 54.544,50.6613333 53.8062222,50.224 C53.0613333,49.7777778 52.1102222,50.0284444 51.6746667,50.7662222 C51.1608889,51.632 50.2542222,52.1475556 49.2515556,52.1475556 L36.6951111,52.1475556 C35.1431111,52.1475556 33.8808889,50.8835556 33.8808889,49.3315556 C33.8808889,47.7795556 35.1431111,46.5173333 36.6951111,46.5173333 L51.0791111,46.5173333 C53.1591111,46.5173333 55.1128889,45.4062222 56.176,43.616 C56.6151111,42.8782222 56.3715556,41.9235556 55.6337778,41.4844444 C54.8924444,41.0471111 53.9395556,41.2888889 53.5022222,42.0266667 C52.9884444,42.8906667 52.0817778,43.4062222 51.0791111,43.4062222 L36.3022222,43.4062222 C34.7502222,43.4062222 33.488,42.144 33.488,40.592 C33.488,39.04 34.7484444,37.776 36.3022222,37.776 L36.3022222,37.776 Z" id="Path" fill="#EE9547"></path>
            </g>
        </g>
    </g>
</svg>