<?xml version="1.0" encoding="UTF-8"?>
<svg width="64px" height="64px" viewBox="0 0 64 64" version="1.1" xmlns="http://www.w3.org/2000/svg" xmlns:xlink="http://www.w3.org/1999/xlink">
    <title>sad</title>
    <g id="sad" stroke="none" stroke-width="1" fill="none" fill-rule="evenodd">
        <g id="Group">
            <rect id="Base" x="0" y="0" width="64" height="64"></rect>
            <g id="1f622" fill-rule="nonzero">
                <path d="M64,32 C64,49.6728889 49.6728889,64 32,64 C14.3288889,64 0,49.6728889 0,32 C0,14.3288889 14.3288889,0 32,0 C49.6728889,0 64,14.3288889 64,32" id="Path" fill="#FFCC4D"></path>
                <ellipse id="Oval" fill="#664500" cx="20.4444444" cy="30.2222222" rx="4.44444444" ry="6.22222222"></ellipse>
                <ellipse id="Oval" fill="#664500" cx="43.5555556" cy="30.2222222" rx="4.44444444" ry="6.22222222"></ellipse>
                <path d="M10.6648889,24 C10.2951111,24 9.92,23.8844444 9.6,23.6444444 C8.81422222,23.056 8.656,21.9413333 9.24444444,21.1555556 C15.0435556,13.4222222 22.784,13.3333333 23.1111111,13.3333333 C24.0924444,13.3333333 24.8888889,14.1297778 24.8888889,15.1111111 C24.8888889,16.0906667 24.0977778,16.8853333 23.1182222,16.8888889 C22.8426667,16.8924444 16.7751111,17.0417778 12.0888889,23.2888889 C11.7404444,23.7546667 11.2053333,24 10.6648889,24 Z M53.3351111,24 C52.7928889,24 52.2613333,23.7546667 51.9111111,23.2888889 C47.216,17.0293333 41.136,16.8906667 40.8782222,16.8888889 C39.9004444,16.8782222 39.1111111,16.0782222 39.1164176,15.1022222 C39.1217778,14.1226667 39.9111111,13.3333333 40.8888889,13.3333333 C41.216,13.3333333 48.9546667,13.4222222 54.7555556,21.1555556 C55.3457778,21.9413333 55.1857778,23.056 54.4,23.6444444 C54.08,23.8844444 53.7066667,24 53.3351111,24 L53.3351111,24 Z M41.7511111,50.4515556 C41.7315556,50.3733333 39.7155556,42.6666667 32,42.6666667 C24.2844444,42.6666667 22.2684444,50.3733333 22.2488889,50.4515556 C22.1546667,50.8302222 22.3271111,51.2177778 22.6613333,51.4186667 C22.9955556,51.6177778 23.4311111,51.5715556 23.7208889,51.312 C23.7368889,51.2977778 25.5217778,49.7777778 32,49.7777778 C38.3822222,49.7777778 40.208,51.2533333 40.2773333,51.312 C40.4462222,51.472 40.6666667,51.5555556 40.8888889,51.5555556 C41.0382222,51.5555556 41.1893333,51.5182222 41.3262222,51.4417778 C41.6746667,51.2426667 41.8488889,50.8391111 41.7511111,50.4515556 L41.7511111,50.4515556 Z" id="Shape" fill="#664500"></path>
                <path d="M28.4444444,55.1111111 C28.4444444,60.0213333 24.4657778,64 19.5555556,64 C14.6453333,64 10.6666667,60.0213333 10.6666667,55.1111111 C10.6666667,50.2008889 17.7777778,37.3333333 19.5555556,37.3333333 C21.3333333,37.3333333 28.4444444,50.2008889 28.4444444,55.1111111 Z" id="Path" fill="#5DADEC"></path>
            </g>
        </g>
    </g>
</svg>