<svg width="72" height="32" viewBox="0 0 72 32" fill="none" xmlns="http://www.w3.org/2000/svg">
<rect x="0.5" y="0.5" width="71" height="31" rx="5.5" fill="white"/>
<path d="M63.9868 12.8337L64 12.8191H61.9077L60.5864 17.3993H60.5163L58.9993 12.8191H56.5128L59.5045 20.3778L58.2547 22.6817V22.7373H60.2068L63.9868 12.8337Z" fill="black"/>
<path d="M40.7911 12.8191H38.5718V20.35H40.7911V12.8191Z" fill="black"/>
<path d="M56.0763 18.4666V15.3201C56.0763 13.6061 55.0645 12.6644 53.2803 12.6644C52.1416 12.6644 51.3559 12.8614 49.9223 13.2966L50.3151 15.0252C51.6218 14.4353 52.1971 14.1827 52.8015 14.1827C53.5316 14.1827 53.8557 14.7025 53.8557 15.504V15.5595C51.3123 16.037 50.5254 16.3042 50.0347 16.7962C49.6696 17.1612 49.5149 17.681 49.5149 18.2854C49.5149 19.7323 50.6391 20.5047 51.6919 20.5047C52.4788 20.5047 53.111 20.2098 53.9681 19.563L54.1228 20.35H56.3421L56.0763 18.4666ZM53.857 18.5235C53.2671 18.8462 52.9298 18.9731 52.537 18.9731C52.0027 18.9731 51.6654 18.6213 51.6654 18.0606C51.6654 17.8503 51.7078 17.6386 51.8757 17.4707C52.1429 17.2035 52.6627 17.0064 53.857 16.7261V18.5235Z" fill="black"/>
<path d="M46.3129 12.6644C45.4982 12.6644 44.866 12.9739 44.1491 13.5637V12.8191H41.9298V22.7373H44.1491V20.2786C44.571 20.391 44.9638 20.4478 45.4413 20.4478C47.4225 20.4478 49.2067 18.9864 49.2067 16.3875C49.2067 14.0557 47.9146 12.6644 46.3129 12.6644ZM44.907 19.0565C44.6544 19.0565 44.415 19.0287 44.1478 18.9441V14.8705C44.612 14.5477 44.9903 14.393 45.4678 14.393C46.297 14.393 46.957 15.053 46.957 16.4589C46.9583 18.2563 45.9889 19.0565 44.907 19.0565Z" fill="black"/>
<path d="M19.7592 8.93996H10.2431C9.00385 8.93996 8 9.95316 8 11.2017V20.7984C8 22.047 9.00385 23.0601 10.2431 23.0601H19.7592C20.9985 23.0601 22.001 22.047 22.001 20.7984V11.2017C22.0023 9.95176 20.9985 8.93996 19.7592 8.93996Z" fill="#1677FF"/>
<path d="M19.5277 17.8066C18.9683 17.6175 18.2157 17.3278 17.3785 17.0223C17.8811 16.1401 18.2831 15.1363 18.5477 14.0452H15.7874V13.0426H19.168V12.4832H15.7874V10.8114H14.4079C14.1659 10.8114 14.1659 11.0521 14.1659 11.0521V12.4818H10.747V13.0413H14.1659V14.0438H11.3422V14.6033H16.8177C16.618 15.299 16.3482 15.9537 16.0294 16.5475C14.2532 15.9563 12.3566 15.4775 11.1663 15.7725C10.4044 15.9616 9.91376 16.2989 9.62544 16.6533C8.30284 18.2761 9.25114 20.7415 12.0445 20.7415C13.6964 20.7415 15.2875 19.813 16.5201 18.2828C18.3599 19.1742 22.001 20.7057 22.001 20.7057V18.5235C22.0023 18.5235 21.5447 18.4864 19.5277 17.8066ZM11.7839 19.7984C9.6056 19.7984 8.96149 18.0685 10.0381 17.1215C10.3978 16.8014 11.0538 16.6454 11.403 16.611C12.6965 16.4827 13.8948 16.98 15.3086 17.6757C14.3154 18.9824 13.0496 19.7984 11.7839 19.7984Z" fill="white"/>
<path d="M30.9431 10.4451H27.9646L24.6356 20.35H26.687L27.2491 18.411H30.7751L31.3094 20.35H33.9361L30.9431 10.4451ZM27.712 16.7948L29.0319 12.2292H29.0875L30.3373 16.7948H27.712Z" fill="black"/>
<path d="M37.0534 10.0932H34.8341V20.3487H37.0534V10.0932Z" fill="black"/>
<path d="M38.4025 11.0072C38.4025 11.7372 38.9368 12.2292 39.6814 12.2292C40.426 12.2292 40.9604 11.7372 40.9604 11.0072C40.9604 10.2903 40.426 9.78514 39.6814 9.78514C38.9368 9.78514 38.4025 10.2903 38.4025 11.0072Z" fill="#1677FF"/>
<rect x="0.5" y="0.5" width="71" height="31" rx="5.5" stroke="#D9D9D9"/>
</svg>
