<svg width="74" height="32" viewBox="0 0 74 32" fill="none" xmlns="http://www.w3.org/2000/svg">
<rect x="0.5" y="0.5" width="73" height="31" rx="5.5" fill="#1F72CD"/>
<path fill-rule="evenodd" clip-rule="evenodd" d="M14.5457 9L8 22.9821H15.8362L16.8077 20.7527H19.0282L19.9996 22.9821H28.6251V21.2806L29.3937 22.9821H33.8555L34.624 21.2446V22.9821H52.5626L54.744 20.8106L56.7863 22.9821L66 23L59.4336 16.0301L66 9H56.9293L54.8059 11.1313L52.8278 9H33.313L31.6372 12.6089L29.9221 9H22.1023V10.6436L21.2324 9H14.5457ZM41.3334 10.9855H51.6346L54.7852 14.2705L58.0375 10.9855H61.1881L56.401 16.0281L61.1881 21.0126H57.8945L54.744 17.6895L51.4751 21.0126H41.3334V10.9855ZM43.8772 14.8943V13.0628V13.0611H50.3049L53.1095 15.9901L50.1805 18.9352H43.8772V16.9357H49.497V14.8943H43.8772ZM16.062 10.9855H19.8818L24.2235 20.4668V10.9855H28.4079L31.7615 17.7835L34.8521 10.9855H39.0156V21.0185H36.4822L36.4615 13.1567L32.7682 21.0185H30.5019L26.7878 13.1567V21.0185H21.5762L20.5881 18.7693H15.25L14.2641 21.0166H11.4717L16.062 10.9855ZM16.1615 16.6899L17.9202 12.683L19.6768 16.6899H16.1615Z" fill="white"/>
<rect x="0.5" y="0.5" width="73" height="31" rx="5.5" stroke="#1F72CD"/>
</svg>
