<svg width="96" height="32" viewBox="0 0 96 32" fill="none" xmlns="http://www.w3.org/2000/svg">
<rect x="0.5" y="0.5" width="95" height="31" rx="5.5" fill="white"/>
<path d="M11.2708 13.8503C11.5696 13.8503 11.8577 13.9059 12.1352 14.0059C12.4019 14.1059 12.6474 14.2726 12.8501 14.4726V14.3504C12.8395 14.1837 12.9675 14.0392 13.1276 14.0281H14.803C14.9631 14.017 15.1018 14.1503 15.1125 14.317V20.4399C15.1125 20.5177 15.0805 20.6066 15.0271 20.6622C14.9737 20.7288 14.899 20.7622 14.8137 20.7622H13.1703C13.0849 20.7622 13.0102 20.7288 12.9462 20.6622C12.8928 20.6288 12.8501 20.551 12.8501 20.4621V20.351C12.6474 20.5622 12.4019 20.7177 12.1352 20.8288C11.8577 20.94 11.5696 20.9844 11.2708 20.9844C10.3851 20.9955 9.54201 20.6177 8.94442 19.951C7.68519 18.5175 7.68519 16.3172 8.94442 14.8838C9.54201 14.2059 10.3957 13.8281 11.2708 13.8503ZM10.7726 16.3256L10.6732 16.4173L10.6518 16.4395C10.3957 16.6951 10.2677 17.0507 10.2677 17.4174C10.257 18.173 10.8333 18.7842 11.5589 18.7953C11.9004 18.7953 12.2312 18.6619 12.4766 18.4175L12.498 18.3952C12.9995 17.8507 12.9995 16.984 12.498 16.4395C12.0278 15.9394 11.2856 15.8984 10.7726 16.3256Z" fill="#1D3242"/>
<path d="M19.0929 18.8842C19.3383 18.9064 19.5945 18.8064 19.7652 18.6175C19.9359 18.3952 20.0106 18.1174 19.9893 17.8396V14.3281C19.9893 14.2503 20.032 14.1726 20.0853 14.1281C20.1494 14.0726 20.2241 14.0392 20.2988 14.0392H21.9315C22.0169 14.0392 22.0916 14.0726 22.1556 14.1281C22.2196 14.1726 22.2516 14.2503 22.2516 14.3281V18.1619C22.273 18.9397 21.9635 19.6843 21.3979 20.1954C20.7576 20.7511 19.9359 21.04 19.1036 20.9955C18.2605 21.04 17.4282 20.7511 16.7665 20.1954C16.1903 19.6954 15.8701 18.9509 15.8915 18.173V14.3281C15.8915 14.2503 15.9235 14.1726 15.9875 14.1281C16.0409 14.0726 16.1263 14.0392 16.201 14.0392H17.8443C17.9297 14.0392 18.0044 14.0726 18.0684 14.1281C18.1325 14.1726 18.1645 14.2503 18.1645 14.3281V17.8396C18.1431 18.1174 18.2285 18.4064 18.4099 18.6175C18.5807 18.8064 18.8368 18.9064 19.0929 18.8842Z" fill="#1D3242"/>
<path d="M25.9759 20.9178C25.357 20.9511 24.7594 20.74 24.2792 20.3399C23.8523 19.9288 23.6176 19.3398 23.6496 18.7397V15.995H22.9773C22.8919 15.995 22.8172 15.9617 22.7639 15.895C22.7105 15.8283 22.6785 15.7505 22.6785 15.6616V15.1727C22.6785 15.0505 22.6892 14.9393 22.7212 14.8282C22.7532 14.7282 22.7959 14.6504 22.8706 14.5726L24.4819 12.7169C24.578 12.5946 24.6954 12.4946 24.8234 12.4168C24.9301 12.3613 25.0582 12.339 25.1756 12.3502H25.6131C25.6878 12.3502 25.7732 12.3835 25.8265 12.4391C25.8799 12.4946 25.9119 12.5724 25.9119 12.6613V14.0503H27.3312C27.4059 14.0503 27.4913 14.0837 27.5446 14.1392C27.598 14.1948 27.63 14.2726 27.63 14.3615V15.6616C27.63 15.7505 27.598 15.8283 27.5446 15.895C27.4913 15.9506 27.4166 15.9839 27.3312 15.995H25.9119V18.2397C25.9012 18.3842 25.9546 18.5175 26.04 18.6286C26.136 18.7286 26.2534 18.7731 26.3921 18.7731C26.4882 18.7731 26.5735 18.7509 26.6696 18.7175C26.787 18.6731 26.8937 18.6175 27.0004 18.5508C27.0964 18.4842 27.2031 18.4508 27.3205 18.473C27.4272 18.5064 27.5126 18.5731 27.566 18.6731L28.1422 19.5621C28.2063 19.651 28.2383 19.7621 28.2383 19.8621C28.2383 19.9621 28.1956 20.0621 28.1209 20.1288C27.8648 20.3955 27.5446 20.5844 27.2031 20.7066C26.7976 20.8511 26.3814 20.9178 25.9759 20.9178Z" fill="#1D3242"/>
<path d="M31.9626 15.895C31.6851 15.8839 31.4077 15.995 31.2049 16.195C31.0022 16.4061 30.8954 16.7062 30.9061 17.0062V20.4733C30.9168 20.6399 30.7887 20.7844 30.6287 20.7955H28.9532C28.7932 20.8066 28.6545 20.6733 28.6438 20.5066C28.6438 20.4955 28.6438 20.4844 28.6438 20.4844V11.5834C28.6331 11.4167 28.7612 11.2723 28.9212 11.2723H30.5966C30.7567 11.2611 30.8954 11.3945 30.9061 11.5612V14.8726C31.0982 14.5615 31.3757 14.3059 31.6958 14.1281C32.0373 13.9503 32.4108 13.8614 32.7949 13.8725C33.4886 13.817 34.1716 14.1059 34.6518 14.6282C35.1106 15.2616 35.3347 16.0394 35.2814 16.8284V20.4844C35.292 20.6511 35.164 20.7955 35.0039 20.8066H33.3285C33.1684 20.8177 33.0297 20.6844 33.019 20.5177V17.0284C33.0617 16.4617 32.6455 15.9617 32.1013 15.9172C32.1013 15.9172 32.1013 15.9172 32.0906 15.9172C32.0479 15.895 32.0053 15.895 31.9626 15.895Z" fill="#1D3242"/>
<path d="M35.8256 17.4174C35.8149 16.4617 36.1991 15.5394 36.8714 14.8949C38.3014 13.5058 40.5104 13.5058 41.9403 14.8949C43.2742 16.2061 43.3383 18.3953 42.079 19.7954C42.0364 19.851 41.983 19.8954 41.9403 19.9399C40.5104 21.3289 38.3014 21.3289 36.8714 19.9399C36.1991 19.2953 35.8149 18.373 35.8256 17.4174ZM38.0986 17.4174C38.088 18.173 38.6642 18.7842 39.3899 18.7953C39.7313 18.7953 40.0622 18.6619 40.3076 18.4175L40.3289 18.3952C40.8305 17.8507 40.8305 16.984 40.3289 16.4395C39.8274 15.9061 39.0057 15.895 38.5041 16.4173L38.4828 16.4395C38.2374 16.6951 38.0986 17.0507 38.0986 17.4174Z" fill="#1D3242"/>
<path d="M43.9252 14.0503H45.1097C45.2271 14.0503 45.3445 14.0837 45.4405 14.1503C45.5366 14.217 45.6113 14.317 45.6646 14.4393L45.846 14.8615C46.0488 14.5948 46.3049 14.3615 46.5824 14.1837C46.8065 14.0392 47.0626 13.9503 47.3294 13.9503C47.5428 13.9392 47.7562 13.9948 47.927 14.1281C48.0657 14.2615 48.1297 14.4504 48.087 14.6393L47.9056 16.1728C47.8949 16.3173 47.8416 16.4617 47.7455 16.5728C47.6495 16.6617 47.5321 16.7173 47.4041 16.7062C47.3507 16.7062 47.2973 16.6951 47.2547 16.6951C47.2013 16.684 47.1266 16.6617 47.0199 16.6395C46.9132 16.6173 46.8171 16.5728 46.7531 16.5617C46.6998 16.5506 46.6357 16.5506 46.5824 16.5506C46.401 16.5395 46.2195 16.6062 46.0808 16.7395C45.9528 16.8729 45.8781 17.0618 45.8887 17.2618V20.5177C45.8887 20.5955 45.8567 20.6733 45.7927 20.7177C45.7393 20.7733 45.654 20.8066 45.5793 20.8066H43.9252C43.8398 20.8066 43.7651 20.7733 43.7118 20.7177C43.6584 20.6622 43.6264 20.5733 43.6264 20.4955V14.3837C43.6264 14.3059 43.6584 14.217 43.7118 14.1615C43.7545 14.0726 43.8398 14.0392 43.9252 14.0503Z" fill="#1D3242"/>
<path d="M50.9683 12.2835C50.9683 12.628 50.8296 12.9502 50.5948 13.1836C50.0932 13.6836 49.3036 13.6836 48.8127 13.1836C48.5672 12.9502 48.4285 12.628 48.4392 12.2835C48.4392 11.939 48.5779 11.6167 48.8127 11.3834C49.3036 10.8722 50.1039 10.8722 50.5948 11.3834C50.8296 11.6056 50.9683 11.939 50.9683 12.2835Z" fill="#366BB3"/>
<path d="M57.1364 15.8839L54.5752 18.7731H57.1257C57.2858 18.7731 57.4245 18.8953 57.4245 19.062V20.4733C57.4245 20.6399 57.2964 20.7844 57.1364 20.7844H51.8113C51.726 20.7844 51.6513 20.7511 51.5872 20.6844C51.5232 20.6288 51.4912 20.551 51.4912 20.4621V19.3176C51.4912 19.2509 51.5019 19.1842 51.5232 19.1175C51.5446 19.0509 51.5872 18.9953 51.6299 18.9509L54.2444 16.0617H51.8967C51.726 16.0617 51.5872 15.9172 51.5872 15.7394V14.3726C51.5872 14.1948 51.726 14.0503 51.8967 14.0392H56.9549C57.1257 14.0503 57.2644 14.1948 57.2644 14.3726V15.5172C57.2644 15.5838 57.2537 15.6505 57.2324 15.7172C57.2217 15.7838 57.179 15.8394 57.1364 15.8839Z" fill="#1D3242"/>
<path d="M64.1154 19.6843C63.8166 20.1065 63.4218 20.4288 62.9523 20.6288C62.4187 20.8733 61.8424 20.9844 61.2662 20.9844C60.3271 21.0178 59.4094 20.6622 58.7264 19.9843C58.0648 19.3287 57.7019 18.4064 57.734 17.4507C57.7019 16.495 58.0327 15.5616 58.6624 14.8615C59.3026 14.1837 60.199 13.817 61.1061 13.8503C61.9918 13.817 62.8455 14.1615 63.4752 14.8171C64.0727 15.4394 64.4036 16.3061 64.3822 17.184V17.5729C64.3822 17.6952 64.3609 17.8174 64.2968 17.9285C64.2328 18.0174 64.1368 18.073 64.0301 18.0619H59.9963C60.0496 18.3619 60.2097 18.6286 60.4445 18.8064C60.6899 18.9953 60.9887 19.0842 61.2982 19.0842C61.5116 19.0842 61.7144 19.0398 61.9171 18.962C62.1199 18.862 62.3013 18.7286 62.4614 18.5619C62.5894 18.4064 62.8029 18.3841 62.9629 18.5064L64.0621 19.2509C64.1368 19.2953 64.1795 19.3731 64.1901 19.4509C64.1901 19.5287 64.1688 19.6176 64.1154 19.6843ZM60.0496 16.5395H62.1946C62.1519 16.2839 62.0238 16.0617 61.8318 15.895C61.6397 15.7283 61.3942 15.6394 61.1381 15.6505C60.882 15.6505 60.6366 15.7394 60.4445 15.895C60.2524 16.0617 60.103 16.295 60.0496 16.5395Z" fill="#1D3242"/>
<path d="M67.7757 19.4731C67.7757 20.3066 67.1248 20.9844 66.3244 20.9955C65.5241 20.9955 64.8731 20.3177 64.8624 19.4843C64.8624 18.6508 65.5134 17.973 66.3137 17.9619C67.1141 17.9508 67.7651 18.6286 67.7757 19.4731C67.7757 19.4731 67.7757 19.462 67.7757 19.4731Z" fill="#FDC20B"/>
<path d="M71.7775 15.895C71.5 15.8839 71.2226 15.995 71.0198 16.195C70.8171 16.4062 70.7103 16.7062 70.721 17.0062V20.4733C70.7317 20.6399 70.6036 20.7844 70.4436 20.7955H68.7682C68.6081 20.8066 68.4694 20.6733 68.4587 20.5066V14.3726C68.448 14.2059 68.5761 14.0615 68.7361 14.0503H70.4115C70.5716 14.0392 70.7103 14.1726 70.7103 14.3393V14.3615V14.8504C70.9024 14.5393 71.1799 14.2837 71.5 14.1059C71.8415 13.9281 72.215 13.8392 72.5992 13.8503C73.2928 13.7948 73.9758 14.0837 74.456 14.606C74.9149 15.2394 75.139 16.0172 75.0856 16.8062V20.4621C75.0963 20.6288 74.9682 20.7733 74.8082 20.7844H73.1327C72.9727 20.7955 72.8339 20.6622 72.8339 20.4955C72.8339 20.4844 72.8339 20.4844 72.8339 20.4733V17.0062C72.8766 16.4395 72.4605 15.9394 71.9055 15.9061C71.8522 15.895 71.8095 15.895 71.7775 15.895Z" fill="#1D3242"/>
<path d="M82.0327 19.6843C81.7339 20.1065 81.339 20.4288 80.8695 20.6288C80.3359 20.8733 79.7597 20.9844 79.1834 20.9844C78.2443 21.0178 77.3266 20.6622 76.6436 19.9843C75.982 19.3176 75.6298 18.4064 75.6512 17.4507C75.6192 16.495 75.95 15.5616 76.5796 14.8615C77.2199 14.1837 78.1163 13.817 79.0233 13.8503C79.9091 13.817 80.7628 14.1615 81.3924 14.8171C81.99 15.4394 82.3208 16.3061 82.2995 17.184V17.5729C82.3101 17.6952 82.2781 17.8174 82.2141 17.9285C82.1501 18.0174 82.054 18.073 81.9473 18.0619H77.9029C77.9562 18.3619 78.1163 18.6286 78.3511 18.8064C78.5965 18.9953 78.8953 19.0842 79.2048 19.0842C79.4182 19.0842 79.6316 19.0398 79.8237 18.962C80.0265 18.862 80.2079 18.7286 80.3679 18.5619C80.496 18.4064 80.7094 18.3841 80.8695 18.5064L81.9686 19.2509C82.0433 19.2953 82.086 19.3731 82.0967 19.4509C82.1074 19.5287 82.086 19.6176 82.0327 19.6843ZM77.9669 16.5395H80.1118C80.0691 16.2839 79.9411 16.0617 79.749 15.895C79.5569 15.7283 79.3115 15.6394 79.0554 15.6505C78.7992 15.6505 78.5538 15.7394 78.3617 15.895C78.1696 16.0617 78.0202 16.2839 77.9669 16.5395Z" fill="#1D3242"/>
<path d="M85.789 20.9178C85.1701 20.9511 84.5725 20.74 84.0923 20.3399C83.6654 19.9288 83.4306 19.3398 83.4626 18.7397V15.995H82.7903C82.705 15.995 82.6303 15.9617 82.5769 15.895C82.5236 15.8283 82.4915 15.7505 82.4915 15.6616V15.1727C82.4915 15.0505 82.5022 14.9393 82.5342 14.8282C82.5662 14.7282 82.6089 14.6504 82.673 14.5726L84.2843 12.7169C84.3804 12.5946 84.4978 12.4946 84.6258 12.4168C84.7325 12.3613 84.8606 12.339 84.978 12.3502H85.4048C85.4795 12.3502 85.5649 12.3835 85.6183 12.4391C85.6716 12.4946 85.7036 12.5724 85.7036 12.6613V14.0503H87.1229C87.2083 14.0503 87.283 14.0837 87.3364 14.1392C87.3897 14.1948 87.4324 14.2726 87.4217 14.3615V15.6616C87.4217 15.7505 87.3897 15.8283 87.3364 15.895C87.283 15.9617 87.1976 15.995 87.1229 15.995H85.7036V18.2397C85.693 18.3842 85.7463 18.5175 85.8317 18.6286C85.9277 18.7286 86.0451 18.7731 86.1732 18.7731C86.2692 18.7731 86.3546 18.7509 86.4506 18.7175C86.568 18.6731 86.6747 18.6175 86.7814 18.5508C86.9415 18.4175 87.1656 18.4397 87.3043 18.5953C87.3257 18.6175 87.3364 18.6397 87.347 18.6731L87.9126 19.5621C87.9766 19.651 88.0087 19.7621 87.998 19.8621C87.998 19.9621 87.9553 20.0621 87.8806 20.1288C87.6245 20.3955 87.3043 20.5844 86.9629 20.7066C86.6107 20.8511 86.2052 20.9178 85.789 20.9178Z" fill="#1D3242"/>
<path d="M50.8296 14.3615V20.4733C50.8296 20.6399 50.7015 20.7844 50.5414 20.7955C50.5308 20.7955 50.5308 20.7955 50.5201 20.7955H48.8767C48.7913 20.7955 48.7166 20.7622 48.6526 20.7066C48.5993 20.6511 48.5672 20.5733 48.5672 20.4844V14.3726C48.5672 14.1948 48.6953 14.0615 48.866 14.0503H48.8767H50.5201C50.6055 14.0503 50.6802 14.0837 50.7442 14.1392C50.7976 14.1948 50.8296 14.2837 50.8296 14.3615Z" fill="#1D3242"/>
<rect x="0.5" y="0.5" width="95" height="31" rx="5.5" stroke="#D9D9D9"/>
</svg>
