<svg width="69" height="32" viewBox="0 0 69 32" fill="none" xmlns="http://www.w3.org/2000/svg">
<rect x="0.5" y="0.5" width="68" height="31" rx="5.5" fill="white"/>
<path fill-rule="evenodd" clip-rule="evenodd" d="M13.2795 18.7686C12.8966 18.9825 12.489 19.0893 12.0569 19.0893H11.7235C11.6369 19.0893 11.5132 19.0821 11.1559 19.0183L12.3638 13.8408C12.586 13.6397 12.8257 13.509 13.1036 13.4459C13.3815 13.383 13.5605 13.366 13.7335 13.366C14.2643 13.366 14.675 13.5213 14.8727 13.8612C15.0701 14.2008 15.1691 14.6727 15.1691 15.2766C15.1691 15.7675 15.0886 16.2394 14.9283 16.6924C14.7676 17.1452 14.5485 17.551 14.2707 17.9097C13.9928 18.2682 13.6622 18.5547 13.2795 18.7686ZM16.0028 11.332C15.5702 11.1181 15.058 11.0111 14.4651 11.0111C14.1809 11.0111 13.9154 11.0425 13.6686 11.1054C13.4214 11.1686 13.1885 11.25 12.9417 11.3632L14.0762 6.5L11.2048 6.95295L8 20.6749C8.35808 20.8512 8.7377 20.9895 9.1393 21.0899C9.5405 21.1906 9.9202 21.266 10.2784 21.3165C10.6365 21.3667 10.9547 21.3949 11.2326 21.4015C11.5105 21.4076 11.705 21.4109 11.8161 21.4109C12.6804 21.4109 13.4834 21.244 14.2243 20.9106C14.9653 20.5774 15.6073 20.1245 16.1509 19.5519C16.6943 18.9792 17.1234 18.306 17.4384 17.5322C17.7534 16.7583 17.9108 15.9373 17.9108 15.069C17.9108 14.5029 17.8427 13.9744 17.7069 13.4836C17.5709 12.9928 17.361 12.5652 17.0771 12.2001C16.7929 11.8352 16.4348 11.546 16.0028 11.332ZM23.5973 9.79984L24.0192 7.99165H21.2685L20.8466 9.79984H23.5973ZM26.7424 18.8596C26.9446 18.963 27.2232 19.0144 27.5776 19.0144C27.8814 19.0144 28.1756 18.9854 28.4604 18.9273C28.6466 18.8894 28.8399 18.8447 29.0323 18.7778L28.4594 21.2193C28.4144 21.2304 28.3448 21.2475 28.2991 21.2582C27.8559 21.3614 27.3308 21.4129 26.7233 21.4129C25.8499 21.4129 25.1727 21.2807 24.6919 21.0164C24.2107 20.7522 23.869 20.3912 23.6666 19.9332C23.464 19.4756 23.3753 18.95 23.4009 18.3567C23.4261 17.7637 23.5148 17.138 23.6666 16.4803L25.5272 8.4721L28.4699 8.00777L27.7484 11.0061H30.9L30.3305 13.366H27.198L26.3626 16.9253C26.2866 17.2221 26.2392 17.4993 26.2202 17.7571C26.2013 18.0151 26.2326 18.2376 26.3152 18.4244C26.3973 18.6114 26.5396 18.7566 26.7424 18.8596ZM61 11.0093H58.2494L56.6495 17.8675H56.6523L56.4325 18.8109C56.279 18.8548 56.1262 18.8943 55.9745 18.9252C55.6897 18.9832 55.3955 19.0123 55.0917 19.0123C54.7371 19.0123 54.4587 18.9609 54.2563 18.8575C54.0537 18.7543 53.9114 18.6094 53.8291 18.4222C53.7467 18.2354 53.7152 18.0131 53.7342 17.7548C53.7533 17.497 53.8007 17.2199 53.8767 16.9231L54.7119 13.3638L55.2625 11.004L52.4526 11.0032L51.1807 16.4783C51.0289 17.136 50.9402 17.7615 50.915 18.3546C50.8894 18.9479 50.9781 19.4735 51.1807 19.9311C51.383 20.389 51.7247 20.7502 52.206 21.0144C52.6867 21.2784 53.364 21.4109 54.2373 21.4109C54.8449 21.4109 55.37 21.3592 55.8132 21.2561C55.8311 21.2519 55.8483 21.2475 55.8658 21.2431L55.8645 21.2482C55.7414 21.8131 55.492 22.2712 55.0918 22.6287C54.6912 22.9866 54.0968 23.1655 53.3086 23.1655C52.9721 23.1655 52.6663 23.1451 52.3893 23.1061L51.8479 25.4268C52.2141 25.4751 52.62 25.5 53.0683 25.5C53.9059 25.5 54.6392 25.4025 55.2674 25.208C55.8957 25.0135 56.4344 24.7186 56.8842 24.3232C57.3337 23.9278 57.7095 23.4318 58.0114 22.836C58.3131 22.2397 58.5564 21.5339 58.7413 20.7179L60.6446 12.5656L60.6377 12.5626L61 11.0093ZM18.1334 21.4129L20.5617 11.0033H23.3124L20.8841 21.4129H18.1334ZM47.5085 13.366C46.2259 13.366 45.981 13.366 45.4555 13.6437C45.0824 13.8408 44.7736 14.1371 44.5024 14.4826C44.2309 14.8284 44.0183 15.2272 43.8642 15.6797C43.7097 16.1323 43.6328 16.6035 43.6328 17.0937C43.6328 17.6968 43.7314 18.1748 43.929 18.5265C44.126 18.8785 44.4901 19.0543 45.0206 19.0543C45.3042 19.0543 45.5601 18.9978 45.7885 18.8846C46.0166 18.7715 46.2603 18.5829 46.5193 18.319C46.5439 18.0051 46.5841 17.6752 46.6397 17.3293C46.6903 17.0135 46.7535 16.7186 46.8112 16.4492L46.8273 16.3741L47.5085 13.366ZM49.4614 16.8674C49.2885 17.5839 49.2392 18.3033 49.3133 19.026C49.3874 19.749 49.6587 20.8564 49.9233 21.4109H47.2615C47.0192 20.9933 46.9656 20.7411 46.9285 20.5668C46.9159 20.5071 46.9051 20.4566 46.8894 20.4116C46.5439 20.7009 46.1615 20.9395 45.7423 21.128C45.3228 21.3165 44.854 21.4109 44.3359 21.4109C43.7191 21.4109 43.1917 21.3007 42.754 21.081C42.3159 20.8611 41.9582 20.5658 41.6808 20.1949C41.4031 19.8244 41.2025 19.3907 41.0795 18.8941C40.9559 18.3977 40.8944 17.8667 40.8944 17.3011C40.8944 16.4339 41.0452 15.6169 41.3477 14.8503C41.6498 14.0837 42.0693 13.4143 42.606 12.8424C43.1424 12.2705 44.4375 11.0095 46.5626 11.0095L50.8299 11.0094L49.4614 16.8674ZM33.3675 19.0188C33.5786 19.0695 33.8393 19.0948 34.15 19.0948C34.6343 19.0948 35.0749 19.0031 35.4726 18.8196C35.8698 18.6363 36.2083 18.3801 36.4877 18.0508C36.7672 17.722 36.9842 17.3268 37.1397 16.8647C37.2947 16.4029 37.3725 15.8938 37.3725 15.3369C37.3725 14.793 37.2544 14.331 37.0186 13.9515C36.7826 13.5718 36.3688 13.3701 35.7852 13.3677C35.3771 13.366 34.6995 13.366 34.6995 13.366L33.3675 19.0188ZM40.1294 15.1281C40.1294 16.0519 39.9804 16.8965 39.6823 17.6618C39.3844 18.4275 38.9713 19.0886 38.4437 19.645C37.9156 20.2021 37.2823 20.6354 36.5436 20.9453C35.8046 21.2551 35.0005 21.4102 34.1312 21.4102C33.7089 21.4102 33.2866 21.3723 32.8646 21.2963L32.0263 24.7315H29.2694L32.4696 11.0097C32.8038 11.0095 34.1673 11.0096 35.1857 11.0096L36.1431 11.0097C36.8384 11.0097 37.4377 11.1173 37.9406 11.3323C38.4437 11.5476 38.8563 11.8417 39.1794 12.2148C39.5021 12.5882 39.7411 13.0247 39.8965 13.5243C40.0516 14.0244 40.1294 14.5588 40.1294 15.1281Z" fill="#002855"/>
<rect x="0.5" y="0.5" width="68" height="31" rx="5.5" stroke="#D9D9D9"/>
</svg>
