<svg width="75" height="32" viewBox="0 0 75 32" fill="none" xmlns="http://www.w3.org/2000/svg">
<rect x="0.5" y="0.5" width="74" height="31" rx="5.5" fill="white"/>
<path fill-rule="evenodd" clip-rule="evenodd" d="M62.8711 11.2217C65.0442 11.2217 66.2394 12.1888 66.2394 14.0155C66.348 15.4124 65.3701 16.5944 64.0663 16.8093L67 20.7851H64.7182L62.2191 16.9168H62.0018V20.7851H60.1547V11.2217H62.8711ZM62.0018 15.6273H62.5451C63.7403 15.6273 64.2836 15.09 64.2836 14.1229C64.2836 13.2633 63.7403 12.726 62.5451 12.726H62.0018V15.6273ZM53.744 20.7851H58.9595V19.1733H55.5911V16.5944H58.8508V14.9826H55.5911V12.8335H58.9595V11.2217H53.744V20.7851ZM48.3112 17.6689L45.8121 11.2217H43.8563L47.8766 21H48.8545L52.8747 11.2217H50.9189L48.3112 17.6689ZM26.2541 16.0571C26.2541 18.7435 28.4272 21 31.1436 21C32.0129 21 32.7735 20.7851 33.534 20.4627V18.3137C32.9908 18.9584 32.2302 19.3882 31.3609 19.3882C29.6224 19.3882 28.2099 18.0987 28.2099 16.3795V16.1646C28.1013 14.4453 29.5138 12.941 31.2523 12.8335C32.1215 12.8335 32.9908 13.2633 33.534 13.908V11.759C32.8821 11.3291 32.0129 11.2217 31.2523 11.2217C28.4272 11.0068 26.2541 13.2633 26.2541 16.0571ZM22.8858 14.8751C21.7992 14.4453 21.4733 14.2304 21.4733 13.6931C21.5819 13.0484 22.1252 12.5111 22.7771 12.6186C23.3204 12.6186 23.8637 12.941 24.2983 13.3708L25.2762 12.0813C24.5156 11.4366 23.5377 11.0068 22.5598 11.0068C21.0386 10.8993 19.7348 12.0813 19.6261 13.5857V13.6931C19.6261 14.9826 20.1694 15.7348 21.9079 16.272C22.3425 16.3795 22.7771 16.5944 23.2118 16.8093C23.5377 17.0242 23.755 17.3466 23.755 17.7764C23.755 18.5286 23.1031 19.1733 22.4512 19.1733H22.3425C21.4733 19.1733 20.7127 18.636 20.3867 17.8838L19.1915 19.0658C19.8434 20.2478 21.1473 20.8925 22.4512 20.8925C24.1897 21 25.6022 19.7106 25.7108 17.9913V17.6689C25.6022 16.3795 25.0589 15.7348 22.8858 14.8751ZM16.5838 20.7851H18.4309V11.2217H16.5838V20.7851ZM8 11.2217H10.7164H11.2597C13.8674 11.3292 15.9318 13.4782 15.8232 16.0571C15.8232 17.454 15.1712 18.7435 14.0847 19.7106C13.1068 20.4627 11.9116 20.8926 10.7164 20.7851H8V11.2217ZM10.3904 19.1733C11.2597 19.2807 12.2375 18.9584 12.8895 18.4211C13.5414 17.7764 13.8674 16.9168 13.8674 15.9497C13.8674 15.09 13.5414 14.2304 12.8895 13.5857C12.2375 13.0484 11.2597 12.7261 10.3904 12.8335H9.84713V19.1733H10.3904Z" fill="black"/>
<path fill-rule="evenodd" clip-rule="evenodd" d="M39.0755 11C36.3591 11 34.0774 13.1491 34.0774 15.9429C34.0774 18.6292 36.2505 20.8858 39.0755 20.9932C41.9006 21.1007 44.0737 18.8441 44.1823 16.0503C44.0737 13.2565 41.9006 11 39.0755 11Z" fill="#FD6020"/>
<rect x="0.5" y="0.5" width="74" height="31" rx="5.5" stroke="#D9D9D9"/>
</svg>
