<svg width="70" height="32" viewBox="0 0 70 32" fill="none" xmlns="http://www.w3.org/2000/svg">
<rect x="0.5" y="0.5" width="68.3333" height="31" rx="5.5" fill="white"/>
<path fill-rule="evenodd" clip-rule="evenodd" d="M8.08899 11L12.652 14.7044L15.9766 11.13C16.023 11.0804 15.9876 11 15.9198 11H8.08899Z" fill="#2397D4"/>
<path fill-rule="evenodd" clip-rule="evenodd" d="M8.08899 21L12.652 17.2953L15.9766 20.8699C16.023 20.9195 15.9876 21 15.9198 21H8.08899Z" fill="#2397D4"/>
<path fill-rule="evenodd" clip-rule="evenodd" d="M8.13914 11.0191L14.1991 15.9343C14.2408 15.968 14.2408 16.0317 14.1991 16.0658L8.13914 20.9809C8.08349 21.0259 8 20.9864 8 20.9149V11.0852C8 11.0134 8.08349 10.9742 8.13914 11.0191Z" fill="#2F4A75"/>
<path fill-rule="evenodd" clip-rule="evenodd" d="M31.2344 17.8751C31.1956 17.2628 30.6608 16.7978 30.0439 16.7978H27.7921V19.1533H30.0746C30.7796 19.1533 31.2806 18.6079 31.2344 17.8751ZM27.7921 12.9106V14.9586C27.7921 15.0044 27.8295 15.0419 27.8759 15.0419H29.7732C30.4263 15.0419 30.9025 14.5146 30.8451 13.832C30.7976 13.2666 30.299 12.8432 29.7288 12.8432H27.86C27.8226 12.8432 27.7921 12.8734 27.7921 12.9106ZM33.2039 18.0967C33.2039 19.8097 31.8116 20.9945 30.0746 20.9945H25.8928C25.8476 20.9945 25.8114 20.9582 25.8114 20.9135V11.0815C25.8114 11.0374 25.847 11.0016 25.8914 11.0016H29.7732C31.4669 11.0016 32.8308 12.1438 32.8308 13.8141C32.8308 14.6706 32.472 15.3417 31.8835 15.8127C32.6873 16.2696 33.2039 17.0546 33.2039 18.0967Z" fill="#2F4A75"/>
<path fill-rule="evenodd" clip-rule="evenodd" d="M39.7024 17.2563L38.4284 13.4816C38.4055 13.4141 38.3092 13.4141 38.2866 13.4816L37.0123 17.2563C36.9961 17.3044 37.0323 17.3543 37.0833 17.3543H39.6313C39.6827 17.3543 39.7186 17.3044 39.7024 17.2563ZM40.299 19.1961H36.4015C36.3693 19.1961 36.341 19.2166 36.3308 19.2466L35.7618 20.9436C35.7516 20.9739 35.7229 20.9947 35.691 20.9947H33.7114C33.6599 20.9947 33.6239 20.9439 33.6407 20.8958L37.1054 11.0517C37.1158 11.0217 37.1442 11.0018 37.1761 11.0018H39.5247C39.5563 11.0018 39.5847 11.0217 39.5951 11.0517L43.074 20.8955C43.0911 20.9439 43.0549 20.9947 43.0032 20.9947H41.0095C40.9773 20.9947 40.9489 20.9739 40.9387 20.9436L40.3697 19.2466C40.3595 19.2166 40.3311 19.1961 40.299 19.1961Z" fill="#2F4A75"/>
<path fill-rule="evenodd" clip-rule="evenodd" d="M51.8799 11.0822V20.914C51.8799 20.9586 51.8438 20.9947 51.799 20.9947H50.4145C50.3881 20.9947 50.3639 20.982 50.3484 20.9604L46.0661 14.8846V20.914C46.0661 20.9586 46.03 20.9947 45.9856 20.9947H44.1662C44.1214 20.9947 44.0853 20.9586 44.0853 20.914V11.0822C44.0853 11.0378 44.1214 11.0018 44.1662 11.0018H45.5504C45.5768 11.0018 45.6013 11.0145 45.6169 11.0358L49.8988 17.0974V11.0822C49.8988 11.0378 49.9353 11.0018 49.9797 11.0018H51.799C51.8438 11.0018 51.8799 11.0378 51.8799 11.0822Z" fill="#2F4A75"/>
<path fill-rule="evenodd" clip-rule="evenodd" d="M59.1191 20.9538L57.2633 17.8602C57.2308 17.8058 57.1517 17.8058 57.1192 17.8602L55.2634 20.9538C55.2478 20.9791 55.2211 20.9947 55.1911 20.9947H53.1475C53.0821 20.9947 53.0421 20.9238 53.0753 20.8681L56.0456 15.9127C56.0615 15.8861 56.0615 15.8533 56.0456 15.827L53.2331 11.1281C53.1995 11.0724 53.2403 11.0018 53.3053 11.0018H55.3489C55.3786 11.0018 55.406 11.0171 55.4212 11.0425L57.1192 13.8788C57.1517 13.9333 57.2308 13.9333 57.2633 13.8788L58.961 11.0425C58.9765 11.0171 59.0039 11.0018 59.0332 11.0018H61.0768C61.1422 11.0018 61.1823 11.0724 61.149 11.1281L58.3366 15.8126C58.3207 15.8391 58.3207 15.8717 58.3366 15.8982L61.3213 20.8681C61.3549 20.9238 61.3141 20.9947 61.2494 20.9947H59.191C59.1614 20.9947 59.1343 20.9791 59.1191 20.9538Z" fill="#2F4A75"/>
<path fill-rule="evenodd" clip-rule="evenodd" d="M20.6431 19.105C20.3846 19.0719 20.1843 18.8542 20.1843 18.5879V16.9461C20.1843 16.9034 20.2188 16.8689 20.2617 16.8689H23.9104C23.9533 16.8689 23.9881 16.8346 23.9881 16.7919V15.0902C23.9881 15.0478 23.9533 15.0132 23.9104 15.0132H20.2617C20.2188 15.0132 20.1843 14.9789 20.1843 14.936V12.9632C20.1843 12.9206 20.2188 12.8863 20.2617 12.8863H24.2695C24.3121 12.8863 24.3469 12.8517 24.3469 12.809V11.0788C24.3469 11.0364 24.3121 11.0018 24.2695 11.0018H18.2806C18.238 11.0018 18.2032 11.0364 18.2032 11.0788V17.0989V19.1307C18.2032 20.1622 19.0439 20.9982 20.0811 20.9982H24.4185V19.105H20.6431Z" fill="#2F4A75"/>
<rect x="0.5" y="0.5" width="68.3333" height="31" rx="5.5" stroke="#D9D9D9"/>
</svg>
