<svg width="68" height="32" viewBox="0 0 68 32" fill="none" xmlns="http://www.w3.org/2000/svg">
<rect x="0.5" y="0.5" width="66.232" height="31" rx="5.5" fill="white"/>
<path d="M14.6812 20.1044C18.2519 20.1044 21.3618 17.5018 21.3618 13.5634C21.3618 9.62722 18.2519 7.02272 14.6812 7.02272C11.1103 7.02272 8 9.62712 8 13.5634C8 17.5018 11.1103 20.1044 14.6812 20.1044ZM14.6812 17.856C12.2871 17.856 10.5097 15.9458 10.5097 13.5634C10.5097 11.1811 12.2871 9.27082 14.6812 9.27082C17.0753 9.27082 18.8533 11.181 18.8533 13.5634C18.8533 15.9458 17.0753 17.856 14.6812 17.856Z" fill="#F9B214"/>
<path d="M16.0415 12.8903C15.9603 12.5091 15.8227 12.2175 15.6289 12.0155C15.4265 11.8047 15.1184 11.6992 14.7055 11.6992C14.4354 11.6992 14.211 11.7427 14.0323 11.829C13.8534 11.9157 13.7105 12.0232 13.6034 12.1512C13.4959 12.2794 13.4205 12.415 13.3768 12.5579C13.3332 12.7012 13.3071 12.8293 13.2996 12.9421H16.0521L16.0415 12.8903V12.8903ZM13.7168 15.089C13.9705 15.3226 14.3363 15.4392 14.8129 15.4392C15.1543 15.4392 15.4484 15.3583 15.6948 15.1962C15.9409 15.0344 15.9341 14.863 15.9898 14.682H17.6368C17.3985 15.3826 17.0329 15.8837 16.5405 16.185C16.0479 16.4862 15.4523 16.6368 14.7535 16.6368C14.2689 16.6368 13.832 16.5633 13.4427 16.4162C13.0534 16.2693 12.7236 16.0602 12.4539 15.7891C12.1837 15.5182 11.9751 15.1944 11.8281 14.8175C11.6811 14.4411 11.6077 14.0268 11.6077 13.5747C11.6077 13.138 11.683 12.7312 11.8344 12.3544C11.9849 11.9776 12.1994 11.6518 12.4776 11.3768C12.7555 11.1019 13.0874 10.8853 13.4727 10.7273C13.8577 10.5691 14.2847 10.4899 14.7535 10.4899C15.2777 10.4899 15.7342 10.586 16.1234 10.7781C16.5127 10.9702 16.8326 11.2282 17.0827 11.5521C17.333 11.876 17.5135 12.2451 17.6252 12.6592C17.7361 13.0735 17.7755 13.5069 17.7439 13.9586H13.2998C13.3236 14.4785 13.4625 14.8554 13.7169 15.0887L13.7168 15.089ZM27.8185 9.95735C26.8499 10.0874 25.9548 10.6514 25.4089 11.4607C24.7771 12.372 24.6122 13.5739 24.9273 14.6312C25.1615 15.4328 25.6752 16.1547 26.376 16.6125C27.1636 17.1401 28.1687 17.3232 29.0931 17.1212C30.0408 16.9255 30.8907 16.3132 31.3847 15.4824C31.8821 14.6647 32.0128 13.648 31.7942 12.7207C31.595 11.8178 31.0339 11.0001 30.2567 10.4976C29.5466 10.0251 28.6606 9.84905 27.8185 9.95735ZM24.8951 8.84615C25.8129 8.16705 26.9393 7.77715 28.0804 7.73635C29.5566 7.66175 31.0605 8.16485 32.1765 9.13915C33.2412 10.0566 33.9403 11.3823 34.1164 12.7758C34.3219 14.2392 33.9513 15.7757 33.0856 16.975C32.2401 18.1729 30.9317 19.0471 29.4844 19.3112C28.2657 19.5357 26.9611 19.3436 25.889 18.7103C25.4634 18.4686 25.0804 18.1603 24.7204 17.8306C24.7184 20.1492 24.7198 22.4681 24.7198 24.7866C23.9846 24.7838 23.2494 24.7806 22.5142 24.7889C22.5191 21.2618 22.5142 17.7349 22.5169 14.2077C22.5205 13.418 22.5723 12.6199 22.7849 11.856C23.1244 10.6539 23.8806 9.57585 24.8952 8.84605L24.8951 8.84615ZM40.2062 10.002C39.204 10.2166 38.3193 10.8967 37.8468 11.8052C37.3353 12.7604 37.3206 13.9309 37.6812 14.94C37.9747 15.7729 38.6037 16.483 39.4045 16.8597C40.2006 17.2281 41.1285 17.3029 41.9728 17.0631C42.7567 16.8325 43.4535 16.316 43.8988 15.6291C44.5116 14.701 44.6717 13.492 44.3392 12.4318C44.0351 11.4555 43.2956 10.6206 42.3529 10.2186C41.6834 9.92305 40.921 9.85315 40.2061 10.002L40.2062 10.002ZM36.6351 9.69395C37.6156 8.58485 39.0265 7.84555 40.5109 7.74405C42.6117 7.57725 44.7541 8.69305 45.8304 10.5031C46.4987 11.6512 46.8954 12.9267 47.3602 14.1636C47.9514 15.7871 48.5489 17.4076 49.1388 19.0311C48.3387 19.0311 47.5377 19.0304 46.7375 19.0316C46.4238 18.1572 46.1078 17.2836 45.7893 16.411C45.1723 17.5641 44.2008 18.5585 42.9618 19.0255C41.9918 19.4154 40.9066 19.4888 39.8819 19.2994C38.5876 19.063 37.3898 18.3543 36.5477 17.346C35.5854 16.2132 35.0906 14.7064 35.1661 13.2243C35.2254 11.923 35.7713 10.6629 36.6351 9.69375" fill="#378BB4"/>
<path d="M49.6425 8.12161C50.3742 8.06681 51.1121 8.11251 51.8466 8.09781C51.8509 10.1349 51.8425 12.1719 51.8509 14.209C51.8466 14.9184 51.9634 15.6647 52.3854 16.2538C52.7613 16.7802 53.3784 17.0989 54.0137 17.1765C54.8132 17.2694 55.6995 17.0675 56.248 16.4433C56.8587 15.7652 57.0131 14.8115 57.0244 13.9289C57.0293 11.984 57.0258 10.0391 57.0258 8.09431C57.761 8.09781 58.4968 8.10481 59.232 8.09071C59.2235 11.1314 59.2306 14.1728 59.2283 17.2134C59.2312 18.6168 59.1807 20.0718 58.596 21.3715C57.837 22.9838 56.3402 24.2056 54.6392 24.705C52.507 25.3869 50.038 24.7552 48.4613 23.176C48.179 22.9286 47.9659 22.6182 47.7185 22.3394C48.2865 21.8613 48.8765 21.409 49.4417 20.9269C50.1057 21.7893 51.0087 22.5489 52.1148 22.7208C54.0563 23.0765 56.1305 21.8411 56.7623 19.9751C56.9859 19.4111 57.0284 18.7996 57.0571 18.2C56.401 18.8206 55.5589 19.2503 54.6594 19.3627C53.2988 19.5465 51.8614 19.0705 50.8948 18.0929C50.3707 17.5767 50.0204 16.8993 49.8542 16.1865C49.644 15.3584 49.653 14.4975 49.6466 13.6498C49.6438 11.807 49.6521 9.96411 49.6424 8.12141" fill="#378BB4"/>
<rect x="0.5" y="0.5" width="66.232" height="31" rx="5.5" stroke="#D9D9D9"/>
</svg>
