<svg width="57" height="32" viewBox="0 0 57 32" fill="none" xmlns="http://www.w3.org/2000/svg">
<rect x="0.5" y="0.5" width="55.1617" height="31" rx="5.5" fill="white"/>
<path d="M48.1547 12.9978V7.95223C48.1543 7.7813 48.0861 7.61752 47.9652 7.49664C47.8442 7.37575 47.6805 7.30772 47.5094 7.30732C47.3385 7.30772 47.1747 7.37575 47.0538 7.49664C46.9328 7.61752 46.8647 7.7813 46.8642 7.95223V13.0011C46.8642 13.6737 46.5947 14.3087 46.1066 14.79C45.6185 15.2712 44.9834 15.534 44.3144 15.534C43.6454 15.534 43.0071 15.2679 42.5222 14.79C42.034 14.3087 41.7643 13.6737 41.7643 13.0011V7.88404C41.7639 7.71303 41.6958 7.54917 41.5749 7.42828C41.4539 7.30732 41.2901 7.2392 41.1191 7.2388C40.9481 7.23928 40.7843 7.30748 40.6634 7.42836C40.5425 7.54925 40.4745 7.71311 40.4741 7.88404V12.9978C40.4741 14.0186 40.8802 14.9774 41.6177 15.7047C42.3479 16.4251 43.3075 16.821 44.3177 16.821C45.2601 16.821 46.1577 16.4762 46.8678 15.8447C46.8197 17.903 46.0417 19.8388 44.6625 21.3135C43.2426 22.829 41.3513 23.6792 39.3373 23.7098H39.1974C37.4358 23.7098 35.8212 23.2322 34.531 22.3309C33.1654 21.3784 32.2029 20.0094 31.6702 18.265C31.6456 18.184 31.6051 18.1086 31.5512 18.0433C31.4973 17.9779 31.431 17.9238 31.3561 17.8842C31.2812 17.8445 31.1993 17.8201 31.1149 17.8123C31.0305 17.8044 30.9455 17.8133 30.8646 17.8384C30.7835 17.8631 30.7083 17.9036 30.6429 17.9575C30.5776 18.0114 30.5235 18.0776 30.4839 18.1525C30.4443 18.2273 30.4198 18.3092 30.412 18.3936C30.4041 18.4779 30.4129 18.563 30.438 18.6438C31.049 20.6445 32.2094 22.2862 33.7935 23.3889C35.3024 24.4437 37.173 25 39.2007 25H39.3578C41.7267 24.966 43.9458 23.9693 45.6047 22.1973C47.2535 20.436 48.1616 18.1115 48.1616 15.65L48.1547 12.9975V12.9978Z" fill="#25262B"/>
<path d="M30.7451 13.8611C30.7862 14.6091 31.0662 15.2577 31.5646 15.7422C31.9641 16.1316 32.4898 16.4149 33.1315 16.5888C33.5887 16.7119 34.1041 16.7766 34.6266 16.7766C34.6777 16.7766 34.7287 16.7766 34.7768 16.7735C35.2989 16.7597 35.9339 16.6264 36.2685 16.5071C37.1253 16.1998 37.7637 15.7561 38.2278 15.1516C38.791 14.4145 39.0812 13.4619 39.1122 12.2399L39.1154 12.0452V12.0284C39.1154 10.7379 38.6717 9.50199 37.8694 8.54647C37.0298 7.54973 35.9135 7 34.7255 7C33.6025 7 32.7287 7.2286 31.8887 7.74082C31.7429 7.83022 31.6384 7.97384 31.5981 8.14011C31.5578 8.30638 31.585 8.48189 31.6736 8.62816C31.7631 8.7741 31.9067 8.8786 32.0731 8.91893C32.2394 8.95925 32.415 8.93202 32.5613 8.84326C33.1961 8.45755 33.8449 8.29056 34.7255 8.29056C36.4016 8.29056 37.8217 9.99711 37.8252 12.0215L37.8217 12.2059C37.767 14.3118 36.7841 14.9471 35.8315 15.2916C35.5993 15.3769 35.0943 15.4761 34.7462 15.483C33.7698 15.5071 32.9164 15.2577 32.4658 14.8137C32.172 14.5271 32.0288 14.155 32.0288 13.6704V13.6431C32.0357 13.1137 32.2165 12.7382 32.5953 12.4654C33.5376 11.786 35.3262 11.9839 35.678 12.1137C35.8387 12.1729 36.0163 12.1658 36.1718 12.0942C36.3273 12.0225 36.4481 11.8919 36.5074 11.7313C36.5665 11.5706 36.5596 11.393 36.4878 11.2375C36.4161 11.082 36.2857 10.9612 36.125 10.9019C35.8041 10.7823 35.0943 10.6697 34.2956 10.697C33.5956 10.7211 32.6022 10.8644 31.8377 11.4174C31.083 11.9599 30.7042 12.786 30.7382 13.8035C30.7418 13.8275 30.7418 13.8444 30.7451 13.8615V13.8611ZM30.0488 7.31061C29.9697 7.28065 29.8855 7.26667 29.8009 7.26932C29.7164 7.27206 29.6332 7.29133 29.5562 7.32627C29.4791 7.36113 29.4097 7.41085 29.3519 7.47262C29.2941 7.53439 29.2491 7.60692 29.2194 7.68612L26.8231 14.0492L24.3379 7.72034C24.3096 7.63279 24.263 7.55214 24.2012 7.48387C24.1395 7.41567 24.0639 7.36129 23.9795 7.32443C23.9693 7.32081 23.9624 7.3139 23.9522 7.31061C23.9447 7.30675 23.9365 7.30434 23.9281 7.3037C23.9248 7.3037 23.9212 7.30041 23.9212 7.30041C23.9047 7.29431 23.8876 7.28981 23.8701 7.28692C23.8668 7.28692 23.8599 7.2833 23.8566 7.2833C23.8421 7.27928 23.8272 7.27696 23.8121 7.27639C23.8052 7.27639 23.7983 7.27639 23.7917 7.27334C23.7779 7.27334 23.7677 7.26973 23.7542 7.26973H23.6962C23.6824 7.26973 23.6689 7.2731 23.655 7.2731C23.6481 7.2731 23.6415 7.2731 23.6346 7.27639L23.5866 7.28692C23.5835 7.28692 23.5799 7.28989 23.5766 7.28989C23.5595 7.2935 23.5424 7.30041 23.5256 7.3037C23.522 7.3037 23.522 7.3037 23.5186 7.30732C23.5082 7.31061 23.5015 7.3139 23.4913 7.31752C23.4006 7.35302 23.319 7.40869 23.2528 7.48017C23.1865 7.55174 23.1374 7.63737 23.1089 7.73054L20.7261 14.0525L18.2274 7.67921C18.1647 7.52009 18.0415 7.39222 17.8848 7.32378C17.728 7.25535 17.5505 7.25173 17.3911 7.3139C17.2318 7.37656 17.1039 7.49985 17.0353 7.65664C16.9668 7.81351 16.9633 7.99111 17.0255 8.15055L20.1353 16.0838C20.1827 16.2045 20.2653 16.3082 20.3725 16.3812C20.4797 16.4542 20.6064 16.4933 20.7361 16.4933H20.7397C20.87 16.4919 20.9969 16.4515 21.104 16.3773C21.2111 16.3031 21.2934 16.1984 21.3405 16.0769L23.7368 9.71381L26.2358 16.0841C26.2832 16.2048 26.3659 16.3084 26.473 16.3815C26.5803 16.4545 26.7069 16.4936 26.8366 16.4936H26.8399C26.9702 16.4922 27.0971 16.4518 27.2042 16.3776C27.3114 16.3034 27.3937 16.1987 27.4407 16.0772L30.4312 8.14364C30.4885 7.98236 30.4805 7.80508 30.4091 7.64958C30.3377 7.49407 30.2084 7.37254 30.0488 7.31093V7.31061ZM12.4003 7.03751C9.97306 7.03751 8 9.22239 8 11.9088C8 14.5953 9.97331 16.7801 12.4003 16.7801C13.4276 16.7801 14.7864 16.6128 16.1964 15.3052C16.2587 15.2477 16.309 15.1785 16.3444 15.1015C16.3798 15.0246 16.3997 14.9413 16.4029 14.8567C16.406 14.772 16.3924 14.6875 16.3628 14.6082C16.3332 14.5287 16.2882 14.456 16.2303 14.394C16.1729 14.3318 16.1037 14.2814 16.0267 14.246C15.9497 14.2105 15.8665 14.1906 15.7818 14.1874C15.6971 14.1843 15.6126 14.1979 15.5331 14.2274C15.4538 14.257 15.3809 14.302 15.319 14.3598C14.2435 15.3532 13.281 15.4896 12.4003 15.4896C10.6832 15.4896 9.29056 13.8855 9.29056 11.9088C9.29056 9.93582 10.6868 8.32807 12.4003 8.32807C13.9263 8.32807 15.1961 9.59429 15.4622 11.2636H11.0451C10.8741 11.264 10.7103 11.3321 10.5893 11.453C10.4684 11.5739 10.4003 11.7378 10.3999 11.9088C10.3999 12.2639 10.6901 12.5541 11.0451 12.5541H16.1552C16.3262 12.5537 16.4902 12.4856 16.6111 12.3646C16.732 12.2438 16.8002 12.0798 16.8006 11.9088C16.8002 9.21877 14.8275 7.03751 12.4003 7.03751Z" fill="#25262B"/>
<rect x="0.5" y="0.5" width="55.1617" height="31" rx="5.5" stroke="#D9D9D9"/>
</svg>
