<svg width="91" height="32" viewBox="0 0 91 32" fill="none" xmlns="http://www.w3.org/2000/svg">
<rect x="0.5" y="0.5" width="89.3235" height="31" rx="5.5" fill="white"/>
<path d="M16.3905 11.0656H22.4557V12.7884H18.2113V14.8295H21.9385V16.5401H18.2113V20.1571H16.3905V11.0656ZM30.0479 13.4525V20.1571H28.3984V19.3829C27.9057 19.9123 27.205 20.3163 26.2564 20.3163C24.3132 20.3163 22.9361 18.7648 22.9361 16.7727C22.9361 14.756 24.3498 13.2781 26.2564 13.2781C27.205 13.2781 27.8935 13.6973 28.3984 14.2511V13.4525H30.0479ZM28.4229 16.7972C28.4229 15.7506 27.6487 14.8663 26.5409 14.8663C25.421 14.8663 24.6712 15.7506 24.6712 16.7972C24.6712 17.8682 25.4332 18.7404 26.5409 18.7404C27.6487 18.7404 28.4229 17.8559 28.4229 16.7972ZM31.0117 19.0372L31.9359 17.9416C32.4163 18.52 33.1171 18.875 33.7934 18.875C34.3227 18.875 34.7175 18.6057 34.7175 18.2232C34.7175 17.9783 34.5585 17.7916 34.2371 17.6448C33.8669 17.4734 32.9824 17.1889 32.5755 16.9808C31.8136 16.6105 31.4188 16.0199 31.4188 15.2457C31.4188 14.0767 32.4041 13.229 33.9281 13.229C34.7879 13.229 35.6264 13.5106 36.2782 14.1899L35.4183 15.31C34.9134 14.8295 34.335 14.6459 33.8821 14.6459C33.4017 14.6459 33.1202 14.9029 33.1202 15.212C33.1202 15.4446 33.2671 15.6802 33.7108 15.8271C34.13 15.9862 34.7941 16.2097 35.3235 16.479C36.0732 16.8736 36.4557 17.3878 36.4557 18.1773C36.4557 19.3952 35.4214 20.3315 33.7872 20.3315C32.7101 20.3286 31.6881 19.8971 31.0117 19.0372ZM42.4474 19.7625C41.918 20.1173 41.1561 20.3163 40.4674 20.3163C38.9313 20.3163 38.1296 19.4043 38.1296 17.6723V14.9029H37.0341V13.4525H38.1419V11.0778H39.8647V13.4525H42.0801V14.9029H39.8647V17.5591C39.8647 18.3333 40.1615 18.7404 40.8133 18.7404C41.2447 18.7404 41.5998 18.5812 41.9332 18.3976L42.4474 19.7625ZM43.0258 18.6057L44.0723 17.3388C44.6752 18.162 45.5595 18.6057 46.4837 18.6057C47.2457 18.6057 47.7872 18.1987 47.7872 17.6326C47.7872 17.1766 47.4292 16.9073 46.9641 16.6869C46.3857 16.4147 45.636 16.1943 44.9965 15.8394C44.1978 15.3834 43.5582 14.7071 43.5582 13.5749C43.5582 12.0754 44.8128 10.9187 46.6581 10.9187C47.7169 10.9187 48.7972 11.2889 49.6478 12.1488L48.6747 13.4769C48.1331 12.9108 47.3099 12.6292 46.6825 12.6292C45.9574 12.6292 45.5137 12.9873 45.5137 13.5014C45.5137 13.9574 45.8839 14.2144 46.2511 14.4011C46.7316 14.6215 47.6404 14.9672 48.2555 15.2732C49.1398 15.7047 49.807 16.381 49.807 17.5377C49.807 19.1504 48.4667 20.304 46.4745 20.304C45.0791 20.304 43.8 19.7257 43.0258 18.6057ZM58.0814 16.7972C58.0814 18.7404 56.7045 20.3163 54.7735 20.3163C53.8371 20.3163 53.1608 19.9092 52.6712 19.3829V22.9113H50.9331V13.4525H52.6559V14.2756C53.1486 13.7095 53.8371 13.2781 54.7827 13.2781C56.7045 13.2781 58.0814 14.854 58.0814 16.7972ZM56.3342 16.8094C56.3342 15.7506 55.5967 14.8907 54.4766 14.8907C53.3689 14.8907 52.6314 15.7506 52.6314 16.8094C52.6314 17.8682 53.3689 18.7281 54.4766 18.7281C55.5967 18.7281 56.3342 17.8682 56.3342 16.8094ZM59.2658 13.4525H60.9274V14.3491C61.3466 13.6115 61.9862 13.2658 62.7726 13.2658C63.0511 13.2689 63.3235 13.3178 63.5835 13.4127L63.4367 15.0744C63.1796 14.9886 62.9104 14.9427 62.638 14.9397C61.726 14.9397 61.0009 15.5058 61.0009 16.9685V20.1541H59.2658V13.4525ZM64.4343 11.6317C64.4343 11.0288 64.9025 10.5729 65.5053 10.5729C66.1082 10.5729 66.5763 11.0288 66.5763 11.6317C66.5763 12.2468 66.1082 12.7027 65.5053 12.7027C64.9025 12.7027 64.4343 12.2468 64.4343 11.6317ZM64.6301 20.1571V13.4525H66.3652V20.1571H64.6301ZM67.8677 13.4525H69.5661V14.3857C69.9088 13.7585 70.6739 13.2658 71.6683 13.2658C73.0209 13.2658 74.2879 14.1655 74.2879 16.0596V20.1571H72.5528V16.5279C72.5528 15.4446 71.9744 14.8663 71.139 14.8663C70.2271 14.8663 69.6027 15.5547 69.6027 16.5645V20.1541H67.8677V13.4525ZM82.3236 13.4525V19.4932C82.3236 21.6689 80.76 23 78.6087 23C77.4274 23 76.3198 22.593 75.5333 22.0269L76.2095 20.7202C76.8124 21.1272 77.6601 21.5067 78.5597 21.5067C79.9246 21.5067 80.6497 20.6957 80.6497 19.6492V19.3065C80.1816 19.8236 79.5175 20.1663 78.5841 20.1663C76.6043 20.1663 75.2365 18.7036 75.2365 16.736C75.2365 14.7071 76.7481 13.2781 78.6576 13.2781C79.5696 13.2781 80.2458 13.6606 80.7232 14.1899V13.4525H82.3236ZM80.6988 16.7483C80.6988 15.6649 79.9123 14.8663 78.8413 14.8663C77.7702 14.8663 76.9837 15.6649 76.9837 16.7483C76.9837 17.8437 77.7702 18.6547 78.8413 18.6547C79.9123 18.6547 80.6988 17.8315 80.6988 16.7483Z" fill="#2C282A"/>
<path d="M8.80772 11.8704L12.9021 9L13.2112 9.44062C13.811 10.2974 13.6029 11.4756 12.7492 12.0754L8.65166 14.9489L8.34259 14.5081C7.74281 13.6513 7.95089 12.4733 8.80772 11.8704Z" fill="url(#paint0_linear_1_349)"/>
<path d="M8.82958 15.5089L12.9271 12.6354L13.2361 13.076C13.8359 13.9329 13.6278 15.111 12.7741 15.7108L8.67351 18.5843L8.36444 18.1436C7.76466 17.2867 7.97275 16.1087 8.82958 15.5089Z" fill="url(#paint1_linear_1_349)"/>
<path d="M8.85073 19.1442L12.9482 16.2738L13.2573 16.7146C13.8571 17.5714 13.649 18.7495 12.7952 19.3493L8.69773 22.2197L8.38865 21.779C7.78887 20.9252 7.9939 19.744 8.85073 19.1442Z" fill="url(#paint2_linear_1_349)"/>
<path d="M10.8398 15.4263C10.2064 16.2463 9.69839 17.1583 9.32812 18.1252L12.7707 15.7108C13.6276 15.111 13.8357 13.9298 13.2328 13.073L13.19 13.0088C12.3484 13.7676 11.5283 14.5387 10.8398 15.4263Z" fill="url(#paint3_linear_1_349)"/>
<path d="M12.6513 11.5399C11.4946 12.3416 10.0716 12.6323 8.79864 13.2321C8.52936 13.3607 8.26619 13.5014 8.01526 13.6575C8.05197 13.9635 8.16521 14.2573 8.34269 14.5081L8.65175 14.9489L12.7492 12.0785C13.2205 11.748 13.5173 11.2217 13.551 10.6464C13.3062 10.9952 13.0002 11.2981 12.6513 11.5399Z" fill="url(#paint4_linear_1_349)"/>
<path d="M13.5356 17.3082C12.59 17.4704 11.6536 17.7795 10.9467 18.4129C10.0685 19.1993 9.66758 20.3898 9.63086 21.5679L12.7919 19.3523C13.4468 18.8903 13.7406 18.0763 13.5356 17.3082Z" fill="url(#paint5_linear_1_349)"/>
<rect x="0.5" y="0.5" width="89.3235" height="31" rx="5.5" stroke="#D9D9D9"/>
<defs>
<linearGradient id="paint0_linear_1_349" x1="7.99995" y1="11.9746" x2="13.5552" y2="11.9746" gradientUnits="userSpaceOnUse">
<stop stop-color="#FB8D63"/>
<stop offset="1" stop-color="#FDA96C"/>
</linearGradient>
<linearGradient id="paint1_linear_1_349" x1="8.02285" y1="15.6105" x2="13.5779" y2="15.6105" gradientUnits="userSpaceOnUse">
<stop stop-color="#FEAD6D"/>
<stop offset="0.37" stop-color="#FEAD6D"/>
<stop offset="1" stop-color="#FEB26D"/>
</linearGradient>
<linearGradient id="paint2_linear_1_349" x1="8.0451" y1="19.246" x2="13.6004" y2="19.246" gradientUnits="userSpaceOnUse">
<stop offset="0.04" stop-color="#FDAC6B"/>
<stop offset="0.95" stop-color="#FDBD7C"/>
</linearGradient>
<linearGradient id="paint3_linear_1_349" x1="11.8897" y1="16.6481" x2="10.6413" y2="14.4856" gradientUnits="userSpaceOnUse">
<stop offset="0.15" stop-color="#FEBA7D"/>
<stop offset="0.76" stop-color="#FEBE7F"/>
</linearGradient>
<linearGradient id="paint4_linear_1_349" x1="9.22733" y1="13.7033" x2="12.9472" y2="11.2069" gradientUnits="userSpaceOnUse">
<stop stop-color="#FEB16E"/>
<stop offset="1" stop-color="#FFB76E"/>
</linearGradient>
<linearGradient id="paint5_linear_1_349" x1="9.41668" y1="21.35" x2="13.4975" y2="17.2693" gradientUnits="userSpaceOnUse">
<stop offset="0.04" stop-color="#FCA56C"/>
<stop offset="0.95" stop-color="#FEA368"/>
</linearGradient>
</defs>
</svg>
