<svg width="75" height="32" viewBox="0 0 75 32" fill="none" xmlns="http://www.w3.org/2000/svg">
<rect x="0.5" y="0.5" width="73.5004" height="31" rx="5.5" fill="white"/>
<path d="M8 16.2519V15.7646C8.60004 15.7648 9.17586 15.5278 9.60201 15.1053C9.81216 14.8972 9.97911 14.6494 10.0931 14.3764C10.207 14.1034 10.2659 13.8105 10.2662 13.5147H10.7194C10.7188 13.8108 10.7772 14.1042 10.8909 14.3777C11.0048 14.6511 11.1717 14.8992 11.3822 15.1076C11.808 15.5315 12.3847 15.7691 12.9856 15.7682V16.2551C12.3855 16.255 11.8097 16.4919 11.3836 16.9143C11.1734 17.1226 11.0065 17.3703 10.8925 17.6434C10.7784 17.9164 10.7196 18.2092 10.7194 18.5051H10.2662C10.2667 18.2089 10.2084 17.9156 10.0945 17.6421C9.9808 17.3686 9.81385 17.1206 9.60336 16.9121C9.17676 16.4895 8.60054 16.2523 8 16.2519ZM10.2662 12.67H14.1632C16.0666 12.67 17.427 14.02 17.427 15.9999C17.427 17.9804 16.0675 19.33 14.1637 19.33H10.2662V25H11.897V20.77H14.1632C16.9005 20.77 19.0583 18.628 19.0583 15.9999C19.0583 13.3725 16.9005 11.23 14.1632 11.23H10.2662V12.67ZM24.9141 11.212C26.3461 11.212 27.6151 11.932 28.4125 13.066V11.5H30.0441V20.5H28.4125V18.934C27.5948 20.0702 26.3281 20.788 24.9141 20.788C22.2303 20.788 19.9641 18.682 19.9641 15.9999C19.9641 13.3185 22.2308 11.212 24.9141 11.212ZM24.9141 19.348C27.0166 19.348 28.4125 17.908 28.4125 15.9999C28.4125 14.074 27.0355 12.652 24.9141 12.652C23.0286 12.652 21.5958 14.002 21.5958 15.9999C21.5958 17.9984 23.0286 19.348 24.9141 19.348ZM36.0808 11.212C37.5132 11.212 38.7822 11.932 39.5796 13.066V7H41.2113V20.5H39.5796V18.934C38.7822 20.0702 37.5132 20.788 36.0808 20.788C33.3979 20.788 31.1317 18.682 31.1317 15.9999C31.1317 13.3185 33.3975 11.212 36.0808 11.212ZM36.0808 19.348C38.2017 19.348 39.5796 17.926 39.5796 15.9999C39.5796 14.0745 38.2017 12.652 36.0808 12.652C34.1953 12.652 32.763 14.002 32.763 15.9999C32.763 17.9984 34.1958 19.348 36.0808 19.348ZM47.4298 11.212C48.8622 11.212 50.1312 11.932 50.929 13.066V7H52.5607V20.5H50.929V18.934C50.1312 20.0702 48.8622 20.788 47.4298 20.788C44.7469 20.788 42.4808 18.682 42.4808 15.9999C42.4808 13.3185 44.7469 11.212 47.4298 11.212ZM47.4298 19.348C49.5511 19.348 50.929 17.926 50.929 15.9999C50.929 14.0745 49.5511 12.652 47.4298 12.652C45.5443 12.652 44.1125 14.002 44.1125 15.9999C44.1125 17.9984 45.5443 19.348 47.4298 19.348ZM54.1902 20.5V7H55.8224V20.5H54.1902ZM61.8599 11.23C64.996 11.23 66.5004 13.66 66.5004 16.6304H58.6695C58.9228 18.3764 60.2287 19.5104 61.8599 19.5104C62.984 19.5104 63.8539 19.0064 64.5064 18.0164H66.265C65.6485 19.4024 64.0357 20.7704 61.8599 20.7704C59.1226 20.7704 57.0014 18.5924 57.0014 16.0004C57.0014 13.4094 59.1226 11.2305 61.8599 11.2305V11.23ZM64.8691 15.3708C64.8691 13.894 63.6001 12.49 61.8599 12.49C60.2287 12.49 58.9228 13.6267 58.6695 15.3708H64.8691Z" fill="#FDDD35"/>
<rect x="0.5" y="0.5" width="73.5004" height="31" rx="5.5" stroke="#D9D9D9"/>
</svg>
