<svg width="75" height="32" viewBox="0 0 75 32" fill="none" xmlns="http://www.w3.org/2000/svg">
<rect x="0.5" y="0.5" width="73.8338" height="31" rx="5.5" fill="white"/>
<path d="M65.8232 13.4564C65.4769 13.6666 65.1097 13.8405 64.7277 13.9754C64.3114 14.1402 63.8756 14.2507 63.4311 14.304C63.2416 14.3359 63.0494 14.3633 62.8528 14.3837H62.8474C61.0283 14.5466 59.4731 14.1614 58.5821 13.3289C58.5733 13.3227 58.568 13.3129 58.5591 13.3067C58.5591 13.3395 58.5591 13.3723 58.5547 13.4068C58.5599 13.7794 58.6999 14.1374 58.9488 14.4147C59.6733 15.2401 61.062 15.6865 62.6739 15.7051C63.7482 15.7051 64.7277 15.5023 65.4769 15.1391C65.8307 14.9734 66.1484 14.7399 66.4122 14.4519C66.6639 14.1759 66.8073 13.8183 66.8161 13.4449C66.8157 13.2109 66.7585 12.9806 66.6496 12.7736C66.409 13.0404 66.1306 13.2704 65.8232 13.4564V13.4564ZM62.6482 12.3245C60.9477 12.4609 59.482 12.1474 58.5689 11.4274C58.5975 11.7663 58.7345 12.0871 58.9594 12.3423C59.683 13.1677 61.0726 13.6123 62.6792 13.6318C63.7552 13.6318 64.733 13.4298 65.4814 13.0649C65.8363 12.9008 66.1546 12.6671 66.4175 12.3777C66.6688 12.1016 66.8117 11.7439 66.8196 11.3707C66.8189 11.0809 66.7326 10.7977 66.5716 10.5568C66.3431 10.8694 65.3406 12.1093 62.6482 12.3245ZM62.6942 11.5585C63.7694 11.5585 64.7472 11.3565 65.4947 10.9908C65.85 10.8269 66.1686 10.5931 66.4317 10.3035C66.6884 10.0316 66.8322 9.67221 66.8338 9.29825C66.8355 8.92428 66.6949 8.56368 66.4405 8.28951C65.7161 7.4632 64.3291 7.02037 62.7164 7C61.6421 7 60.6634 7.20104 59.9159 7.56505C59.5609 7.72989 59.2422 7.96348 58.978 8.25231C58.7276 8.52868 58.5843 8.88558 58.5742 9.25841C58.5802 9.63177 58.7204 9.99048 58.9692 10.2689C59.6919 11.0944 61.0823 11.5372 62.6942 11.5585ZM59.5431 8.44184C59.9336 7.96182 61.1488 7.49154 62.5729 7.51014C63.525 7.51014 64.3796 7.71206 64.958 8.00522C65.1997 8.11519 65.4164 8.27342 65.5947 8.47018C65.7015 8.57877 65.7645 8.72284 65.7719 8.87493C65.7635 9.02651 65.7006 9.16996 65.5947 9.27878C65.2033 9.75881 63.9864 10.23 62.5614 10.2087C61.6093 10.2087 60.7546 10.005 60.1772 9.71364C59.9363 9.60218 59.7197 9.4445 59.5395 9.24956C59.4333 9.13956 59.3704 8.99487 59.3624 8.84216C59.3718 8.69114 59.436 8.54876 59.5431 8.44184V8.44184Z" fill="#DF1A2D"/>
<path d="M22.7603 12.7718C22.3765 12.3378 21.8357 12.1217 21.1378 12.1235L17.9494 12.135L17.7165 13.336L20.9048 13.3236C21.0538 13.3149 21.2028 13.3415 21.3396 13.4012C21.4764 13.4609 21.5972 13.5521 21.6922 13.6672C21.7852 13.7859 21.8503 13.9241 21.8825 14.0715C21.9147 14.2189 21.9132 14.3716 21.8782 14.5183L21.8303 14.7256L21.8153 14.8673L18.8608 14.8788C18.1684 14.8791 17.4979 15.1216 16.9655 15.5643C16.4176 15.9916 16.0445 16.6041 15.916 17.2869L15.885 17.4135C15.7391 18.1079 15.8548 18.6806 16.2321 19.1317C16.6094 19.5828 17.1479 19.8065 17.8476 19.803L22.0243 19.7879L23.1323 14.4519C23.2669 13.767 23.1429 13.207 22.7603 12.7718ZM21.051 18.5905L18.0964 18.6021C17.9452 18.6094 17.7944 18.5823 17.6552 18.5228C17.516 18.4633 17.3922 18.3729 17.2931 18.2584C17.0965 18.0282 17.0345 17.7444 17.1072 17.4073L17.139 17.2807C17.204 16.94 17.3934 16.6356 17.6704 16.4269C17.9343 16.203 18.2677 16.0778 18.6137 16.0726L21.5522 16.062L21.051 18.5905ZM29.9332 12.0899L28.6047 18.5914L25.5554 18.6029C25.404 18.6104 25.2528 18.5831 25.1136 18.523C24.9743 18.463 24.8507 18.3719 24.7521 18.2566C24.5546 18.0246 24.4935 17.7385 24.5661 17.3993L25.6422 12.1067H24.4191L23.343 17.3993C23.1972 18.099 23.3153 18.6756 23.6973 19.129C24.0793 19.5825 24.6201 19.8083 25.3198 19.8065L28.3851 19.795L28.2912 20.2379C28.2124 20.5753 28.0205 20.8757 27.7474 21.089C27.4924 21.3165 27.1652 21.4466 26.8237 21.4565L22.646 21.4725L22.3972 22.6796L26.5739 22.6637C27.2619 22.6565 27.925 22.4054 28.4453 21.9551C28.9919 21.5238 29.3714 20.9157 29.5187 20.2352L31.1713 12.081L29.9332 12.0899Z" fill="#DF1A2D"/>
<path d="M42.706 19.7676L38.5293 19.7835C37.8296 19.7835 37.2914 19.558 36.9147 19.1069C36.538 18.6558 36.422 18.0786 36.5667 17.3754L36.5977 17.2479C36.7253 16.5604 37.0986 15.9427 37.6481 15.5102C38.1796 15.0649 38.8508 14.8204 39.5442 14.8194L42.497 14.8088L42.5129 14.6653L42.5599 14.459C42.6219 14.1189 42.5599 13.8328 42.3739 13.6008C42.2794 13.4849 42.1588 13.3931 42.0219 13.3329C41.885 13.2727 41.7358 13.2458 41.5866 13.2545L38.1493 13.2669L38.3823 12.0571L41.8204 12.0447C42.5188 12.0447 43.0597 12.2625 43.4429 12.6983C43.8261 13.134 43.9498 13.6979 43.814 14.3899L42.706 19.7676ZM41.7318 18.5631L42.2304 16.0177L39.2918 16.0292C38.9456 16.0332 38.6118 16.1586 38.3486 16.3835C38.0713 16.5947 37.882 16.901 37.8172 17.2435L37.7871 17.371C37.7136 17.7102 37.7756 17.9971 37.9722 18.2292C38.0708 18.3444 38.1944 18.4355 38.3337 18.4956C38.4729 18.5556 38.624 18.5829 38.7755 18.5755L41.7318 18.5631Z" fill="#0B1B2B"/>
<path d="M50.7097 17.6659C50.6485 17.9869 50.5227 18.2922 50.34 18.5632C50.1573 18.8342 49.9215 19.0652 49.6469 19.2424C49.1122 19.6001 48.4808 19.7855 47.8375 19.7738L43.7086 19.7897L43.9584 18.5817L48.0882 18.5666C48.903 18.5631 49.3676 18.2649 49.4822 17.6721L49.5451 17.3861C49.6691 16.7956 49.3237 16.5004 48.5089 16.5004L46.649 16.5075C45.9611 16.5075 45.4297 16.3348 45.0548 15.9894C44.6303 15.6103 44.4853 15.0869 44.62 14.4191L44.6828 14.1331C44.7431 13.8123 44.8681 13.5071 45.05 13.2361C45.232 12.9651 45.4671 12.7339 45.7412 12.5566C46.2761 12.2 46.9069 12.0147 47.5497 12.0252L51.6945 12.0101L51.4705 13.2199L47.3256 13.2359C46.5102 13.2359 46.04 13.5341 45.9148 14.1304L45.8528 14.4165C45.7388 15.0099 46.0895 15.3051 46.9049 15.3021L48.7648 15.295C49.4521 15.295 49.9835 15.4677 50.359 15.8131C50.7723 16.1922 50.9119 16.7159 50.7779 17.3843L50.7097 17.6659Z" fill="#0B1B2B"/>
<path d="M56.2981 19.7738L54.3603 19.7809C53.6612 19.7809 53.1207 19.5535 52.7387 19.0989C52.3567 18.6443 52.2386 18.0633 52.3844 17.3559L53.2267 13.1765H52.4641L52.7298 11.9278H53.4924L54.0539 9.14151H55.2938L54.7323 11.9278L57.3007 11.918L57.035 13.1668L54.4666 13.1765L53.6243 17.3559C53.5517 17.6969 53.611 17.9856 53.8015 18.2194C53.8979 18.3357 54.0202 18.4278 54.1586 18.4884C54.297 18.549 54.4477 18.5764 54.5985 18.5684L56.5355 18.5613L56.2981 19.7738Z" fill="#0B1B2B"/>
<path d="M17.2099 12.8125C17.0744 13.4819 16.7013 14.0796 16.1595 14.4953C15.6417 14.9351 14.9861 15.1795 14.3067 15.1861L10.1442 15.2011L9.20626 19.8065H8L10.1353 9.42226L15.5068 9.40277C16.1752 9.40277 16.6956 9.62832 17.0682 10.0794C17.4408 10.5305 17.5588 11.0893 17.4225 11.7559L17.2099 12.8125ZM16.0045 12.8125L16.2197 11.7559C16.2918 11.4247 16.2327 11.1454 16.0426 10.9181C15.947 10.8048 15.8263 10.7151 15.6901 10.6563C15.554 10.5974 15.406 10.5709 15.2579 10.5789L11.0954 10.5949L10.3868 14.0135L14.5494 13.9984C14.8878 13.9955 15.2143 13.8732 15.4714 13.653C15.7414 13.4453 15.9301 13.1494 16.0045 12.817V12.8125Z" fill="#DF1A2D"/>
<path d="M40.5505 10.4009L35.4908 10.4195C35.1435 10.4316 34.8096 10.5569 34.5401 10.7762C34.2705 10.9956 34.08 11.297 33.9976 11.6346L33.5335 13.9453L36.6908 13.9329L36.4402 15.1586L33.2988 15.1701L32.3405 19.8003L31.1139 19.8056L32.7709 11.639C32.9195 10.9586 33.2936 10.3483 33.8327 9.90729C34.3718 9.46628 35.0441 9.22044 35.7405 9.2097L40.8003 9.1911L40.5505 10.4009Z" fill="#0B1B2B"/>
<path d="M31.8425 23.5511H30.7098L30.453 24.2516H30.2324L31.1756 21.7576H31.3767L32.3199 24.2516H32.1011L31.8425 23.5511ZM30.7753 23.3739H31.7752L31.2757 22.0154L30.7753 23.3739Z" fill="#0B1B2B"/>
<path d="M33.4935 24.2516V21.7576H34.2304C34.4357 21.7536 34.6384 21.8044 34.8176 21.9047C34.9876 22.0025 35.1255 22.1477 35.2144 22.3227C35.3102 22.5151 35.3582 22.7277 35.3543 22.9426V23.0675C35.3582 23.2825 35.3099 23.4953 35.2135 23.6875C35.1232 23.8627 34.983 24.0073 34.8105 24.1028C34.6267 24.2019 34.4205 24.2519 34.2118 24.2481L33.4935 24.2516ZM33.9275 22.1066V23.9053H34.21C34.3077 23.9115 34.4055 23.8955 34.4962 23.8586C34.5868 23.8216 34.6679 23.7646 34.7334 23.6919C34.8548 23.5502 34.9168 23.3456 34.9194 23.0799V22.9409C34.9194 22.6752 34.8601 22.4635 34.7423 22.3209C34.6791 22.2482 34.5999 22.191 34.5109 22.1538C34.422 22.1167 34.3257 22.1005 34.2295 22.1066H33.9275Z" fill="#0B1B2B"/>
<path d="M36.2196 23.3261V24.2516H35.7883V21.7576H36.7422C36.9829 21.7448 37.2197 21.8222 37.4064 21.9746C37.4874 22.0466 37.5514 22.1356 37.5938 22.2353C37.6363 22.335 37.656 22.4429 37.6517 22.5512C37.6575 22.6584 37.6388 22.7656 37.5971 22.8645C37.5554 22.9635 37.4917 23.0517 37.4108 23.1224C37.2505 23.2588 37.0256 23.3261 36.7369 23.3261H36.2196ZM36.2196 22.9772H36.7404C36.868 22.9865 36.9944 22.9476 37.0947 22.8682C37.1368 22.828 37.1696 22.7789 37.1907 22.7246C37.2118 22.6703 37.2207 22.612 37.2169 22.5538C37.2196 22.4944 37.21 22.435 37.1889 22.3794C37.1677 22.3238 37.1353 22.2732 37.0938 22.2306C37.0011 22.1468 36.8794 22.1024 36.7546 22.1066H36.2232L36.2196 22.9772Z" fill="#0B1B2B"/>
<path d="M40.0191 23.0693C40.024 23.2905 39.9808 23.5102 39.8924 23.7131C39.8166 23.8875 39.6905 24.0352 39.5302 24.1374C39.3663 24.2343 39.1794 24.2855 38.9891 24.2855C38.7987 24.2855 38.6118 24.2343 38.4479 24.1374C38.2869 24.036 38.1593 23.8894 38.0813 23.7158C37.9914 23.5173 37.9466 23.3013 37.9502 23.0834V22.9426C37.9454 22.7211 37.9895 22.5013 38.0795 22.2988C38.1564 22.1234 38.2833 21.9746 38.4444 21.871C38.608 21.7744 38.7946 21.7234 38.9846 21.7234C39.1747 21.7234 39.3612 21.7744 39.5249 21.871C39.6856 21.972 39.8123 22.1189 39.8889 22.2926C39.9786 22.4939 40.0231 22.7125 40.0191 22.9329V23.0693ZM39.586 22.9391C39.586 22.6628 39.5337 22.4511 39.4292 22.3041C39.3778 22.2352 39.311 22.1792 39.2341 22.1407C39.1572 22.1021 39.0724 22.0821 38.9864 22.0821C38.9004 22.0821 38.8156 22.1021 38.7387 22.1407C38.6618 22.1792 38.595 22.2352 38.5436 22.3041C38.4276 22.4894 38.3711 22.7057 38.3815 22.924V23.0675C38.3815 23.3421 38.4349 23.554 38.5418 23.7034C38.5907 23.7751 38.657 23.8332 38.7344 23.8724C38.8118 23.9115 38.8979 23.9305 38.9846 23.9275C39.0709 23.9316 39.1569 23.9136 39.2343 23.8754C39.3118 23.8371 39.3783 23.7798 39.4275 23.7087C39.5311 23.5626 39.5824 23.3483 39.5824 23.0675L39.586 22.9391Z" fill="#0B1B2B"/>
<path d="M43.1471 23.474C43.1342 23.7038 43.0334 23.9198 42.8655 24.0772C42.6867 24.2231 42.4601 24.2976 42.2296 24.2862C42.0556 24.2891 41.8847 24.2407 41.7381 24.1471C41.5926 24.0506 41.4781 23.914 41.4086 23.7539C41.3279 23.5707 41.2877 23.3722 41.2908 23.172V22.8488C41.2868 22.6461 41.3264 22.445 41.4068 22.2589C41.4772 22.097 41.5936 21.9593 41.7416 21.863C41.8919 21.7679 42.0668 21.7189 42.2446 21.7222C42.3582 21.7125 42.4725 21.7262 42.5805 21.7625C42.6886 21.7988 42.788 21.8569 42.8726 21.9332C42.9572 22.0096 43.0253 22.1025 43.0725 22.2062C43.1197 22.3099 43.1451 22.4222 43.1471 22.5361H42.9355C42.8823 22.1116 42.652 21.8996 42.2446 21.9002C42.1409 21.8966 42.0378 21.9178 41.9438 21.962C41.8499 22.0062 41.7678 22.0722 41.7044 22.1544C41.5698 22.3236 41.5025 22.5565 41.5025 22.855V23.1605C41.4897 23.4057 41.5588 23.6481 41.6991 23.8495C41.76 23.9325 41.8403 23.9992 41.9329 24.044C42.0255 24.0887 42.1277 24.1102 42.2305 24.1064C42.4108 24.1199 42.5893 24.0634 42.7291 23.9487C42.8514 23.8191 42.9247 23.651 42.9363 23.4731L43.1471 23.474Z" fill="#0B1B2B"/>
<path d="M43.4988 23.2978C43.4961 23.1314 43.5316 22.9666 43.6024 22.816C43.666 22.6788 43.7681 22.563 43.8962 22.4826C44.0243 22.4023 44.173 22.3609 44.3243 22.3634C44.4372 22.3595 44.5496 22.3807 44.6533 22.4256C44.757 22.4705 44.8494 22.5379 44.9238 22.6229C45.0839 22.8155 45.1661 23.061 45.1541 23.3111V23.3536C45.157 23.5209 45.1212 23.6867 45.0496 23.838C44.9868 23.9745 44.8855 24.0896 44.7582 24.1693C44.6288 24.2484 44.4795 24.289 44.3278 24.2862C44.215 24.2897 44.1029 24.2683 43.9994 24.2234C43.8959 24.1786 43.8036 24.1114 43.7291 24.0267C43.569 23.8341 43.4869 23.5886 43.4988 23.3385V23.2978ZM43.7043 23.3536C43.6963 23.5502 43.757 23.7434 43.8761 23.9C43.931 23.9665 43.9998 24.02 44.0777 24.0567C44.1557 24.0934 44.2408 24.1125 44.3269 24.1125C44.4131 24.1125 44.4981 24.0934 44.5761 24.0567C44.654 24.02 44.7229 23.9665 44.7777 23.9C44.8988 23.738 44.9596 23.5388 44.9495 23.3368V23.2978C44.9514 23.1637 44.9245 23.0309 44.8707 22.9081C44.8243 22.7982 44.7479 22.7037 44.6502 22.6353C44.554 22.5704 44.4402 22.5367 44.3243 22.5388C44.2381 22.5371 44.1528 22.5555 44.0751 22.5928C43.9975 22.63 43.9296 22.6849 43.877 22.7531C43.7559 22.9152 43.6948 23.1143 43.7043 23.3164V23.3536Z" fill="#0B1B2B"/>
<path d="M45.7631 22.398L45.7702 22.6991C45.8319 22.5939 45.9205 22.507 46.027 22.4476C46.1324 22.391 46.2503 22.3621 46.3698 22.3634C46.662 22.3634 46.8477 22.4836 46.9269 22.7239C46.9889 22.6123 47.0809 22.5202 47.1926 22.4582C47.3044 22.3951 47.4309 22.3628 47.5592 22.3643C47.9572 22.3643 48.16 22.5813 48.1677 23.0153V24.2552H47.9622V23.0303C47.9716 22.8986 47.9336 22.768 47.855 22.6619C47.8097 22.6184 47.7556 22.5852 47.6963 22.5646C47.637 22.544 47.5739 22.5364 47.5114 22.5423C47.3735 22.5406 47.2401 22.5916 47.1385 22.6849C47.0397 22.7718 46.9787 22.8938 46.9685 23.025V24.2516H46.763V23.0117C46.7718 22.8836 46.7316 22.757 46.6505 22.6575C46.6052 22.6153 46.5515 22.5831 46.4929 22.5629C46.4343 22.5428 46.3722 22.5352 46.3104 22.5405C46.1903 22.5373 46.0728 22.5762 45.9783 22.6504C45.8777 22.7362 45.8059 22.8509 45.7729 22.9789V24.2499H45.5674V22.398H45.7631Z" fill="#0B1B2B"/>
<path d="M50.1767 23.3438C50.1899 23.5878 50.1224 23.8294 49.9845 24.0311C49.9263 24.1125 49.849 24.1783 49.7595 24.2227C49.6699 24.2672 49.5708 24.289 49.4708 24.2862C49.3594 24.2924 49.2481 24.2715 49.1466 24.2252C49.0451 24.179 48.9563 24.1087 48.888 24.0205V24.9663H48.6843V22.398H48.8747L48.8854 22.6637C48.9479 22.568 49.0343 22.4903 49.136 22.4382C49.2377 22.3862 49.3513 22.3616 49.4655 22.367C49.5664 22.3634 49.6667 22.3845 49.7576 22.4285C49.8485 22.4725 49.9273 22.538 49.9871 22.6194C50.1135 22.7865 50.1767 23.0194 50.1767 23.3181V23.3438ZM49.9712 23.3075C49.982 23.1103 49.9309 22.9146 49.825 22.7478C49.7805 22.6819 49.7199 22.6284 49.6489 22.5924C49.5779 22.5565 49.4989 22.5392 49.4194 22.5423C49.3049 22.5386 49.192 22.5695 49.0953 22.6309C49.0015 22.697 48.9293 22.7895 48.888 22.8966V23.7822C48.9325 23.8825 49.0059 23.9673 49.0988 24.0258C49.1978 24.0856 49.3118 24.1161 49.4274 24.1135C49.5066 24.1164 49.5852 24.099 49.6558 24.0629C49.7264 24.0267 49.7865 23.9731 49.8304 23.9071C49.9225 23.7689 49.9712 23.5688 49.9712 23.3075Z" fill="#0B1B2B"/>
<path d="M51.8008 24.2516C51.7758 24.1676 51.7624 24.0806 51.761 23.993C51.6887 24.0868 51.5944 24.1613 51.4864 24.21C51.3752 24.2606 51.2544 24.2865 51.1322 24.2862C50.9743 24.2932 50.8197 24.2396 50.7 24.1365C50.6463 24.0897 50.6036 24.0316 50.575 23.9664C50.5463 23.9011 50.5325 23.8304 50.5343 23.7592C50.5323 23.6744 50.5519 23.5905 50.5915 23.5155C50.631 23.4404 50.6891 23.3768 50.7602 23.3305C50.9486 23.2154 51.1676 23.1604 51.3881 23.1729H51.7592V22.9621C51.7622 22.9043 51.7529 22.8465 51.7318 22.7926C51.7107 22.7387 51.6784 22.6899 51.637 22.6495C51.5374 22.5684 51.4109 22.5279 51.2827 22.5361C51.1557 22.5313 51.0309 22.5697 50.9285 22.645C50.8857 22.675 50.8506 22.7147 50.8263 22.7609C50.8019 22.8071 50.789 22.8585 50.7885 22.9107H50.5831C50.5845 22.8352 50.6039 22.7612 50.6397 22.6947C50.6754 22.6281 50.7264 22.5711 50.7885 22.5281C50.9331 22.4175 51.1114 22.3602 51.2934 22.3661C51.47 22.3563 51.6442 22.4114 51.7831 22.521C51.8434 22.5755 51.8911 22.6425 51.9227 22.7173C51.9544 22.7921 51.9693 22.8729 51.9664 22.9541V23.8309C51.9601 23.9676 51.9793 24.1043 52.0231 24.2339V24.2543L51.8008 24.2516ZM51.1561 24.1046C51.2856 24.1065 51.413 24.0718 51.5236 24.0045C51.6281 23.9429 51.7105 23.8499 51.7592 23.7388V23.3305H51.3925C51.2256 23.3237 51.0599 23.3626 50.9134 23.443C50.8659 23.4703 50.8255 23.5084 50.7956 23.5544C50.7657 23.6003 50.7472 23.6527 50.7416 23.7072C50.736 23.7617 50.7434 23.8168 50.7633 23.8679C50.7831 23.919 50.8149 23.9646 50.8558 24.001C50.9394 24.072 51.0465 24.109 51.1561 24.1046V24.1046Z" fill="#0B1B2B"/>
<path d="M52.704 22.398L52.7111 22.715C52.7735 22.6054 52.8632 22.5139 52.9715 22.4493C53.0763 22.3895 53.1953 22.3589 53.316 22.3608C53.3977 22.3546 53.4796 22.3665 53.5562 22.3956C53.6327 22.4246 53.7019 22.4702 53.7588 22.529C53.8554 22.6406 53.905 22.8089 53.9059 23.033V24.249H53.7022V23.0339C53.7111 22.902 53.6738 22.7711 53.5968 22.6636C53.554 22.6201 53.5021 22.5866 53.4448 22.5656C53.3875 22.5446 53.3263 22.5367 53.2655 22.5423C53.1425 22.5406 53.0229 22.5826 52.9281 22.661C52.8272 22.7456 52.7523 22.8571 52.712 22.9825V24.2516H52.5083V22.398H52.704Z" fill="#0B1B2B"/>
<path d="M55.0245 23.9567L55.5656 22.3979H55.7871L54.9953 24.5669L54.9545 24.6626C54.8524 24.8875 54.6953 25 54.4834 25C54.43 24.9994 54.3769 24.9914 54.3257 24.9761V24.8069L54.432 24.8167C54.5193 24.8207 54.6054 24.7944 54.6756 24.7423C54.7509 24.6731 54.8057 24.5846 54.8341 24.4863L54.9227 24.2366L54.2239 22.3979H54.4479L55.0245 23.9567Z" fill="#0B1B2B"/>
<rect x="0.5" y="0.5" width="73.8338" height="31" rx="5.5" stroke="#D9D9D9"/>
</svg>
