<svg width="114" height="32" viewBox="0 0 114 32" fill="none" xmlns="http://www.w3.org/2000/svg">
<rect x="0.5" y="0.5" width="112.005" height="31" rx="5.5" fill="white"/>
<path d="M28.1939 11.4102C28.7636 11.4102 29.249 11.4947 29.6499 11.6635C30.0509 11.8323 30.3674 12.0434 30.6206 12.3177C30.8739 12.5919 31.0637 12.9085 31.1693 13.2461C31.2748 13.6049 31.3381 13.9636 31.3381 14.3223C31.3381 14.6811 31.2748 15.0398 31.1693 15.3986C31.0637 15.7573 30.8739 16.0527 30.6206 16.327C30.3674 16.6014 30.0509 16.8124 29.6499 16.9812C29.249 17.15 28.7636 17.2344 28.1939 17.2344H26.0838V20.5053H24.0791V11.4102H28.1939ZM27.6452 15.694C27.8773 15.694 28.0884 15.6728 28.2994 15.6518C28.5105 15.6095 28.7003 15.5462 28.8692 15.4619C29.038 15.3564 29.1647 15.2298 29.249 15.0398C29.3544 14.871 29.3968 14.6178 29.3968 14.3435C29.3968 14.0481 29.3544 13.816 29.249 13.6472C29.1435 13.4782 29.0169 13.3306 28.8692 13.2251C28.7003 13.1195 28.5315 13.0563 28.2994 13.0352C28.0884 12.993 27.8563 12.993 27.6452 12.993H26.0838V15.7152L27.6452 15.694Z" fill="#556677"/>
<path d="M32.2454 11.4102H34.0601V12.9085H32.2454V11.4102ZM34.0601 20.5053H32.2454V13.9214H34.0601V20.5053Z" fill="#556677"/>
<path d="M37.2043 13.9214V14.8287H37.2466C37.4787 14.449 37.7741 14.1747 38.1329 13.9848C38.4916 13.816 38.8714 13.7315 39.2513 13.7315C39.7366 13.7315 40.1375 13.7948 40.433 13.9214C40.7284 14.0481 40.9817 14.2379 41.1714 14.4701C41.3404 14.7022 41.4669 14.9977 41.5514 15.3141C41.6147 15.6518 41.6568 16.0316 41.6568 16.4325V20.5053H39.8421V16.7912C39.8421 16.2427 39.7576 15.8416 39.5888 15.5674C39.4201 15.2931 39.1246 15.1665 38.6814 15.1665C38.1962 15.1665 37.8375 15.3141 37.6053 15.6095C37.3942 15.9049 37.2676 16.3903 37.2676 17.0657V20.5053H35.4529V13.9214H37.2043Z" fill="#556677"/>
<path d="M50.8575 11.4102C51.4273 11.4102 51.9125 11.4947 52.3136 11.6635C52.7145 11.8323 53.0311 12.0434 53.2842 12.3177C53.5375 12.5919 53.7274 12.9085 53.8329 13.2461C53.9384 13.6049 54.0017 13.9636 54.0017 14.3223C54.0017 14.6811 53.9384 15.0398 53.8329 15.3986C53.7274 15.7573 53.5375 16.0527 53.2842 16.327C53.0311 16.6014 52.7145 16.8124 52.3136 16.9812C51.9125 17.15 51.4273 17.2344 50.8575 17.2344H48.7473V20.5053H46.7427V11.4102H50.8575ZM50.309 15.694C50.5411 15.694 50.752 15.6728 50.9631 15.6518C51.1741 15.6095 51.364 15.5462 51.5328 15.4619C51.7016 15.3564 51.8282 15.2298 51.9125 15.0398C52.0182 14.871 52.0603 14.6178 52.0603 14.3435C52.0603 14.0481 52.0182 13.816 51.9125 13.6472C51.8071 13.4782 51.6804 13.3306 51.5328 13.2251C51.364 13.1195 51.1952 13.0563 50.9631 13.0352C50.752 12.993 50.5199 12.993 50.309 12.993H48.7473V15.7152L50.309 15.694Z" fill="#556677"/>
<path d="M54.8881 14.892C55.0781 14.6178 55.3102 14.3856 55.6056 14.2169C55.901 14.0481 56.2175 13.9214 56.5762 13.8581C56.9349 13.7948 57.2937 13.7526 57.6736 13.7526C58.0112 13.7526 58.3488 13.7736 58.6865 13.816C59.0241 13.8581 59.3407 13.9636 59.6149 14.0902C59.8892 14.2169 60.1213 14.4068 60.3113 14.6599C60.4801 14.892 60.5857 15.2298 60.5857 15.6307V19.0491C60.5857 19.3446 60.6067 19.64 60.6279 19.8933C60.67 20.1675 60.7122 20.3786 60.7966 20.5053H58.9608C58.9186 20.3996 58.8975 20.2942 58.8763 20.1887C58.8553 20.0832 58.8341 19.9776 58.8341 19.8721C58.5387 20.1675 58.2011 20.3786 57.8212 20.5053C57.4203 20.6317 57.0404 20.6741 56.6185 20.6741C56.3019 20.6741 56.0065 20.6317 55.7323 20.5684C55.4578 20.4841 55.2257 20.3786 55.0148 20.2099C54.8036 20.0409 54.656 19.8511 54.5294 19.5978C54.4239 19.3446 54.3606 19.0491 54.3606 18.7116C54.3606 18.3317 54.4239 18.0362 54.5506 17.7831C54.677 17.5508 54.846 17.3399 55.0569 17.2133C55.2679 17.0656 55.5001 16.96 55.7744 16.8969C56.0487 16.8335 56.3019 16.7702 56.5762 16.7279C56.8506 16.6857 57.1249 16.6436 57.3782 16.6224C57.6314 16.6014 57.8845 16.5591 58.0745 16.5169C58.2854 16.4748 58.4332 16.3903 58.5599 16.2848C58.6865 16.1794 58.7287 16.0527 58.7287 15.8628C58.7287 15.6728 58.7075 15.504 58.6232 15.3986C58.5387 15.2931 58.4754 15.1874 58.3699 15.1241C58.2644 15.061 58.1378 15.0187 57.99 14.9977C57.8424 14.9765 57.6946 14.9553 57.547 14.9553C57.1882 14.9553 56.914 15.0398 56.7028 15.1874C56.4919 15.3352 56.3864 15.5885 56.3441 15.9473H54.5294C54.5927 15.5252 54.6982 15.1665 54.8881 14.892ZM58.4544 17.4454C58.3488 17.4877 58.2223 17.5087 58.0745 17.5508C57.9479 17.572 57.8002 17.5932 57.6524 17.6142C57.5048 17.6353 57.357 17.6565 57.2094 17.6775C57.0827 17.6986 56.9349 17.7408 56.8083 17.7831C56.6818 17.8253 56.5552 17.8886 56.4707 17.9519C56.3864 18.0152 56.3019 18.1207 56.2386 18.2262C56.1753 18.3317 56.1541 18.4795 56.1541 18.6482C56.1541 18.817 56.1753 18.9437 56.2386 19.0491C56.3019 19.1546 56.3864 19.2391 56.4707 19.3024C56.5762 19.3657 56.6818 19.4079 56.8295 19.4291C56.9561 19.45 57.1037 19.4712 57.2515 19.4712C57.6103 19.4712 57.8845 19.4079 58.0745 19.3024C58.2644 19.1758 58.4121 19.0491 58.5177 18.8804C58.602 18.7116 58.6653 18.5428 58.6865 18.374C58.7075 18.205 58.7075 18.0786 58.7075 17.9729V17.2978C58.6653 17.3611 58.5809 17.4032 58.4544 17.4454Z" fill="#556677"/>
<path d="M64.3838 22.4676C64.0461 22.6997 63.5607 22.8054 62.9277 22.8054C62.7377 22.8054 62.5479 22.8054 62.379 22.7842C62.1892 22.7631 62.0204 22.763 61.8304 22.7421V21.2438C61.9992 21.2649 62.168 21.2859 62.358 21.2859C62.5268 21.3071 62.7167 21.3071 62.8855 21.3071C63.1176 21.2859 63.3076 21.1804 63.413 21.0328C63.5185 20.8639 63.5818 20.6951 63.5818 20.5053C63.5818 20.3575 63.5607 20.2309 63.4975 20.1042L61.1973 13.9214H63.1176L64.6159 18.4373H64.6369L66.0719 13.9214H67.9499L65.2068 21.3282C65.0168 21.8558 64.7424 22.2355 64.3838 22.4676Z" fill="#556677"/>
<path d="M70.3344 13.9214V14.8077H70.3554C70.5877 14.4701 70.8831 14.1957 71.2207 14.0269C71.5583 13.837 71.9382 13.7527 72.3812 13.7527C72.8033 13.7527 73.1832 13.837 73.5208 13.9848C73.8584 14.1536 74.1328 14.4278 74.3016 14.8287C74.4915 14.5333 74.7658 14.2802 75.1034 14.0691C75.441 13.8581 75.842 13.7315 76.2851 13.7315C76.6228 13.7315 76.9604 13.7736 77.2558 13.8581C77.5513 13.9424 77.8045 14.0691 78.0155 14.259C78.2264 14.449 78.3954 14.6811 78.5219 14.9977C78.6485 15.2931 78.6908 15.6518 78.6908 16.0949V20.5053H76.8759V16.7702C76.8759 16.5591 76.8759 16.3482 76.8549 16.1371C76.8338 15.9473 76.7916 15.7783 76.7071 15.6307C76.6228 15.4829 76.5172 15.3774 76.3696 15.2931C76.2218 15.2086 76.0108 15.1665 75.7575 15.1665C75.5043 15.1665 75.2933 15.2086 75.1455 15.3141C74.9979 15.4197 74.8713 15.5462 74.7658 15.694C74.6813 15.8416 74.618 16.0316 74.597 16.2215C74.5758 16.4115 74.5547 16.6224 74.5547 16.8336V20.5053H72.74V16.8124C72.74 16.6224 72.74 16.4325 72.7188 16.2427C72.7188 16.0527 72.6767 15.884 72.6133 15.7152C72.55 15.5462 72.4445 15.4197 72.2969 15.3353C72.1491 15.2298 71.9382 15.1875 71.6427 15.1875C71.5583 15.1875 71.4528 15.2086 71.305 15.2508C71.1574 15.2931 71.0307 15.3564 70.9041 15.4619C70.7775 15.5674 70.6508 15.7152 70.5665 15.9261C70.482 16.1371 70.4187 16.3903 70.4187 16.7069V20.5053H68.604V13.9214H70.3344Z" fill="#556677"/>
<path d="M81.8981 18.9225C82.1723 19.1758 82.5522 19.3234 83.0798 19.3234C83.4385 19.3234 83.7551 19.2391 84.0294 19.0491C84.2826 18.8592 84.4514 18.6694 84.5148 18.4795H86.0974C85.8441 19.2603 85.4432 19.83 84.9157 20.1675C84.3881 20.5053 83.7551 20.6741 82.9955 20.6741C82.4678 20.6741 82.0035 20.5896 81.6026 20.4208C81.1806 20.252 80.843 20.0199 80.5476 19.7245C80.2522 19.4291 80.0412 19.0491 79.8722 18.6271C79.7246 18.205 79.6401 17.7408 79.6401 17.2344C79.6401 16.7491 79.7246 16.2848 79.8722 15.8628C80.0412 15.4407 80.2733 15.061 80.5687 14.7656C80.8642 14.449 81.2229 14.2169 81.6238 14.0269C82.0247 13.8369 82.4889 13.7526 82.9955 13.7526C83.5652 13.7526 84.0505 13.8581 84.4514 14.0691C84.8735 14.2802 85.2111 14.5756 85.4853 14.9343C85.7598 15.2931 85.9497 15.715 86.0552 16.1794C86.1818 16.6436 86.224 17.129 86.1818 17.6353H81.4339C81.476 18.2473 81.6238 18.6694 81.8981 18.9225ZM83.9239 15.4619C83.7128 15.2298 83.3752 15.1031 82.9322 15.1031C82.6367 15.1031 82.4046 15.1453 82.2147 15.2508C82.0247 15.3564 81.8769 15.4619 81.7504 15.6095C81.6448 15.7573 81.5605 15.9049 81.5183 16.0737C81.476 16.2427 81.4339 16.3691 81.4339 16.5169H84.367C84.3036 16.0527 84.156 15.694 83.9239 15.4619Z" fill="#556677"/>
<path d="M88.9255 13.9214V14.8287H88.9676C89.1997 14.449 89.4951 14.1747 89.8539 13.9848C90.2126 13.816 90.5925 13.7315 90.9723 13.7315C91.4577 13.7315 91.8587 13.7948 92.1542 13.9214C92.4706 14.0481 92.7027 14.2379 92.8926 14.4701C93.0614 14.7022 93.1881 14.9977 93.2725 15.3141C93.3359 15.6518 93.378 16.0316 93.378 16.4325V20.5053H91.5633V16.7912C91.5633 16.2427 91.4788 15.8416 91.31 15.5674C91.1412 15.2931 90.8458 15.1665 90.4026 15.1665C89.9172 15.1665 89.5585 15.3141 89.3264 15.6095C89.1154 15.9049 88.9888 16.3903 88.9888 17.0657V20.5053H87.1741V13.9214H88.9255Z" fill="#556677"/>
<path d="M98.379 13.9214V15.1241H97.0496V18.395C97.0496 18.6904 97.0918 18.9015 97.1973 19.007C97.3029 19.1125 97.5139 19.1546 97.8093 19.1546C97.9147 19.1546 97.9992 19.1546 98.1047 19.1336C98.1892 19.1336 98.2947 19.1125 98.379 19.0913V20.4841C98.2313 20.5053 98.0626 20.5263 97.8726 20.5263C97.6826 20.5263 97.4927 20.5475 97.3239 20.5475C97.0496 20.5475 96.7754 20.5263 96.5221 20.4841C96.2688 20.442 96.0579 20.3787 95.8679 20.252C95.678 20.1254 95.5304 19.9776 95.4247 19.7878C95.3192 19.5767 95.2559 19.3236 95.2559 18.9858V15.1241H94.1587V13.9214H95.2559V11.9378H97.0708V13.9214H98.379Z" fill="#556677"/>
<path d="M100.763 18.8592C100.848 19.007 100.953 19.1125 101.08 19.197C101.206 19.2813 101.354 19.3446 101.523 19.3867C101.692 19.4291 101.861 19.4501 102.029 19.4501C102.156 19.4501 102.283 19.4291 102.43 19.4079C102.578 19.3867 102.705 19.3236 102.81 19.2603C102.916 19.197 103.021 19.1125 103.106 19.007C103.19 18.9015 103.211 18.7749 103.211 18.6061C103.211 18.3317 103.021 18.1207 102.662 17.9941C102.304 17.8674 101.797 17.7198 101.143 17.5932C100.89 17.5299 100.616 17.4666 100.362 17.3821C100.109 17.2978 99.8981 17.1923 99.6871 17.0657C99.4972 16.939 99.3284 16.7702 99.2229 16.5591C99.0963 16.3692 99.054 16.1161 99.054 15.8206C99.054 15.3986 99.1384 15.0398 99.3072 14.7656C99.476 14.4911 99.6871 14.2802 99.9614 14.1324C100.236 13.9848 100.531 13.8581 100.869 13.7948C101.206 13.7315 101.565 13.6893 101.924 13.6893C102.283 13.6893 102.62 13.7315 102.958 13.7948C103.296 13.8581 103.591 13.9848 103.865 14.1324C104.119 14.3012 104.351 14.5123 104.519 14.7656C104.688 15.0398 104.794 15.3774 104.836 15.7783H103.127C103.106 15.4407 102.979 15.1875 102.726 15.082C102.494 14.9553 102.198 14.892 101.882 14.892C101.776 14.892 101.671 14.892 101.544 14.9132C101.417 14.9344 101.312 14.9553 101.228 14.9977C101.122 15.0398 101.038 15.1031 100.974 15.1874C100.911 15.2719 100.869 15.3774 100.869 15.504C100.869 15.6728 100.932 15.7995 101.038 15.9049C101.164 16.0106 101.312 16.0949 101.502 16.1582C101.692 16.2215 101.903 16.2848 102.156 16.327C102.409 16.3692 102.662 16.4325 102.916 16.4958C103.169 16.5591 103.443 16.6224 103.696 16.7069C103.95 16.7912 104.161 16.8969 104.372 17.0445C104.562 17.1923 104.73 17.3611 104.836 17.572C104.963 17.7831 105.005 18.0362 105.005 18.3528C105.005 18.7959 104.92 19.1546 104.752 19.4501C104.583 19.7455 104.351 19.9776 104.076 20.1466C103.802 20.3153 103.485 20.442 103.106 20.5263C102.747 20.5896 102.367 20.6318 102.008 20.6318C101.628 20.6318 101.249 20.5896 100.89 20.5263C100.531 20.442 100.193 20.3153 99.9192 20.1466C99.6448 19.9776 99.3917 19.7245 99.2229 19.4501C99.033 19.1546 98.9485 18.7959 98.9275 18.3528H100.637C100.658 18.5638 100.679 18.7327 100.763 18.8592Z" fill="#556677"/>
<path d="M13.5919 10.6084C14.6893 10.6084 15.5756 11.4947 15.5756 12.5919C15.5756 13.4151 15.1747 14.7022 14.5839 16.1161C15.0902 17.3399 15.7444 18.6904 16.3986 19.9566C17.7912 17.2344 19.2052 14.1324 19.2052 12.5919C19.2052 9.51121 16.694 7 13.6131 7C10.5322 7 8 9.49004 8 12.5919C8 15.5464 13.1067 24.198 13.5919 25C13.7609 24.7046 14.4994 23.4596 15.4068 21.8136C13.7609 18.817 11.6084 14.5123 11.6084 12.5919C11.6084 11.4947 12.4947 10.6084 13.5919 10.6084Z" fill="#CC1111"/>
<rect x="0.5" y="0.5" width="112.005" height="31" rx="5.5" stroke="#D9D9D9"/>
</svg>
