<svg width="66" height="32" viewBox="0 0 66 32" fill="none" xmlns="http://www.w3.org/2000/svg">
<rect x="0.5" y="0.5" width="65" height="31" rx="5.5" fill="white"/>
<path fill-rule="evenodd" clip-rule="evenodd" d="M53.248 20.99C51.757 21.1075 50.5185 20.118 50.5185 18.391C50.5185 16.6657 51.7545 15.6959 53.2433 15.8088C56.325 16.0421 56.3289 20.7475 53.248 20.99ZM58 14.4914H57.9992V14.3107C57.9992 14.2153 57.9215 14.138 57.8254 14.138H56.0359C55.9398 14.138 55.8621 14.2153 55.8621 14.3107V14.4852L55.863 14.4861H55.8621V14.5285C55.8531 14.6129 55.7536 14.6396 55.6938 14.5796C55.3436 14.2284 54.1854 13.9035 53.1297 13.9035C50.6069 13.8861 48.6274 15.4339 48.6274 18.3901C48.6274 21.3985 50.5194 22.9635 53.0771 22.9464C54.0299 22.929 55.1233 22.8109 55.8621 21.8332V22.8027C55.8621 22.8981 55.9398 22.9754 56.0359 22.9754H57.8254C57.9215 22.9754 57.9992 22.8981 57.9992 22.8027V22.4733L58 22.1799V14.4914Z" fill="#F16521"/>
<path fill-rule="evenodd" clip-rule="evenodd" d="M16.628 19.1552C16.7681 20.216 17.6967 20.9812 19.2032 20.9812C19.9916 20.9812 21.0252 20.6855 21.5158 20.1813L22.8823 21.5202C21.9713 22.4593 20.4821 22.9114 19.1681 22.9114C16.1899 22.9114 14.4204 21.0855 14.4204 18.3379C14.4204 15.7295 16.2075 13.8514 19.0106 13.8514C21.9013 13.8514 23.7056 15.6252 23.3729 19.1552H16.628ZM21.3235 17.3966C21.1834 16.2838 20.3075 15.7273 19.081 15.7273C17.9248 15.7273 16.9787 16.2838 16.6633 17.3966H21.3235Z" fill="#F16521"/>
<path fill-rule="evenodd" clip-rule="evenodd" d="M12.5726 14.1809C11.6967 14.1809 10.803 14.3375 10.1374 15.3982V14.5597C10.1374 14.4643 10.0595 14.387 9.9634 14.387H8.1741C8.078 14.387 8 14.4643 8 14.5597V15.07V15.3883V15.6707V16.5034V21.2685V21.7163L8.002 21.7186L8 21.7197V22.3481V22.8073C8 22.9028 8.078 22.9801 8.1741 22.9801H9.9634C10.0595 22.9801 10.1374 22.9028 10.1374 22.8073V21.9129C10.1374 21.8696 10.1425 21.8285 10.1374 21.7867V20.456V18.4587C10.1374 16.8765 11.171 16.2851 12.2923 16.2851C12.993 16.2851 13.396 16.4763 13.834 16.8415L14.7975 14.9982C14.3245 14.5287 13.4659 14.1809 12.5726 14.1809Z" fill="#F16521"/>
<path fill-rule="evenodd" clip-rule="evenodd" d="M39.0684 22.9809H41.2073V14.3731H39.0684V22.9809Z" fill="white"/>
<path fill-rule="evenodd" clip-rule="evenodd" d="M41.2073 21.901V18.3901H41.2065V14.5458C41.2065 14.4504 41.1286 14.3731 41.0324 14.3731H39.2432C39.1471 14.3731 39.069 14.4504 39.069 14.5458V20.2807C39.069 20.2837 39.0699 20.2866 39.07 20.2896V21.7171L39.0729 21.7206H39.069V21.9039C39.0688 21.9089 39.0684 21.9142 39.0684 21.9194C39.0684 21.9245 39.0688 21.9296 39.069 21.9348V22.8081C39.069 22.9036 39.1471 22.981 39.2432 22.981H41.0324C41.1286 22.981 41.2065 22.9036 41.2065 22.8081V21.9351C41.2066 21.9298 41.2073 21.9246 41.2073 21.9194C41.2073 21.9142 41.2068 21.9089 41.2065 21.9039V21.9011L41.2073 21.901Z" fill="#F16521"/>
<path fill-rule="evenodd" clip-rule="evenodd" d="M34.1189 14.2832C32.9977 14.2832 31.9991 14.6309 31.2282 15.8483C30.7377 14.6657 29.704 14.2484 28.6704 14.2484C27.847 14.2484 26.8484 14.5614 26.393 15.4309V14.5577C26.393 14.4622 26.315 14.3849 26.2189 14.3849H24.4297C24.3335 14.3849 24.2556 14.4622 24.2556 14.5577V15.6512V16.5014V20.8582V21.7142V22.8019C24.2556 22.8973 24.3335 22.9747 24.4297 22.9747H26.2189C26.315 22.9747 26.393 22.8973 26.393 22.8019V21.7142V18.3872C26.393 17.2568 27.0763 16.2308 28.2325 16.2308C29.4062 16.2308 30.0019 17.2568 30.0019 18.3872V21.7142L30.0074 21.7208V22.8053C30.0074 22.9007 30.0853 22.978 30.1815 22.978H31.9707C32.0668 22.978 32.1449 22.9007 32.1449 22.8053V20.454H32.1392V18.3872C32.1392 17.2568 32.8575 16.2656 34.0138 16.2656C35.17 16.2656 35.6431 17.222 35.6431 18.3523V20.8582H35.643V22.8019C35.643 22.8973 35.7209 22.9747 35.817 22.9747H37.6063C37.7025 22.9747 37.7804 22.8973 37.7804 22.8019V21.7142V20.8582V18.3523C37.7804 15.7787 36.5716 14.2832 34.1189 14.2832Z" fill="#F16521"/>
<path fill-rule="evenodd" clip-rule="evenodd" d="M32.1304 12.6009C31.7007 13.0318 31.0038 13.0318 30.574 12.6009C30.1443 12.17 30.1443 11.4714 30.574 11.0406C31.0038 10.6097 31.7007 10.6097 32.1304 11.0406C32.5602 11.4714 32.5602 12.17 32.1304 12.6009Z" fill="#F16521"/>
<path fill-rule="evenodd" clip-rule="evenodd" d="M36.5621 12.4938C35.992 13.0653 35.0678 13.0653 34.4978 12.4938C33.9278 11.9224 33.9278 10.9958 34.4978 10.4243C35.0678 9.85288 35.992 9.85288 36.5621 10.4243C37.1321 10.9958 37.1321 11.9224 36.5621 12.4938Z" fill="#F16521"/>
<path fill-rule="evenodd" clip-rule="evenodd" d="M41.5822 12.351C40.822 13.1132 39.5893 13.1132 38.8289 12.351C38.0687 11.5888 38.0687 10.353 38.8289 9.59068C39.5893 8.82848 40.822 8.82848 41.5822 9.59068C42.3426 10.353 42.3426 11.5888 41.5822 12.351Z" fill="#1CA78B"/>
<path fill-rule="evenodd" clip-rule="evenodd" d="M48.1268 20.6358C48.1268 20.6358 47.7325 20.7639 47.48 20.8269C47.2279 20.8903 47.0122 20.922 46.8336 20.922C46.6968 20.922 46.568 20.9062 46.4472 20.8746C46.3261 20.8428 46.2185 20.7851 46.1238 20.7007C46.0292 20.6164 45.9527 20.5004 45.8951 20.3528C45.8373 20.2053 45.8084 20.0155 45.8084 19.7836V15.1729H48.0068C48.102 15.1729 48.1792 15.0947 48.1792 14.9984V13.2045C48.1792 13.1082 48.102 13.03 48.0068 13.03H45.8084V10.3983H45.0672C44.8989 11.3575 44.5862 12.1374 44.1289 12.7382C43.6715 13.3391 43.0747 13.7924 42.3389 14.0979V15.1257H43.5374V19.6255C43.5374 20.1947 43.5873 20.6903 43.6873 21.1116C43.7871 21.5333 43.9475 21.8812 44.1682 22.1552C44.389 22.4295 44.6833 22.6323 45.0514 22.7639C45.4193 22.8955 46.1209 22.9722 46.6569 22.9616C47.9276 22.9366 48.4395 22.5923 48.671 22.4444L48.1268 20.6358Z" fill="#F16521"/>
<rect x="0.5" y="0.5" width="65" height="31" rx="5.5" stroke="#D9D9D9"/>
</svg>
