<svg width="102" height="32" viewBox="0 0 102 32" fill="none" xmlns="http://www.w3.org/2000/svg">
<rect x="0.5" y="0.5" width="100.045" height="31" rx="5.5" fill="white"/>
<path d="M8.8482 11.1249C8.51786 11.2768 8.22322 11.5893 8.09822 11.9197C8.03572 12.0893 8 13.6786 8 16.5893V21H10.0536V18.2322H12.7857L13.4999 19.6161L14.2053 21H15.3929C16.0356 21 16.5714 20.9733 16.5714 20.9464C16.5714 20.9106 16.2053 20.1785 15.75 19.3214L14.9375 17.7499L15.1518 17.616C16.3571 16.8214 16.8929 15.2589 16.5714 13.4733C16.3661 12.3839 15.8393 11.616 15.0267 11.259C14.5715 11.0537 14.4911 11.0447 11.8392 11.0268C9.69642 11.009 9.0625 11.0268 8.8482 11.1249ZM14.0267 13.1428C14.1696 13.1965 14.3125 13.3571 14.3929 13.5625C14.5625 13.9643 14.5803 14.9911 14.4286 15.2946C14.0447 16.0357 13.5713 16.1786 11.5536 16.1786H10.0536V13.0536H11.9196C12.9463 13.0536 13.8928 13.0893 14.0267 13.1428ZM19.607 11.0804C18.7232 11.3482 18.0892 11.9822 17.8214 12.8483C17.6071 13.5447 17.375 15.1874 17.375 15.9821C17.375 16.7499 17.5892 18.3124 17.7767 18.9464C18.1072 20.0446 18.6695 20.6071 19.7052 20.8749C20.1518 20.991 20.625 21.0088 22.1428 20.9821C23.8839 20.9553 24.0625 20.9286 24.4999 20.741C25.7589 20.1785 26.3035 18.75 26.3035 16C26.2945 13.1071 25.7321 11.6787 24.4017 11.1876C23.9285 11.0179 23.7232 11 21.857 11.009C20.7411 11.009 19.7321 11.0447 19.607 11.0804ZM23.7589 13.2589C24.357 14.0803 24.3482 18.125 23.741 18.7231C23.5624 18.9107 20.1249 18.9197 19.9732 18.7411C19.5535 18.2322 19.4017 15.2946 19.7232 13.9197C19.8571 13.3751 19.9285 13.2053 20.0804 13.1428C20.1875 13.0983 21.0356 13.0714 21.9554 13.0803C23.4642 13.0983 23.6518 13.1161 23.7589 13.2589ZM28.2321 11.1964C28.0356 11.3125 27.7945 11.5446 27.6963 11.7142C27.5177 12.0179 27.5088 12.1786 27.482 15.75C27.4642 18.241 27.491 19.5892 27.5535 19.8392C27.7053 20.3928 28.098 20.7947 28.6338 20.9018C29.1874 21.0268 33.125 21.0268 33.8302 20.9106C35.2053 20.6875 35.9106 19.8839 36.0087 18.4106C36.0714 17.5803 35.9373 16.9643 35.5891 16.4107L35.3302 16.009L35.6605 15.366C35.982 14.75 35.991 14.6875 35.991 13.8215C35.991 13.0803 35.9463 12.8393 35.7856 12.4733C35.5266 11.9108 35.2141 11.5803 34.6517 11.2858L34.2052 11.0447L31.3927 11.0179C28.6071 11 28.5803 11 28.2321 11.1964ZM33.7588 13.1608C33.8839 13.2857 33.9641 13.8839 33.8839 14.1607C33.8392 14.3214 33.6963 14.5447 33.5714 14.6696C33.3481 14.8839 33.3124 14.8839 31.4731 14.9107L29.6071 14.9376V13.0446L31.6517 13.0714C32.7767 13.0893 33.7231 13.125 33.7588 13.1608ZM33.366 17.1429C33.7231 17.2857 33.9196 17.6697 33.9106 18.1785C33.9017 18.5 33.857 18.6607 33.75 18.7411C33.6338 18.8303 33.0713 18.8572 31.5982 18.8572H29.6071V16.9643L31.3749 17C32.3391 17.0267 33.2409 17.0894 33.366 17.1429ZM38.9998 11.1876C38.1338 11.5268 37.6963 12.1339 37.3569 13.4733C37.1873 14.1518 37.1606 14.5089 37.1606 16C37.1606 17.625 37.1785 17.8036 37.4016 18.6339C37.6784 19.6429 37.9374 20.0803 38.4552 20.4642C39.098 20.9196 39.2946 20.9553 41.5713 20.9553C43.848 20.9553 44.0445 20.9196 44.6873 20.4642C45.2052 20.0803 45.4642 19.6429 45.7409 18.6339C45.9641 17.8036 45.982 17.625 45.982 16C45.982 14.5089 45.9553 14.1518 45.7855 13.4733C45.4462 12.1161 45.0088 11.5178 44.116 11.1876C43.6606 11.0179 43.4373 11 41.5445 11.009C39.6785 11.009 39.4285 11.0268 38.9998 11.1876ZM43.3034 13.1428C43.5445 13.2322 43.6516 13.509 43.8213 14.5179C44.0356 15.7589 43.848 18.0981 43.491 18.6429C43.3569 18.8572 43.3481 18.8572 41.5713 18.8572C39.482 18.8572 39.6071 18.9197 39.3748 17.7321C39.0445 16.0892 39.3123 13.3482 39.8124 13.1428C40.0802 13.0357 43.0177 13.0357 43.3034 13.1428Z" fill="#276EB8"/>
<path d="M47.6523 11.2768L47.3755 11.5536V20.3928L47.6345 20.6518C47.8666 20.8749 47.9648 20.9106 48.4201 20.9106C48.8577 20.9106 48.9827 20.8749 49.1433 20.7053C49.4558 20.375 49.5185 19.9911 49.5185 18.4375V16.9822H50.8309L51.4916 17.5535C52.8131 18.6874 53.2685 19.2946 53.2685 19.9017C53.2685 20.2411 53.313 20.3481 53.572 20.6071C53.8398 20.8749 53.929 20.9106 54.3309 20.9106C54.7059 20.9106 54.8308 20.8661 55.072 20.6518C55.3576 20.4018 55.3666 20.366 55.3576 19.7143C55.3488 19.1518 55.3041 18.9464 55.072 18.4733C54.7595 17.8483 53.8488 16.7322 53.2773 16.2768L52.9023 15.9821L53.4826 15.4554C54.1791 14.8125 54.822 13.9821 55.1255 13.3304C55.2951 12.9554 55.3488 12.6874 55.3576 12.1875C55.3666 11.5446 55.3576 11.5089 55.072 11.259C54.813 11.0267 54.7148 11 54.2148 11C53.6969 11 53.6165 11.0268 53.4559 11.2321C53.3309 11.3929 53.2685 11.5983 53.2685 11.8661C53.2685 12.0804 53.2148 12.3839 53.1434 12.5446C52.9917 12.9197 52.313 13.6607 51.4916 14.3661L50.8309 14.9286H49.5185V13.4733C49.5185 12.6786 49.4738 11.875 49.4291 11.6964C49.2952 11.2143 48.9737 11 48.3934 11C47.9917 11 47.8845 11.0357 47.6523 11.2768ZM59.0184 11.1249C57.8129 11.5089 57.1524 12.3661 56.688 14.116C56.4737 14.9017 56.4559 15.1697 56.4202 17.4374C56.3666 20.116 56.4023 20.4107 56.813 20.732C57.1077 20.9643 57.8666 20.9731 58.1434 20.75C58.4648 20.491 58.5363 20.2411 58.5363 19.3124V18.4106H63.1791V19.4018C63.1791 20.375 63.1791 20.3928 63.4379 20.6518C63.6702 20.8749 63.7684 20.9106 64.2058 20.9106C64.6612 20.9106 64.7416 20.8839 64.9827 20.6249L65.2415 20.3393L65.2148 17.4821C65.179 14.8392 65.1612 14.5624 64.9827 13.9643C64.554 12.5535 63.929 11.6697 63.0897 11.2768C62.6255 11.0625 62.5004 11.0447 60.9916 11.0267C59.8487 11.009 59.2772 11.0357 59.0184 11.1249ZM62.0987 13.1518C62.5898 13.3214 63.0095 14.4018 63.1254 15.75L63.1701 16.3572H58.5094L58.572 15.6428C58.6791 14.3838 59.1701 13.2053 59.6255 13.1161C60.0631 13.0357 61.8309 13.0626 62.0987 13.1518ZM68.045 11.1249C67.1702 11.4017 66.6791 11.8303 66.3755 12.6072C66.2237 12.9999 66.179 13.2857 66.179 13.9911C66.179 15.4197 66.6076 16.2321 67.6166 16.7232C68.0183 16.9196 68.1791 16.9375 69.938 16.9822C71.7593 17.0267 71.8397 17.0357 72.0361 17.2321C72.2951 17.4911 72.3218 18.25 72.0808 18.616L71.9289 18.857H69.5273C67.2594 18.857 67.1165 18.866 66.9022 19.0356C66.4023 19.4285 66.3843 20.2856 66.8577 20.6875L67.1255 20.9106H69.7237C71.17 20.9106 72.4737 20.8661 72.6523 20.8214C73.1432 20.6875 73.67 20.1697 74.0005 19.5C74.2773 18.9374 74.295 18.857 74.295 17.9195C74.295 17.0447 74.2683 16.8839 74.0629 16.4464C73.7682 15.8214 73.3665 15.3571 72.9291 15.1429C72.6433 15 72.3129 14.9643 70.563 14.9286C68.1969 14.8749 68.2683 14.9107 68.2683 13.9911C68.2683 13.0626 68.1344 13.1071 70.9826 13.0536L73.4469 13.0089L73.688 12.7678C73.9023 12.5535 73.929 12.4464 73.9648 11.7679L74.0093 11L71.2058 11.009C69.2058 11.009 68.304 11.0447 68.045 11.1249ZM76.8844 11.1249C76.6879 11.1876 76.4111 11.3035 76.2594 11.375C75.1076 11.9822 74.6255 14.0178 75.2862 15.4642C75.563 16.0714 75.8665 16.3928 76.4379 16.6964C76.8665 16.9285 76.9379 16.9375 78.67 16.9643C79.6522 16.9732 80.5628 17.0357 80.6969 17.0804C81.0094 17.2053 81.1611 17.6607 81.0808 18.1963C80.9825 18.875 81.0539 18.857 78.3486 18.857H75.929L75.6701 19.116C75.4469 19.3481 75.4111 19.4463 75.4111 19.8839C75.4111 20.3214 75.4469 20.4195 75.6701 20.6518L75.929 20.9106H78.6254C81.6254 20.9106 81.6969 20.9017 82.3219 20.3036C82.8665 19.7768 83.1165 19.1518 83.1612 18.125C83.2147 16.9375 82.9914 16.2411 82.3308 15.5893C82.0361 15.2946 81.7415 15.0893 81.5183 15.0268C81.3219 14.9731 80.4289 14.9286 79.5094 14.9286C78.5896 14.9286 77.7236 14.9017 77.5719 14.8749C77.2504 14.8125 77.1075 14.5357 77.1075 13.9911C77.1075 13.4463 77.2504 13.1696 77.5719 13.1071C77.7236 13.0803 78.8039 13.0536 79.9825 13.0536C82.7593 13.0536 82.8218 13.0179 82.8218 11.6697V11L80.0362 11.009C78.045 11.009 77.1343 11.0447 76.8844 11.1249ZM86.67 11.1786C86.4111 11.2678 86.0539 11.4554 85.8843 11.5893C85.1701 12.1339 84.5271 13.5625 84.3485 15.0178C84.2146 16.0357 84.2236 19.9999 84.3485 20.366C84.4736 20.7143 84.8307 20.9106 85.3575 20.9106C85.679 20.9106 85.8218 20.8571 86.0539 20.6518L86.3486 20.3928L86.3754 19.4018L86.4111 18.4106H90.929L90.9647 19.4018L90.9915 20.3928L91.286 20.6518C91.5183 20.8661 91.6522 20.9106 92.0182 20.9106C92.3843 20.9106 92.5182 20.8661 92.7503 20.6518L93.0451 20.3928L93.0361 17.5893C93.0271 15.0268 93.0181 14.741 92.8396 14.0983C92.4378 12.625 91.8396 11.7322 90.9735 11.3035C90.4646 11.0535 90.42 11.0447 88.804 11.0267C87.3486 11 87.0986 11.0178 86.67 11.1786ZM90.2414 13.4106C90.5986 13.8303 90.8664 14.7233 90.92 15.6161L90.9735 16.3572H86.3932V15.8124C86.3932 14.6786 86.8932 13.3571 87.3933 13.1428C87.5093 13.0981 88.1343 13.0714 88.795 13.0803L89.9825 13.0981L90.2414 13.4106Z" fill="#D61E2F"/>
<rect x="0.5" y="0.5" width="100.045" height="31" rx="5.5" stroke="#D9D9D9"/>
</svg>
