<svg width="73" height="32" viewBox="0 0 73 32" fill="none" xmlns="http://www.w3.org/2000/svg">
<rect x="0.5" y="0.5" width="71.4043" height="31" rx="5.5" fill="white"/>
<path d="M13.6253 12.774C13.5871 12.3884 13.423 12.0889 13.1331 11.8754C12.8432 11.6619 12.4496 11.5552 11.9525 11.5552C11.6148 11.5552 11.3297 11.6029 11.0971 11.6986C10.8645 11.7909 10.686 11.92 10.5618 12.0857C10.4406 12.2514 10.3802 12.4394 10.3802 12.6497C10.3738 12.8249 10.4104 12.9779 10.4901 13.1085C10.5729 13.2391 10.686 13.3523 10.8294 13.4478C10.9728 13.5402 11.1385 13.6215 11.3265 13.6916C11.5144 13.7585 11.7152 13.8158 11.9286 13.8637L12.8081 14.074C13.235 14.1695 13.6269 14.297 13.9838 14.4563C14.3407 14.6156 14.6498 14.8115 14.911 15.0441C15.1723 15.2768 15.3747 15.5508 15.518 15.8663C15.6646 16.1816 15.7395 16.5433 15.7426 16.9511C15.7395 17.5502 15.5865 18.0696 15.2838 18.5092C14.9843 18.9457 14.551 19.2851 13.9838 19.5273C13.4199 19.7662 12.7396 19.8857 11.943 19.8857C11.1528 19.8857 10.4645 19.7646 9.87829 19.5225C9.29519 19.2803 8.83961 18.9219 8.51143 18.4471C8.1864 17.9692 8.01593 17.3781 8 16.6739H10.0026C10.0249 17.0022 10.1189 17.2762 10.2845 17.496C10.4534 17.7127 10.6781 17.8768 10.9585 17.9883C11.242 18.0966 11.5622 18.1508 11.9191 18.1508C12.2696 18.1508 12.5739 18.0997 12.8319 17.9978C13.0933 17.8958 13.2956 17.7541 13.4389 17.5725C13.5824 17.3908 13.6541 17.1822 13.6541 16.9463C13.6541 16.7265 13.5888 16.5417 13.4581 16.3919C13.3306 16.2422 13.1426 16.1148 12.8941 16.0096C12.6488 15.9045 12.3477 15.8088 11.9908 15.7228L10.9251 15.4552C10.0998 15.2544 9.44817 14.9406 8.97027 14.5136C8.49226 14.0867 8.25493 13.5115 8.25807 12.7883C8.25493 12.1956 8.41262 11.6779 8.73126 11.235C9.05304 10.792 9.49438 10.4464 10.0552 10.1978C10.6159 9.9493 11.2532 9.82503 11.9669 9.82503C12.6934 9.82503 13.3275 9.9493 13.8692 10.1978C14.414 10.4464 14.8378 10.792 15.1405 11.235C15.4432 11.6779 15.5993 12.1909 15.6088 12.774H13.6253ZM18.9206 19.8857C18.4522 19.8857 18.0348 19.8044 17.6684 19.6419C17.302 19.4762 17.012 19.2325 16.7986 18.9108C16.5883 18.5857 16.4831 18.1811 16.4831 17.6968C16.4831 17.2889 16.558 16.9463 16.7078 16.6692C16.8575 16.3919 17.0614 16.169 17.3196 16.0001C17.5776 15.8311 17.8707 15.7037 18.199 15.6177C18.5303 15.5317 18.8777 15.4711 19.2408 15.436C19.6678 15.3915 20.0119 15.35 20.2732 15.3119C20.5344 15.2704 20.7241 15.2098 20.842 15.1302C20.9598 15.0505 21.0188 14.9327 21.0188 14.7765V14.7478C21.0188 14.4451 20.9232 14.2109 20.7321 14.0453C20.5441 13.8796 20.2764 13.7967 19.9291 13.7967C19.5627 13.7967 19.2711 13.8779 19.0544 14.0404C18.8378 14.1998 18.6944 14.4006 18.6243 14.6427L16.7412 14.4898C16.8368 14.0437 17.0248 13.6581 17.3052 13.3331C17.5856 13.0049 17.9472 12.7532 18.3901 12.578C18.8362 12.3996 19.3524 12.3103 19.9387 12.3103C20.3465 12.3103 20.7368 12.3581 21.1096 12.4538C21.4856 12.5493 21.8185 12.6975 22.1084 12.8982C22.4016 13.0989 22.6327 13.3571 22.8015 13.6725C22.9704 13.9847 23.0548 14.3591 23.0548 14.7956V19.7471H21.1239V18.7291H21.0666C20.9487 18.9585 20.7909 19.1609 20.5934 19.3361C20.3959 19.5081 20.1585 19.6436 19.8813 19.7423C19.6041 19.838 19.2839 19.8857 18.9206 19.8857ZM19.5037 18.4805C19.8033 18.4805 20.0676 18.4216 20.2971 18.3038C20.5265 18.1826 20.7065 18.0201 20.8371 17.8162C20.9678 17.6123 21.0331 17.3813 21.0331 17.1232V16.3442C20.9694 16.3855 20.8818 16.4238 20.7703 16.4589C20.662 16.4907 20.5393 16.521 20.4022 16.5496C20.2653 16.5752 20.1282 16.5991 19.9913 16.6214C19.8542 16.6405 19.7299 16.658 19.6184 16.6739C19.3794 16.709 19.1707 16.7647 18.9923 16.8412C18.8138 16.9177 18.6753 17.0212 18.5765 17.1519C18.4777 17.2793 18.4284 17.4387 18.4284 17.6298C18.4284 17.9071 18.5287 18.1189 18.7295 18.2655C18.9334 18.4089 19.1915 18.4805 19.5037 18.4805ZM28.3131 12.4059V13.9354H23.7822V12.4059H28.3131ZM24.8193 19.7471V11.8754C24.8193 11.3433 24.9228 10.902 25.13 10.5515C25.3402 10.201 25.627 9.9382 25.9902 9.7629C26.3535 9.58771 26.7661 9.5 27.2281 9.5C27.5403 9.5 27.8255 9.52389 28.0836 9.57178C28.3449 9.61956 28.5393 9.66252 28.6667 9.70076L28.3034 11.2301C28.2238 11.2047 28.1251 11.1808 28.0071 11.1585C27.8925 11.1361 27.7746 11.125 27.6535 11.125C27.354 11.125 27.1453 11.1951 27.0274 11.3353C26.9094 11.4724 26.8506 11.6651 26.8506 11.9136V19.7471H24.8193ZM32.3705 19.8904C31.6153 19.8904 30.9653 19.7376 30.4204 19.4317C29.8788 19.1226 29.4613 18.6861 29.1683 18.1221C28.8751 17.555 28.7285 16.8842 28.7285 16.11C28.7285 15.3548 28.8751 14.6921 29.1683 14.1218C29.4613 13.5514 29.874 13.1069 30.406 12.7883C30.9414 12.4697 31.5691 12.3103 32.2892 12.3103C32.7734 12.3103 33.2243 12.3884 33.6418 12.5445C34.0624 12.6975 34.4288 12.9285 34.741 13.2375C35.0565 13.5466 35.3018 13.9354 35.4771 14.4037C35.6523 14.869 35.7399 15.4138 35.7399 16.0383V16.5975H29.541V15.3357H33.8233C33.8233 15.0426 33.7596 14.7829 33.6322 14.5567C33.5047 14.3305 33.328 14.1536 33.1017 14.0261C32.8787 13.8955 32.619 13.8302 32.3227 13.8302C32.0136 13.8302 31.7396 13.9019 31.5006 14.0453C31.2648 14.1855 31.08 14.375 30.9462 14.614C30.8124 14.8498 30.7439 15.1127 30.7406 15.4026V16.6022C30.7406 16.9655 30.8076 17.2793 30.9414 17.5438C31.0784 17.8083 31.2712 18.0122 31.5196 18.1556C31.7682 18.2989 32.0629 18.3706 32.4039 18.3706C32.6301 18.3706 32.8373 18.3388 33.0252 18.275C33.2132 18.2113 33.3742 18.1158 33.508 17.9883C33.6418 17.8609 33.7437 17.7047 33.8138 17.5199L35.6969 17.6442C35.6013 18.0966 35.4053 18.4917 35.109 18.8294C34.8159 19.164 34.4367 19.4253 33.9715 19.6133C33.5095 19.7981 32.9758 19.8904 32.3705 19.8904ZM36.7994 19.7471V12.4059H38.7733V13.6868H38.8498C38.9836 13.2311 39.2082 12.887 39.5237 12.6544C39.8391 12.4187 40.2024 12.3008 40.6134 12.3008C40.7154 12.3008 40.8253 12.3072 40.9432 12.3199C41.0611 12.3326 41.1646 12.3501 41.2539 12.3725V14.1791C41.1582 14.1504 41.0261 14.1249 40.8572 14.1026C40.6883 14.0803 40.5337 14.0692 40.3935 14.0692C40.094 14.0692 39.8263 14.1344 39.5906 14.2651C39.358 14.3926 39.1732 14.571 39.0362 14.8004C38.9024 15.0298 38.8354 15.2943 38.8354 15.5938V19.7471H36.7994ZM42.0373 22.5V12.4059H44.0447V13.639H44.1355C44.2247 13.4414 44.3538 13.2408 44.5226 13.0368C44.6947 12.8297 44.9177 12.6577 45.1917 12.5206C45.4689 12.3804 45.813 12.3103 46.2241 12.3103C46.7594 12.3103 47.2532 12.4505 47.7057 12.7309C48.1581 13.0082 48.5198 13.4272 48.7906 13.988C49.0614 14.5455 49.1969 15.2449 49.1969 16.0861C49.1969 16.9049 49.0647 17.5964 48.8002 18.1603C48.5389 18.7211 48.182 19.1465 47.7296 19.4364C47.2804 19.7232 46.7769 19.8666 46.2193 19.8666C45.8243 19.8666 45.488 19.8013 45.2109 19.6706C44.9369 19.54 44.7122 19.3759 44.5369 19.1784C44.3617 18.9776 44.2279 18.7753 44.1355 18.5714H44.0734V22.5H42.0373ZM44.0303 16.0765C44.0303 16.5131 44.0909 16.8938 44.212 17.2188C44.333 17.5438 44.5083 17.7971 44.7377 17.9787C44.9672 18.1572 45.2459 18.2463 45.574 18.2463C45.9055 18.2463 46.1858 18.1556 46.4152 17.9739C46.6447 17.7892 46.8183 17.5343 46.9362 17.2092C47.0573 16.881 47.1179 16.5035 47.1179 16.0765C47.1179 15.6527 47.0589 15.2799 46.941 14.9581C46.8231 14.6363 46.6495 14.3845 46.42 14.203C46.1907 14.0214 45.9086 13.9305 45.574 13.9305C45.2427 13.9305 44.9623 14.0181 44.7329 14.1934C44.5066 14.3686 44.333 14.6172 44.212 14.9391C44.0909 15.2608 44.0303 15.64 44.0303 16.0765ZM52.3785 19.8857C51.9101 19.8857 51.4927 19.8044 51.1262 19.6419C50.7598 19.4762 50.4699 19.2325 50.2564 18.9108C50.0461 18.5857 49.941 18.1811 49.941 17.6968C49.941 17.2889 50.0158 16.9463 50.1656 16.6692C50.3154 16.3919 50.5193 16.169 50.7773 16.0001C51.0354 15.8311 51.3286 15.7037 51.6567 15.6177C51.9882 15.5317 52.3354 15.4711 52.6987 15.436C53.1257 15.3915 53.4698 15.35 53.731 15.3119C53.9923 15.2704 54.1819 15.2098 54.2997 15.1302C54.4177 15.0505 54.4766 14.9327 54.4766 14.7765V14.7478C54.4766 14.4451 54.381 14.2109 54.1898 14.0453C54.0018 13.8796 53.7342 13.7967 53.3869 13.7967C53.0205 13.7967 52.729 13.8779 52.5123 14.0404C52.2956 14.1998 52.1523 14.4006 52.0822 14.6427L50.199 14.4898C50.2946 14.0437 50.4826 13.6581 50.763 13.3331C51.0434 13.0049 51.4051 12.7532 51.848 12.578C52.294 12.3996 52.8102 12.3103 53.3964 12.3103C53.8043 12.3103 54.1946 12.3581 54.5675 12.4538C54.9434 12.5493 55.2764 12.6975 55.5663 12.8982C55.8595 13.0989 56.0904 13.3571 56.2593 13.6725C56.4282 13.9847 56.5126 14.3591 56.5126 14.7956V19.7471H54.5818V18.7291H54.5244C54.4065 18.9585 54.2488 19.1609 54.0512 19.3361C53.8537 19.5081 53.6164 19.6436 53.3391 19.7423C53.0619 19.838 52.7416 19.8857 52.3785 19.8857ZM52.9616 18.4805C53.261 18.4805 53.5255 18.4216 53.7549 18.3038C53.9843 18.1826 54.1644 18.0201 54.295 17.8162C54.4257 17.6123 54.491 17.3813 54.491 17.1232V16.3442C54.4273 16.3855 54.3395 16.4238 54.2281 16.4589C54.1197 16.4907 53.9971 16.521 53.8601 16.5496C53.723 16.5752 53.5861 16.5991 53.449 16.6214C53.3121 16.6405 53.1878 16.658 53.0762 16.6739C52.8373 16.709 52.6286 16.7647 52.4501 16.8412C52.2717 16.9177 52.1331 17.0212 52.0344 17.1519C51.9356 17.2793 51.8861 17.4387 51.8861 17.6298C51.8861 17.9071 51.9865 18.1189 52.1873 18.2655C52.3912 18.4089 52.6492 18.4805 52.9616 18.4805ZM58.8172 22.5C58.5591 22.5 58.317 22.4794 58.0907 22.4379C57.8677 22.3997 57.6828 22.3503 57.5362 22.2897L57.9951 20.7699C58.2341 20.8432 58.4492 20.883 58.6403 20.8894C58.8347 20.8957 59.002 20.8512 59.1422 20.7555C59.2856 20.66 59.4019 20.4974 59.491 20.2681L59.6106 19.9574L56.9771 12.4059H59.1183L60.6382 17.7971H60.7147L62.2489 12.4059H64.4043L61.551 20.5405C61.414 20.9356 61.2276 21.2797 60.9918 21.5728C60.7592 21.8691 60.4644 22.097 60.1077 22.2563C59.7508 22.4188 59.3207 22.5 58.8172 22.5Z" fill="black"/>
<rect x="0.5" y="0.5" width="71.4043" height="31" rx="5.5" stroke="#D9D9D9"/>
</svg>
