<svg width="55" height="32" viewBox="0 0 55 32" fill="none" xmlns="http://www.w3.org/2000/svg">
<rect x="0.5" y="0.5" width="53.5455" height="31" rx="5.5" fill="white"/>
<path fill-rule="evenodd" clip-rule="evenodd" d="M28.8681 10.1682L26.1806 10.745V8.56609L28.8681 8V10.1682ZM17.9468 9.23897L15.3342 9.79433L15.3236 18.3498C15.3236 19.9306 16.512 21.0948 18.0966 21.0948C18.9747 21.0948 19.6171 20.9346 19.9704 20.7423V18.5741C19.6278 18.7129 17.936 19.2043 17.936 17.6234V13.8318H19.9704V11.5567H17.936L17.9468 9.23897ZM46.5455 16.267C46.5455 13.5327 45.2178 11.3751 42.6802 11.3751C40.132 11.3751 38.5901 13.5327 38.5901 16.2456C38.5901 19.4606 40.4103 21.0841 43.0229 21.0841C44.297 21.0841 45.2606 20.7957 45.9887 20.3899V18.2536C45.2606 18.6168 44.4255 18.8411 43.3655 18.8411C42.3269 18.8411 41.4061 18.4779 41.2883 17.2176H46.5241C46.5241 17.1588 46.5279 17.0251 46.5323 16.8711C46.5384 16.6617 46.5455 16.4147 46.5455 16.267ZM41.2561 15.2523C41.2561 14.0454 41.9949 13.5434 42.6695 13.5434C43.3226 13.5434 44.0186 14.0454 44.0186 15.2523H41.2561ZM11.619 13.6929C11.0515 13.6929 10.7089 13.8532 10.7089 14.2697C10.7089 14.7245 11.2986 14.9246 12.0301 15.1728C13.2227 15.5774 14.7924 16.11 14.799 18.0828C14.799 19.9947 13.2679 21.0948 11.0409 21.0948C10.12 21.0948 9.11351 20.9133 8.11775 20.486V17.944C9.01715 18.4352 10.1521 18.7984 11.0409 18.7984C11.6404 18.7984 12.0687 18.6382 12.0687 18.1469C12.0687 17.6431 11.4295 17.4128 10.6578 17.1348C9.48256 16.7114 8 16.1774 8 14.3979C8 12.5073 9.44546 11.3751 11.619 11.3751C12.5077 11.3751 13.3857 11.514 14.2744 11.8665V14.3765C13.4606 13.9386 12.4327 13.6929 11.619 13.6929ZM23.3005 12.3471L23.1292 11.5567H20.8164V20.9025H23.4932V14.5688C24.1249 13.7463 25.1957 13.8959 25.5275 14.0133V11.5567C25.1849 11.4286 23.9322 11.1936 23.3005 12.3471ZM26.1805 11.5568H28.868V20.9025H26.1805V11.5568ZM32.3585 12.2083C32.7332 11.8665 33.4077 11.3751 34.4571 11.3751C36.3308 11.3751 38.0974 13.0628 38.1082 16.1602C38.1082 19.546 36.3629 21.0841 34.4464 21.0841C33.5041 21.0841 32.9367 20.6889 32.5512 20.4112L32.5405 23.4339L29.8637 24V11.546H32.2193L32.3585 12.2083ZM32.5511 18.2323C32.8081 18.51 33.1829 18.7343 33.8146 18.7343C34.7996 18.7343 35.4635 17.6662 35.4635 16.235C35.4635 14.8358 34.789 13.7463 33.8146 13.7463C33.2043 13.7463 32.8188 13.9599 32.5405 14.2697L32.5511 18.2323Z" fill="#6461FC"/>
<rect x="0.5" y="0.5" width="53.5455" height="31" rx="5.5" stroke="#D9D9D9"/>
</svg>
