<svg width="54" height="32" viewBox="0 0 54 32" fill="none" xmlns="http://www.w3.org/2000/svg">
<rect x="0.5" y="0.5" width="52.6" height="31" rx="5.5" fill="white"/>
<path fill-rule="evenodd" clip-rule="evenodd" d="M17.4004 21.9065H14.1464L11.7062 12.5972C11.5904 12.1691 11.3445 11.7904 10.9828 11.612C10.08 11.1637 9.08518 10.8068 8 10.6268V10.2684H13.242C13.9655 10.2684 14.5081 10.8068 14.5985 11.4321L15.8646 18.1471L19.1171 10.2684H22.2806L17.4004 21.9065ZM24.0893 21.9065H21.0162L23.5467 10.2684H26.6199L24.0893 21.9065ZM30.5958 13.4925C30.6863 12.8657 31.2289 12.5073 31.8619 12.5073C32.8567 12.4173 33.9403 12.5973 34.8447 13.0441L35.3873 10.5384C34.4829 10.1799 33.4882 10 32.5854 10C29.6026 10 27.4322 11.612 27.4322 13.8494C27.4322 15.5514 28.9696 16.4451 30.0548 16.9835C31.2289 17.5203 31.6811 17.8787 31.5906 18.4156C31.5906 19.2208 30.6863 19.5792 29.7835 19.5792C28.6983 19.5792 27.6131 19.3108 26.6199 18.8624L26.0773 21.3697C27.1625 21.8165 28.3366 21.9965 29.4218 21.9965C32.7662 22.0849 34.8447 20.4744 34.8447 18.0571C34.8447 15.013 30.5958 14.8346 30.5958 13.4925ZM45.6 21.9065L43.1598 10.2684H40.5388C39.9962 10.2684 39.4536 10.6268 39.2727 11.1637L34.7542 21.9065H37.9178L38.5493 20.206H42.4363L42.7981 21.9065H45.6ZM40.991 13.4026L41.8937 17.7887H39.3632L40.991 13.4026Z" fill="#172B85"/>
<rect x="0.5" y="0.5" width="52.6" height="31" rx="5.5" stroke="#D9D9D9"/>
</svg>
